<svg width="156" height="40" viewBox="0 0 156 40" fill="white" xmlns="http://www.w3.org/2000/svg">
<path d="M0 6C0 2.68629 2.68629 0 6 0H150C153.314 0 156 2.68629 156 6V34C156 37.3137 153.314 40 150 40H6C2.6863 40 0 37.3137 0 34V6Z" fill="#0F111A" fill-opacity="0.55"/>
<path fill-rule="evenodd" clip-rule="evenodd" d="M23.2683 11.6667H21.2422C17.9786 11.6667 15.333 15.3976 15.333 20C15.333 24.6023 17.9786 28.3333 21.2422 28.3333H23.2683" fill="#FFA413"/>
<path d="M22.7834 28.3333C26.0325 28.3333 28.6664 24.6023 28.6664 20C28.6664 15.3976 26.0325 11.6667 22.7834 11.6667C19.5343 11.6667 16.9004 15.3976 16.9004 20C16.9004 24.6023 19.5343 28.3333 22.7834 28.3333Z" fill="#FEA101"/>
<path d="M22.7834 28.3333C26.0325 28.3333 28.6664 24.6023 28.6664 20C28.6664 15.3976 26.0325 11.6667 22.7834 11.6667C19.5343 11.6667 16.9004 15.3976 16.9004 20C16.9004 24.6023 19.5343 28.3333 22.7834 28.3333Z" fill="#FFC35C"/>
<path d="M23.2678 26.4296C25.7613 26.4296 27.7827 23.507 27.7827 19.9017C27.7827 16.2966 25.7613 13.374 23.2678 13.374C20.7743 13.374 18.7529 16.2966 18.7529 19.9017C18.7529 23.507 20.7743 26.4296 23.2678 26.4296Z" fill="#FEA101"/>
<path d="M23.822 16.8055C24.8668 16.8055 25.7138 18.2357 25.7138 20C25.7138 21.7338 24.8958 23.145 23.8758 23.1932L23.822 23.1944L23.8153 23.1942L23.7682 23.1932C23.74 23.1918 23.7121 23.1895 23.6843 23.1861L20.2412 22.9662L23.4657 22.555L22.6723 22.5369C22.4399 22.2362 22.2501 21.8467 22.1207 21.3982L20.8493 21.2549L22.0498 21.12C21.9725 20.7715 21.9303 20.3941 21.9303 20C21.9303 19.6059 21.9725 19.2284 22.0498 18.8799L20.8493 18.745L22.1206 18.6018C22.2502 18.1532 22.44 17.7635 22.6724 17.4628L23.4657 17.4447L20.2412 17.0337L23.6768 16.8148C23.7247 16.8087 23.7732 16.8055 23.822 16.8055ZM23.822 18.8021C23.4303 18.8021 23.1126 19.3384 23.1126 20C23.1126 20.6616 23.4303 21.1979 23.822 21.1979C24.2138 21.1979 24.5314 20.6616 24.5314 20C24.5314 19.3384 24.2138 18.8021 23.822 18.8021Z" fill="white"/>
<g clip-path="url(#clip0_1_2848)">
<path fill-rule="evenodd" clip-rule="evenodd" d="M131.168 15.1684C130.476 15.8546 129.925 16.671 129.549 17.5705C129.172 18.4701 128.977 19.4351 128.975 20.4102C128.973 21.3854 129.163 22.3513 129.535 23.2526C129.907 24.154 130.454 24.9729 131.143 25.6624C131.833 26.3519 132.652 26.8983 133.553 27.2703C134.455 27.6424 135.421 27.8327 136.396 27.8303C137.371 27.8279 138.336 27.6328 139.235 27.2564C140.135 26.8799 140.951 26.3294 141.637 25.6366C143.026 24.2482 143.805 22.3652 143.805 20.4018C143.805 18.4385 143.025 16.5557 141.636 15.1675C140.949 14.4802 140.133 13.9349 139.235 13.563C138.337 13.1911 137.374 12.9997 136.402 12.9998C134.438 12.9999 132.557 13.78 131.168 15.1684ZM136.7 16.1059C137.324 16.1059 137.825 16.6216 137.825 17.2459C137.824 17.5456 137.706 17.833 137.495 18.0463C137.285 18.2597 136.999 18.382 136.7 18.3869C136.074 18.3869 135.559 17.8713 135.559 17.23C135.559 16.6056 136.074 16.105 136.699 16.105L136.7 16.1059ZM138.308 23.7466C138.275 23.845 138.222 23.9354 138.152 24.0119C137.746 24.4338 137.246 24.6831 136.652 24.6831C136.371 24.6831 136.105 24.6831 135.824 24.6363C135.371 24.5744 134.793 24.0119 134.871 23.4175L135.058 22.1988C135.184 21.4956 135.308 20.7775 135.433 20.0744C135.433 20.0275 135.449 19.9806 135.449 19.9338C135.449 19.6366 135.355 19.5278 135.059 19.4959C134.933 19.48 134.809 19.465 134.684 19.4341C134.543 19.3872 134.465 19.2616 134.481 19.1528C134.496 19.0272 134.574 18.9494 134.731 18.9184C134.809 18.9025 134.902 18.9025 134.996 18.9025H137.152C137.418 18.9025 137.574 19.0272 137.574 19.2934C137.574 19.5119 137.542 19.7303 137.496 19.9497C137.355 20.7616 137.199 21.5584 137.059 22.3713C137.012 22.6366 136.949 22.9019 136.918 23.1681C136.902 23.2928 136.918 23.4334 136.949 23.5581C136.996 23.7306 137.121 23.8244 137.293 23.8084C137.434 23.7925 137.574 23.7466 137.715 23.6838C137.825 23.6369 137.917 23.5581 138.027 23.5272C138.215 23.4653 138.355 23.5741 138.308 23.7466Z" fill="#B1B6C6"/>
</g>
<path d="M44.8398 14.9287L41.5449 24H40.1982L43.9922 14.0469H44.8604L44.8398 14.9287ZM47.6016 24L44.2998 14.9287L44.2793 14.0469H45.1475L48.9551 24H47.6016ZM47.4307 20.3154V21.3955H41.8389V20.3154H47.4307ZM51.6074 14.0469V24H50.2881V14.0469H51.6074ZM57.6162 14.0469L53.4805 18.6885L51.1562 21.1016L50.9375 19.6934L52.6875 17.7656L56.0303 14.0469H57.6162ZM56.3447 24L52.6602 19.1465L53.4463 18.1006L57.917 24H56.3447ZM66.0996 19.3447H63.5771L63.5635 18.2852H65.8535C66.2318 18.2852 66.5622 18.2214 66.8447 18.0938C67.1273 17.9661 67.346 17.7839 67.501 17.5469C67.6605 17.3053 67.7402 17.0182 67.7402 16.6855C67.7402 16.321 67.6696 16.0247 67.5283 15.7969C67.3916 15.5645 67.1797 15.3958 66.8926 15.291C66.61 15.1816 66.25 15.127 65.8125 15.127H63.8711V24H62.5518V14.0469H65.8125C66.3229 14.0469 66.7786 14.0993 67.1797 14.2041C67.5807 14.3044 67.9202 14.4639 68.1982 14.6826C68.4808 14.8968 68.695 15.1702 68.8408 15.5029C68.9867 15.8356 69.0596 16.2344 69.0596 16.6992C69.0596 17.1094 68.9548 17.4808 68.7451 17.8135C68.5355 18.1416 68.2438 18.4105 67.8701 18.6201C67.501 18.8298 67.068 18.9642 66.5713 19.0234L66.0996 19.3447ZM66.0381 24H63.0576L63.8027 22.9268H66.0381C66.4574 22.9268 66.8128 22.8538 67.1045 22.708C67.4007 22.5622 67.6263 22.3571 67.7812 22.0928C67.9362 21.8239 68.0137 21.5072 68.0137 21.1426C68.0137 20.7734 67.9476 20.4544 67.8154 20.1855C67.6833 19.9167 67.4759 19.7093 67.1934 19.5635C66.9108 19.4176 66.5462 19.3447 66.0996 19.3447H64.2197L64.2334 18.2852H66.8037L67.084 18.668C67.5625 18.709 67.9681 18.8457 68.3008 19.0781C68.6335 19.306 68.8864 19.5977 69.0596 19.9531C69.2373 20.3086 69.3262 20.7005 69.3262 21.1289C69.3262 21.7487 69.1895 22.2728 68.916 22.7012C68.6471 23.125 68.2666 23.4486 67.7744 23.6719C67.2822 23.8906 66.7035 24 66.0381 24ZM75.4443 22.7354V18.9277C75.4443 18.6361 75.3851 18.3831 75.2666 18.1689C75.1527 17.9502 74.9795 17.7816 74.7471 17.6631C74.5146 17.5446 74.2275 17.4854 73.8857 17.4854C73.5667 17.4854 73.2865 17.54 73.0449 17.6494C72.8079 17.7588 72.6211 17.9023 72.4844 18.0801C72.3522 18.2578 72.2861 18.4492 72.2861 18.6543H71.0215C71.0215 18.39 71.0898 18.1279 71.2266 17.8682C71.3633 17.6084 71.5592 17.3737 71.8145 17.1641C72.0742 16.9499 72.3841 16.7812 72.7441 16.6582C73.1087 16.5306 73.5143 16.4668 73.9609 16.4668C74.4987 16.4668 74.9727 16.5579 75.3828 16.7402C75.7975 16.9225 76.1211 17.1982 76.3535 17.5674C76.5905 17.932 76.709 18.39 76.709 18.9414V22.3867C76.709 22.6328 76.7295 22.8949 76.7705 23.1729C76.8161 23.4508 76.8822 23.6901 76.9688 23.8906V24H75.6494C75.5856 23.8542 75.5355 23.6605 75.499 23.4189C75.4626 23.1729 75.4443 22.945 75.4443 22.7354ZM75.6631 19.5156L75.6768 20.4043H74.3984C74.0384 20.4043 73.7171 20.4339 73.4346 20.4932C73.152 20.5479 72.915 20.6322 72.7236 20.7461C72.5322 20.86 72.3864 21.0036 72.2861 21.1768C72.1859 21.3454 72.1357 21.5436 72.1357 21.7715C72.1357 22.0039 72.1882 22.2158 72.293 22.4072C72.3978 22.5986 72.555 22.7513 72.7646 22.8652C72.9788 22.9746 73.2409 23.0293 73.5508 23.0293C73.9382 23.0293 74.2799 22.9473 74.5762 22.7832C74.8724 22.6191 75.1071 22.4186 75.2803 22.1816C75.458 21.9447 75.5537 21.7145 75.5674 21.4912L76.1074 22.0996C76.0755 22.291 75.9889 22.5029 75.8477 22.7354C75.7064 22.9678 75.5173 23.1911 75.2803 23.4053C75.0479 23.6149 74.7699 23.7904 74.4463 23.9316C74.1273 24.0684 73.7673 24.1367 73.3662 24.1367C72.8649 24.1367 72.4251 24.0387 72.0469 23.8428C71.6732 23.6468 71.3815 23.3848 71.1719 23.0566C70.9668 22.724 70.8643 22.3525 70.8643 21.9424C70.8643 21.5459 70.9417 21.1973 71.0967 20.8965C71.2516 20.5911 71.4749 20.3382 71.7666 20.1377C72.0583 19.9326 72.4092 19.7777 72.8193 19.6729C73.2295 19.568 73.6875 19.5156 74.1934 19.5156H75.6631ZM80.0723 13.5V24H78.8008V13.5H80.0723ZM86.4639 22.7354V18.9277C86.4639 18.6361 86.4046 18.3831 86.2861 18.1689C86.1722 17.9502 85.999 17.7816 85.7666 17.6631C85.5342 17.5446 85.2471 17.4854 84.9053 17.4854C84.5863 17.4854 84.306 17.54 84.0645 17.6494C83.8275 17.7588 83.6406 17.9023 83.5039 18.0801C83.3717 18.2578 83.3057 18.4492 83.3057 18.6543H82.041C82.041 18.39 82.1094 18.1279 82.2461 17.8682C82.3828 17.6084 82.5788 17.3737 82.834 17.1641C83.0938 16.9499 83.4036 16.7812 83.7637 16.6582C84.1283 16.5306 84.5339 16.4668 84.9805 16.4668C85.5182 16.4668 85.9922 16.5579 86.4023 16.7402C86.8171 16.9225 87.1406 17.1982 87.373 17.5674C87.61 17.932 87.7285 18.39 87.7285 18.9414V22.3867C87.7285 22.6328 87.749 22.8949 87.79 23.1729C87.8356 23.4508 87.9017 23.6901 87.9883 23.8906V24H86.6689C86.6051 23.8542 86.555 23.6605 86.5186 23.4189C86.4821 23.1729 86.4639 22.945 86.4639 22.7354ZM86.6826 19.5156L86.6963 20.4043H85.418C85.0579 20.4043 84.7367 20.4339 84.4541 20.4932C84.1715 20.5479 83.9346 20.6322 83.7432 20.7461C83.5518 20.86 83.4059 21.0036 83.3057 21.1768C83.2054 21.3454 83.1553 21.5436 83.1553 21.7715C83.1553 22.0039 83.2077 22.2158 83.3125 22.4072C83.4173 22.5986 83.5745 22.7513 83.7842 22.8652C83.9984 22.9746 84.2604 23.0293 84.5703 23.0293C84.9577 23.0293 85.2995 22.9473 85.5957 22.7832C85.8919 22.6191 86.1266 22.4186 86.2998 22.1816C86.4775 21.9447 86.5732 21.7145 86.5869 21.4912L87.127 22.0996C87.0951 22.291 87.0085 22.5029 86.8672 22.7354C86.7259 22.9678 86.5368 23.1911 86.2998 23.4053C86.0674 23.6149 85.7894 23.7904 85.4658 23.9316C85.1468 24.0684 84.7868 24.1367 84.3857 24.1367C83.8844 24.1367 83.4447 24.0387 83.0664 23.8428C82.6927 23.6468 82.401 23.3848 82.1914 23.0566C81.9863 22.724 81.8838 22.3525 81.8838 21.9424C81.8838 21.5459 81.9613 21.1973 82.1162 20.8965C82.2712 20.5911 82.4945 20.3382 82.7861 20.1377C83.0778 19.9326 83.4287 19.7777 83.8389 19.6729C84.249 19.568 84.707 19.5156 85.2129 19.5156H86.6826ZM90.9824 18.1826V24H89.7178V16.6035H90.9141L90.9824 18.1826ZM90.6816 20.0215L90.1553 20.001C90.1598 19.4951 90.235 19.028 90.3809 18.5996C90.5267 18.1667 90.7318 17.7907 90.9961 17.4717C91.2604 17.1527 91.5749 16.9066 91.9395 16.7334C92.3086 16.5557 92.7165 16.4668 93.1631 16.4668C93.5277 16.4668 93.8558 16.5169 94.1475 16.6172C94.4391 16.7129 94.6875 16.8678 94.8926 17.082C95.1022 17.2962 95.2617 17.5742 95.3711 17.916C95.4805 18.2533 95.5352 18.6657 95.5352 19.1533V24H94.2637V19.1396C94.2637 18.7523 94.2067 18.4424 94.0928 18.21C93.9788 17.973 93.8125 17.8021 93.5938 17.6973C93.375 17.5879 93.1061 17.5332 92.7871 17.5332C92.4727 17.5332 92.1855 17.5993 91.9258 17.7314C91.6706 17.8636 91.4495 18.0459 91.2627 18.2783C91.0804 18.5107 90.9368 18.7773 90.832 19.0781C90.7318 19.3743 90.6816 19.6888 90.6816 20.0215ZM100.416 23.0977C100.717 23.0977 100.995 23.0361 101.25 22.9131C101.505 22.79 101.715 22.6214 101.879 22.4072C102.043 22.1885 102.136 21.9401 102.159 21.6621H103.362C103.34 22.0996 103.191 22.5075 102.918 22.8857C102.649 23.2594 102.296 23.5625 101.858 23.7949C101.421 24.0228 100.94 24.1367 100.416 24.1367C99.86 24.1367 99.3747 24.0387 98.96 23.8428C98.5498 23.6468 98.208 23.3779 97.9346 23.0361C97.6657 22.6943 97.4629 22.3024 97.3262 21.8604C97.194 21.4137 97.1279 20.9421 97.1279 20.4453V20.1582C97.1279 19.6615 97.194 19.1921 97.3262 18.75C97.4629 18.3034 97.6657 17.9092 97.9346 17.5674C98.208 17.2256 98.5498 16.9567 98.96 16.7607C99.3747 16.5648 99.86 16.4668 100.416 16.4668C100.995 16.4668 101.501 16.5853 101.934 16.8223C102.367 17.0547 102.706 17.3737 102.952 17.7793C103.203 18.1803 103.34 18.6361 103.362 19.1465H102.159C102.136 18.8411 102.05 18.5654 101.899 18.3193C101.754 18.0732 101.553 17.8773 101.298 17.7314C101.047 17.5811 100.753 17.5059 100.416 17.5059C100.029 17.5059 99.7028 17.5833 99.4385 17.7383C99.1787 17.8887 98.9714 18.0938 98.8164 18.3535C98.666 18.6087 98.5566 18.8936 98.4883 19.208C98.4245 19.5179 98.3926 19.8346 98.3926 20.1582V20.4453C98.3926 20.7689 98.4245 21.0879 98.4883 21.4023C98.5521 21.7168 98.6592 22.0016 98.8096 22.2568C98.9645 22.512 99.1719 22.7171 99.4316 22.8721C99.696 23.0225 100.024 23.0977 100.416 23.0977ZM107.854 24.1367C107.339 24.1367 106.871 24.0501 106.452 23.877C106.037 23.6992 105.68 23.4508 105.379 23.1318C105.083 22.8128 104.855 22.4346 104.695 21.9971C104.536 21.5596 104.456 21.0811 104.456 20.5615V20.2744C104.456 19.6729 104.545 19.1374 104.723 18.668C104.9 18.194 105.142 17.793 105.447 17.4648C105.753 17.1367 106.099 16.8883 106.486 16.7197C106.874 16.5511 107.275 16.4668 107.689 16.4668C108.218 16.4668 108.674 16.5579 109.057 16.7402C109.444 16.9225 109.761 17.1777 110.007 17.5059C110.253 17.8294 110.435 18.2122 110.554 18.6543C110.672 19.0918 110.731 19.5703 110.731 20.0898V20.6572H105.208V19.625H109.467V19.5293C109.449 19.2012 109.38 18.8822 109.262 18.5723C109.148 18.2624 108.965 18.0072 108.715 17.8066C108.464 17.6061 108.122 17.5059 107.689 17.5059C107.402 17.5059 107.138 17.5674 106.896 17.6904C106.655 17.8089 106.448 17.9867 106.274 18.2236C106.101 18.4606 105.967 18.75 105.871 19.0918C105.775 19.4336 105.728 19.8278 105.728 20.2744V20.5615C105.728 20.9124 105.775 21.2428 105.871 21.5527C105.971 21.8581 106.115 22.127 106.302 22.3594C106.493 22.5918 106.723 22.7741 106.992 22.9062C107.266 23.0384 107.576 23.1045 107.922 23.1045C108.368 23.1045 108.747 23.0133 109.057 22.8311C109.367 22.6488 109.638 22.4049 109.87 22.0996L110.636 22.708C110.476 22.9495 110.273 23.1797 110.027 23.3984C109.781 23.6172 109.478 23.7949 109.118 23.9316C108.763 24.0684 108.341 24.1367 107.854 24.1367Z" fill="white"/>
<defs>
<clipPath id="clip0_1_2848">
<rect width="15" height="15" fill="white" transform="translate(129 13)"/>
</clipPath>
</defs>
</svg>
