<svg width="20" height="16" viewBox="0 0 20 16" fill="currentColor" xmlns="http://www.w3.org/2000/svg">
<path fill-rule="evenodd" clip-rule="evenodd" d="M19.4444 8C19.4444 4.13401 16.4351 1 12.7229 1C12.5497 1 12.3779 1.00683 12.208 1.02024L0 1.5L8.95319 2.2037C7.98358 2.88897 7.19499 3.83118 6.6776 4.93639L2.16049 5.25L6.42594 5.54615C6.15146 6.30975 6.00137 7.13662 6.00137 8C6.00137 8.86338 6.15146 9.69025 6.42594 10.4539L2.16049 10.75L6.6776 11.0636C7.19499 12.1688 7.98358 13.1111 8.95319 13.7963L0 14.5L12.208 14.9798C12.3779 14.9931 12.5497 15 12.7229 15C16.4351 15 19.4444 11.8659 19.4444 8ZM10.2023 8C10.2023 9.44975 11.3308 10.625 12.7229 10.625C14.115 10.625 15.2434 9.44975 15.2434 8C15.2434 6.55025 14.115 5.37499 12.7229 5.37499C11.3308 5.37499 10.2023 6.55025 10.2023 8Z" fill="currentColor"/>
</svg>
