<svg width="6" height="12" viewBox="0 0 6 12" fill="none" xmlns="http://www.w3.org/2000/svg">
<path d="M6.00001 10.348C6.00235 10.0456 5.89514 9.75359 5.70001 9.53081L2.51101 5.99981L5.70001 2.46881C6.10515 2.00823 6.10515 1.29903 5.70001 0.838452C5.51107 0.622481 5.24428 0.499512 4.96464 0.499512C4.685 0.499512 4.4182 0.622481 4.22926 0.838452L0.305262 5.18502C-0.101754 5.64393 -0.101754 6.35412 0.305262 6.81302L4.22551 11.1612C4.41445 11.3771 4.68125 11.5001 4.96089 11.5001C5.24053 11.5001 5.50732 11.3771 5.69626 11.1612C5.89115 10.9398 5.9984 10.6491 5.99626 10.348" fill="#B1B6C6"/>
</svg>
