<svg width="18" height="18" viewBox="0 0 18 18" fill="currentColor" xmlns="http://www.w3.org/2000/svg">
<path fill-rule="evenodd" clip-rule="evenodd" d="M1.99951 7.99453C1.95276 8.32295 1.92857 8.65866 1.92857 9C1.92857 10.8718 2.65583 12.5738 3.8432 13.8387C4.71287 10.5463 6.81313 7.72043 9.65106 5.84266C9.34719 5.53706 9.02901 5.24735 8.69757 4.97469C7.99962 5.37681 7.21422 5.63888 6.38186 5.7264C6.18366 5.74723 5.98373 5.75809 5.78257 5.75885C4.24442 5.92261 2.87083 6.74809 1.99951 7.99453ZM2.29185 6.75655C3.35811 5.74517 4.78832 5.14526 6.32611 5.13969C6.98961 5.06922 7.61998 4.87527 8.19171 4.57968C7.30249 3.92095 6.32803 3.38082 5.28496 2.9819C3.89183 3.84372 2.82028 5.17578 2.29185 6.75655ZM10.5691 2.10328C10.0645 1.98894 9.53928 1.92857 9 1.92857C7.90901 1.92857 6.87576 2.17563 5.95307 2.61685C6.95111 3.04414 7.88426 3.59626 8.73848 4.25405C9.52312 3.72062 10.1609 2.98021 10.5691 2.10328ZM11.1453 2.25985C10.7188 3.21909 10.0471 4.03633 9.21539 4.63917C9.54381 4.91708 9.85924 5.21119 10.1609 5.52036C11.3132 4.82492 12.5756 4.28122 13.9179 3.91874C13.1433 3.16887 12.1977 2.59453 11.1453 2.25985ZM8.65921 16.0634C9.03101 15.3572 9.29466 13.7518 9.29466 11.9464V11.2991C9.31213 9.78788 9.99852 8.43742 11.0717 7.53019C10.7593 7.09081 10.4227 6.67213 10.0636 6.27674C7.20652 8.1365 5.117 10.9908 4.33218 14.312C5.49801 15.3373 7.00412 15.9849 8.65921 16.0634ZM9.30387 16.065C10.9566 15.9952 12.4625 15.358 13.632 14.3434C13.378 12.0204 12.5954 9.85821 11.4048 8.02086C10.473 8.83115 9.88392 10.0253 9.88392 11.3572V11.9464C9.88392 13.6415 9.66447 15.1691 9.30387 16.065ZM15.8437 7.21312C15.3568 7.0321 14.8373 6.9375 14.3036 6.9375C13.4067 6.9375 12.5722 7.20466 11.8754 7.66364C13.0519 9.46736 13.8491 11.5717 14.1624 13.8327C15.3465 12.5684 16.0714 10.8688 16.0714 9C16.0714 8.38269 15.9924 7.78388 15.8437 7.21312ZM15.6261 6.52472C15.3346 5.74476 14.9093 5.03003 14.3782 4.40848C13.0166 4.74387 11.7369 5.27224 10.5724 5.96098C10.9168 6.34632 11.241 6.75222 11.5434 7.17668C12.3348 6.65308 13.2836 6.34824 14.3036 6.34824C14.756 6.34824 15.1999 6.40833 15.6261 6.52472ZM9 17.25C4.44365 17.25 0.75 13.5563 0.75 9C0.75 4.44365 4.44365 0.75 9 0.75C13.5563 0.75 17.25 4.44365 17.25 9C17.25 13.5563 13.5563 17.25 9 17.25Z" fill="currentColor"/>
</svg>
