<svg width="18" height="11" viewBox="0 0 18 11" fill="currentColor" xmlns="http://www.w3.org/2000/svg">
<path d="M8.09329 10.5C8.39091 10.5 8.51846 10.3841 8.51846 10.0797V8.84783C8.51846 8.54348 8.39091 8.44203 8.09329 8.44203H3.35973V8.15217C3.35973 7.76087 3.45894 7.64493 3.98331 7.45652L6.73275 6.42754C7.63978 6.0942 8.46177 5.5 8.46177 3.99275V3.0942C8.46177 1.73188 7.45554 0.5 4.55021 0.5C1.65905 0.5 0.666992 1.74638 0.666992 3.0942V3.92029C0.666992 4.22464 0.766198 4.35507 1.06381 4.35507H2.7078C3.00542 4.35507 3.1188 4.22464 3.1188 3.92029V3.47101C3.1188 2.76087 3.65735 2.5 4.53604 2.5C5.41472 2.5 5.98161 2.76087 5.98161 3.42754V3.97826C5.98161 4.45652 5.75486 4.60145 5.40055 4.73188L2.36767 5.9058C1.44647 6.26812 0.851232 6.7029 0.851232 7.9058V10.0797C0.851232 10.3841 0.978783 10.5 1.2764 10.5H8.09329ZM16.9084 10.5C17.2061 10.5 17.3336 10.3841 17.3336 10.0797V8.86232C17.3336 8.55797 17.2061 8.45652 16.9084 8.45652H14.8393V0.934783C14.8393 0.528986 14.6267 0.5 14.4425 0.528986L10.1908 1.12319C9.92152 1.16667 9.76563 1.28261 9.76563 1.58696V2.81884C9.76563 3.12319 9.92152 3.22464 10.1908 3.18116L12.3308 2.8913V8.45652H10.1908C9.89318 8.45652 9.76563 8.55797 9.76563 8.86232V10.0797C9.76563 10.3841 9.89318 10.5 10.1908 10.5H16.9084Z" fill="currentColor"/>
</svg>
