<svg width="18" height="18" viewBox="0 0 18 18" fill="currentColor" xmlns="http://www.w3.org/2000/svg">
<path fill-rule="evenodd" clip-rule="evenodd" d="M5.34396 3.51323C6.74381 4.15381 8.14778 4.78552 9.55367 5.41283C9.71112 5.48306 9.7707 5.5612 9.73115 5.736C9.66052 6.04795 9.60718 6.36399 9.55436 6.67965C9.54079 6.76058 9.38224 7.11743 9.07871 7.75021L8.9998 7.91416L7.09678 7.67416L5.97451 7.25414L5.11165 7.91416L5.34764 8.02376L8.60572 8.52647C9.89344 9.47709 10.6729 9.98407 10.9442 10.0474C11.1209 10.0886 11.2064 9.92477 11.3405 10.0474C11.8288 10.494 12.2976 10.9617 12.7955 11.4424C13.5292 10.7918 14.2546 10.1486 14.9801 9.50535C14.9934 9.51295 15.0068 9.52055 15.0201 9.52815C14.9427 9.90893 14.8657 10.2898 14.7875 10.6705C14.679 11.199 14.4659 11.8626 14.1482 12.6613L14.0242 12.9672L12.7955 13.7626L13.6238 17.0999H5.38874L6.18874 13.7626C4.24801 11.6199 2.80853 9.88032 1.8703 8.54398C1.76773 8.39787 1.78318 8.31743 1.87732 8.17977C2.9143 6.66364 3.94538 5.14345 4.96906 3.61839C5.0798 3.45337 5.16498 3.43133 5.34396 3.51323ZM14.6989 6.2473L16.1998 8.06788C15.0667 9.081 13.939 9.7832 12.7955 10.8056C12.347 10.4081 12.0777 10.2849 11.6204 9.87946C12.3304 9.02614 13.3566 7.81542 14.6989 6.2473ZM12.3201 4.44567C13.2004 5.0519 13.8862 5.52226 14.3775 5.85675C14.3278 5.92408 14.2895 5.98066 14.2464 6.03343C13.3056 7.18638 12.3622 8.3372 11.426 9.49387C11.3221 9.6223 11.2417 9.64766 11.0902 9.57264C10.5035 9.28226 10.0165 8.67011 9.40214 8.37737C10.053 7.40282 11.0257 6.09226 12.3201 4.44567ZM9.93971 2.30537C10.9716 2.92574 11.765 3.40749 12.3201 3.7506C12.267 3.83267 11.3388 5.14351 10.9442 5.75284C10.7689 6.02366 10.4341 6.44941 9.93971 7.03011L10.1822 5.65623L9.93971 5.20866C9.32409 4.93785 8.87942 4.72586 8.60572 4.57269C8.561 4.5477 8.49575 4.5477 8.40998 4.57269L9.93971 2.30537ZM7.5258 0.899902C7.96331 1.15389 8.58876 1.53656 9.40214 2.04791L8.12064 4.39155C7.4362 4.098 6.85819 3.85009 6.38662 3.64783L5.83896 3.41293L5.68247 3.34581C6.30453 2.52039 6.91067 1.7161 7.5258 0.899902Z" fill="currentColor"/>
</svg>
