<svg width="17" height="18" viewBox="0 0 17 18" fill="currentColor" xmlns="http://www.w3.org/2000/svg">
<path d="M8.4458 2.7258C8.50087 2.77059 8.55415 2.81863 8.60544 2.86992L10.2312 4.49573C11.0266 5.29108 11.0413 6.57367 10.2542 7.36072C9.46715 8.14777 8.18448 8.13313 7.38918 7.33783C7.15289 7.10154 7.15289 6.71846 7.38918 6.48217C7.62548 6.24587 8.00855 6.24587 8.24485 6.48217C8.57189 6.80921 9.08848 6.81506 9.39854 6.50506C9.70854 6.195 9.70262 5.67848 9.37558 5.35144L7.74978 3.72561C7.42274 3.39855 6.90615 3.39266 6.59615 3.70269C6.29434 4.00449 6.22353 4.08523 6.16929 4.18806C6.10432 4.31142 6.05585 4.503 5.98015 4.96994C5.95025 5.15433 5.9728 5.33143 6.06898 5.75108L6.0731 5.76937C6.3041 6.77745 6.27124 7.37083 5.68804 8.02561C5.67147 8.0474 5.65332 8.06823 5.63352 8.0881L4.13604 9.58554L8.41445 13.864L10.7676 11.5108C11.2748 11.0036 11.7581 10.7572 12.5338 10.5201C12.6052 10.4983 12.8475 10.426 12.8551 10.4237C13.6823 10.1748 14.1331 9.94222 14.6986 9.37675C15.9961 8.07937 15.9717 5.94344 14.6345 4.60628L13.0087 2.98047C11.7406 1.71236 9.75418 1.62493 8.4458 2.7258ZM7.24701 2.26724C7.27657 2.19197 7.32174 2.12143 7.38252 2.06061C9.15695 0.286213 12.0589 0.319316 13.8643 2.12479L15.4901 3.75059C17.2956 5.55604 17.3287 8.45804 15.5543 10.2324C14.8253 10.9614 14.2057 11.281 13.2039 11.5825C13.1926 11.5859 12.9542 11.657 12.8877 11.6773C12.2845 11.8617 11.9655 12.0244 11.6233 12.3665L6.91701 17.0728C6.68072 17.3091 6.29764 17.3091 6.06135 17.0728L0.927215 11.9387C0.690928 11.7024 0.690928 11.3193 0.927215 11.083L4.69323 7.317C5.03787 6.97229 5.05794 6.75696 4.89356 6.03963L4.88937 6.02134C4.75894 5.45195 4.72252 5.16568 4.78563 4.77633C4.8816 4.18439 4.95372 3.89899 5.09885 3.62375C5.23154 3.37196 5.34607 3.24136 5.74042 2.847C6.15347 2.43396 6.70306 2.24171 7.24701 2.26724ZM7.98662 14.2918L3.70819 10.0134L2.21074 11.5108L6.48918 15.7893L7.98662 14.2918ZM13.4124 8.45131C13.5306 8.33319 13.7221 8.33319 13.8403 8.45131C13.9584 8.56949 13.9584 8.76102 13.8403 8.87914L13.8033 8.91613C13.0248 9.69307 11.7352 9.65299 10.9205 8.83967C10.8023 8.72163 10.8021 8.53009 10.9202 8.41184C11.0382 8.29359 11.2298 8.29339 11.348 8.41143C11.9323 8.99471 12.8398 9.02296 13.3757 8.48809L13.4124 8.45131Z" fill="currentColor"/>
</svg>
