<svg width="197" height="39" viewBox="0 0 197 39" fill="currentColor" xmlns="http://www.w3.org/2000/svg">
<path d="M0 8C0 3.58172 3.58172 0 8 0H189C193.418 0 197 3.58172 197 8V31C197 35.4183 193.418 39 189 39H8C3.58172 39 0 35.4183 0 31V8Z" fill="#CBD7FF" fill-opacity="0.075"/>
<path d="M59.8828 19.3447H57.3604L57.3467 18.2852H59.6367C60.015 18.2852 60.3454 18.2214 60.6279 18.0938C60.9105 17.9661 61.1292 17.7839 61.2842 17.5469C61.4437 17.3053 61.5234 17.0182 61.5234 16.6855C61.5234 16.321 61.4528 16.0247 61.3115 15.7969C61.1748 15.5645 60.9629 15.3958 60.6758 15.291C60.3932 15.1816 60.0332 15.127 59.5957 15.127H57.6543V24H56.335V14.0469H59.5957C60.1061 14.0469 60.5618 14.0993 60.9629 14.2041C61.3639 14.3044 61.7035 14.4639 61.9814 14.6826C62.264 14.8968 62.4782 15.1702 62.624 15.5029C62.7699 15.8356 62.8428 16.2344 62.8428 16.6992C62.8428 17.1094 62.738 17.4808 62.5283 17.8135C62.3187 18.1416 62.027 18.4105 61.6533 18.6201C61.2842 18.8298 60.8512 18.9642 60.3545 19.0234L59.8828 19.3447ZM59.8213 24H56.8408L57.5859 22.9268H59.8213C60.2406 22.9268 60.596 22.8538 60.8877 22.708C61.1839 22.5622 61.4095 22.3571 61.5645 22.0928C61.7194 21.8239 61.7969 21.5072 61.7969 21.1426C61.7969 20.7734 61.7308 20.4544 61.5986 20.1855C61.4665 19.9167 61.2591 19.7093 60.9766 19.5635C60.694 19.4176 60.3294 19.3447 59.8828 19.3447H58.0029L58.0166 18.2852H60.5869L60.8672 18.668C61.3457 18.709 61.7513 18.8457 62.084 19.0781C62.4167 19.306 62.6696 19.5977 62.8428 19.9531C63.0205 20.3086 63.1094 20.7005 63.1094 21.1289C63.1094 21.7487 62.9727 22.2728 62.6992 22.7012C62.4303 23.125 62.0498 23.4486 61.5576 23.6719C61.0654 23.8906 60.4867 24 59.8213 24ZM71.252 14.0469H72.5645V20.7803C72.5645 21.5277 72.3981 22.1497 72.0654 22.6465C71.7327 23.1432 71.2907 23.5169 70.7393 23.7676C70.1924 24.0137 69.5977 24.1367 68.9551 24.1367C68.2806 24.1367 67.6699 24.0137 67.123 23.7676C66.5807 23.5169 66.1501 23.1432 65.8311 22.6465C65.5166 22.1497 65.3594 21.5277 65.3594 20.7803V14.0469H66.665V20.7803C66.665 21.2998 66.7607 21.7282 66.9521 22.0654C67.1436 22.4027 67.4102 22.6533 67.752 22.8174C68.0983 22.9814 68.4993 23.0635 68.9551 23.0635C69.4154 23.0635 69.8164 22.9814 70.1582 22.8174C70.5046 22.6533 70.7734 22.4027 70.9648 22.0654C71.1562 21.7282 71.252 21.2998 71.252 20.7803V14.0469ZM75.5938 14.0469L78.1777 19.0439L80.7686 14.0469H82.2656L78.834 20.2812V24H77.5146V20.2812L74.083 14.0469H75.5938ZM94.0254 20.835H95.3379C95.2695 21.4639 95.0895 22.0267 94.7979 22.5234C94.5062 23.0202 94.0938 23.4144 93.5605 23.7061C93.0273 23.9932 92.362 24.1367 91.5645 24.1367C90.9811 24.1367 90.4502 24.0273 89.9717 23.8086C89.4977 23.5898 89.0898 23.2799 88.748 22.8789C88.4062 22.4733 88.1419 21.988 87.9551 21.4229C87.7728 20.8532 87.6816 20.2197 87.6816 19.5225V18.5312C87.6816 17.834 87.7728 17.2028 87.9551 16.6377C88.1419 16.068 88.4085 15.5804 88.7549 15.1748C89.1058 14.7692 89.5273 14.457 90.0195 14.2383C90.5117 14.0195 91.0654 13.9102 91.6807 13.9102C92.4326 13.9102 93.0684 14.0514 93.5879 14.334C94.1074 14.6165 94.5107 15.0085 94.7979 15.5098C95.0895 16.0065 95.2695 16.583 95.3379 17.2393H94.0254C93.9616 16.7744 93.8431 16.3757 93.6699 16.043C93.4967 15.7057 93.2507 15.446 92.9316 15.2637C92.6126 15.0814 92.1956 14.9902 91.6807 14.9902C91.2386 14.9902 90.849 15.0745 90.5117 15.2432C90.179 15.4118 89.8988 15.651 89.6709 15.9609C89.4476 16.2708 89.279 16.6423 89.165 17.0752C89.0511 17.5081 88.9941 17.9889 88.9941 18.5176V19.5225C88.9941 20.0101 89.0443 20.4681 89.1445 20.8965C89.2493 21.3249 89.4066 21.7008 89.6162 22.0244C89.8258 22.348 90.0924 22.6032 90.416 22.79C90.7396 22.9723 91.1224 23.0635 91.5645 23.0635C92.125 23.0635 92.5716 22.9746 92.9043 22.7969C93.237 22.6191 93.4876 22.3639 93.6562 22.0312C93.8294 21.6986 93.9525 21.2998 94.0254 20.835ZM97.6357 14.0469H100.931C101.678 14.0469 102.309 14.1608 102.824 14.3887C103.344 14.6165 103.738 14.9538 104.007 15.4004C104.28 15.8424 104.417 16.387 104.417 17.0342C104.417 17.4899 104.324 17.9069 104.137 18.2852C103.954 18.6589 103.69 18.9779 103.344 19.2422C103.002 19.502 102.592 19.6956 102.113 19.8232L101.744 19.9668H98.6475L98.6338 18.8936H100.972C101.446 18.8936 101.84 18.8115 102.154 18.6475C102.469 18.4788 102.706 18.2533 102.865 17.9707C103.025 17.6882 103.104 17.376 103.104 17.0342C103.104 16.6514 103.029 16.3164 102.879 16.0293C102.729 15.7422 102.492 15.5212 102.168 15.3662C101.849 15.2067 101.437 15.127 100.931 15.127H98.9551V24H97.6357V14.0469ZM103.453 24L101.033 19.4883L102.407 19.4814L104.861 23.918V24H103.453ZM106.893 14.0469L109.477 19.0439L112.067 14.0469H113.564L110.133 20.2812V24H108.813V20.2812L105.382 14.0469H106.893ZM119.014 20.0967H116.354V19.0234H119.014C119.529 19.0234 119.946 18.9414 120.265 18.7773C120.584 18.6133 120.816 18.3854 120.962 18.0938C121.112 17.8021 121.188 17.4694 121.188 17.0957C121.188 16.7539 121.112 16.4326 120.962 16.1318C120.816 15.8311 120.584 15.5895 120.265 15.4072C119.946 15.2204 119.529 15.127 119.014 15.127H116.662V24H115.343V14.0469H119.014C119.766 14.0469 120.401 14.1768 120.921 14.4365C121.44 14.6963 121.835 15.0563 122.104 15.5166C122.372 15.9723 122.507 16.4941 122.507 17.082C122.507 17.7201 122.372 18.2646 122.104 18.7158C121.835 19.167 121.44 19.5111 120.921 19.748C120.401 19.9805 119.766 20.0967 119.014 20.0967ZM128.353 14.0469V24H127.054V14.0469H128.353ZM131.552 14.0469V15.127H123.861V14.0469H131.552ZM141 18.709V19.3379C141 20.0853 140.907 20.7552 140.72 21.3477C140.533 21.9401 140.264 22.4437 139.913 22.8584C139.562 23.2731 139.141 23.5898 138.648 23.8086C138.161 24.0273 137.614 24.1367 137.008 24.1367C136.42 24.1367 135.88 24.0273 135.388 23.8086C134.9 23.5898 134.476 23.2731 134.116 22.8584C133.761 22.4437 133.485 21.9401 133.289 21.3477C133.093 20.7552 132.995 20.0853 132.995 19.3379V18.709C132.995 17.9616 133.091 17.2939 133.282 16.7061C133.478 16.1136 133.754 15.61 134.109 15.1953C134.465 14.776 134.886 14.457 135.374 14.2383C135.866 14.0195 136.406 13.9102 136.994 13.9102C137.6 13.9102 138.147 14.0195 138.635 14.2383C139.127 14.457 139.549 14.776 139.899 15.1953C140.255 15.61 140.526 16.1136 140.713 16.7061C140.904 17.2939 141 17.9616 141 18.709ZM139.694 19.3379V18.6953C139.694 18.1029 139.633 17.5788 139.51 17.123C139.391 16.6673 139.216 16.2845 138.983 15.9746C138.751 15.6647 138.466 15.43 138.129 15.2705C137.796 15.111 137.418 15.0312 136.994 15.0312C136.584 15.0312 136.213 15.111 135.88 15.2705C135.552 15.43 135.269 15.6647 135.032 15.9746C134.8 16.2845 134.62 16.6673 134.492 17.123C134.365 17.5788 134.301 18.1029 134.301 18.6953V19.3379C134.301 19.9349 134.365 20.4635 134.492 20.9238C134.62 21.3796 134.802 21.7646 135.039 22.0791C135.281 22.389 135.565 22.6237 135.894 22.7832C136.226 22.9427 136.598 23.0225 137.008 23.0225C137.436 23.0225 137.817 22.9427 138.149 22.7832C138.482 22.6237 138.762 22.389 138.99 22.0791C139.223 21.7646 139.398 21.3796 139.517 20.9238C139.635 20.4635 139.694 19.9349 139.694 19.3379Z" fill="currentColor"/>
</svg>
