<svg width="16" height="16" viewBox="0 0 16 16" fill="currentColor" xmlns="http://www.w3.org/2000/svg">
<path d="M6.90202 2.19632C7.90972 2.19632 8.86408 2.41781 9.72746 2.80494L9.72726 2.94083C9.72722 2.96832 9.72718 2.99917 9.72713 3.03264L9.72642 3.51192C9.72636 3.55431 9.7263 3.59631 9.72624 3.63716L9.72567 4.02423C9.72561 4.06351 9.72557 4.08617 9.72557 4.08617L9.02533 4.974C8.38784 4.64459 7.66752 4.4551 6.90202 4.4551C4.342 4.4551 2.25884 6.53758 2.25884 9.09816C2.25884 11.6587 4.342 13.7412 6.90202 13.7412C9.46204 13.7412 11.5452 11.6587 11.5452 9.09816C11.5452 8.33268 11.357 7.61175 11.0263 6.9749L11.9129 6.27468L12.0457 6.27448C12.0729 6.27444 12.1036 6.2744 12.1369 6.27435L12.6156 6.27364C12.658 6.27358 12.7001 6.27352 12.7411 6.27346L13.1775 6.27282L13.1948 6.2728C13.5819 7.13616 13.804 8.09049 13.804 9.09816C13.804 12.9099 10.7138 16 6.90202 16C3.09022 16 0 12.9099 0 9.09816C0 5.28646 3.09022 2.19632 6.90202 2.19632ZM6.90202 6.27468C7.23896 6.27468 7.55771 6.3437 7.85764 6.45162L6.4766 8.20155C6.18045 8.57613 6.21245 9.11322 6.54876 9.4489C6.72696 9.62709 6.96351 9.7256 7.21575 9.7256C7.42657 9.7256 7.63363 9.65344 7.79866 9.52294L9.548 8.14194C9.65718 8.44186 9.72557 8.7606 9.72557 9.09816C9.72557 10.6567 8.46125 11.9216 6.90202 11.9216C5.34279 11.9216 4.07847 10.6567 4.07847 9.09816C4.07847 7.53897 5.34279 6.27468 6.90202 6.27468ZM12.9545 0.0918856C13.0448 0.00216164 13.1785 -0.0248183 13.2964 0.024122C13.4138 0.0724349 13.4903 0.187256 13.4903 0.313999V2.51004H15.6864C15.8132 2.51004 15.928 2.58659 15.9763 2.70392C16.0246 2.82125 15.9976 2.95552 15.9085 3.04587L13.3987 5.55563C13.3397 5.61399 13.26 5.64724 13.1766 5.64724H11.6964L7.41026 9.03102C7.35316 9.07557 7.28414 9.09816 7.21575 9.09816C7.13481 9.09816 7.05449 9.06742 6.99363 9.00655C6.88069 8.89361 6.87065 8.71479 6.96916 8.58993L10.353 4.30389V2.82376C10.353 2.74031 10.3863 2.66062 10.4446 2.60165L12.9545 0.0918856Z" fill="currentColor"/>
</svg>
