<svg width="32" height="32" viewBox="0 0 32 32" fill="currentColor" xmlns="http://www.w3.org/2000/svg">
<path fill-rule="evenodd" clip-rule="evenodd" d="M18 10.4884V3.74884C18 3.55024 17.921 3.35977 17.7803 3.21933C17.6397 3.0789 17.4489 3 17.25 3H15.75C15.5511 3 15.3603 3.0789 15.2197 3.21933C15.079 3.35977 15 3.55024 15 3.74884V10.6271C15.24 10.5377 15.4938 10.4908 15.75 10.4884H18ZM24 14.9815C24 14.1871 23.6839 13.4252 23.1213 12.8635C22.5587 12.3017 21.7956 11.9861 21 11.9861H15.7407C15.6435 11.9861 15.5471 12.0053 15.4573 12.0424C15.3674 12.0796 15.2857 12.1341 15.217 12.2028C15.1482 12.2714 15.0936 12.353 15.0564 12.4427C15.0192 12.5324 15 12.6286 15 12.7257C14.9963 13.0206 15.0513 13.3134 15.1618 13.5869C15.2723 13.8604 15.4361 14.1093 15.6437 14.3192C15.8513 14.529 16.0985 14.6956 16.3711 14.8093C16.6436 14.923 16.9361 14.9815 17.2315 14.9815H18.8796C19.3333 14.9815 19.5 15.1479 19.5 15.3606V16.1186C19.4976 16.216 19.4579 16.3087 19.3889 16.3775C19.32 16.4464 19.2271 16.4861 19.1296 16.4884C17.0463 16.5994 16.1204 17.6441 14.6296 19.8814L14.3333 20.3251C14.3063 20.3661 14.2713 20.4014 14.2304 20.4287C14.1896 20.4561 14.1437 20.4751 14.0954 20.4845C14.0472 20.494 13.9975 20.4938 13.9493 20.4839C13.9011 20.474 13.8554 20.4546 13.8148 20.4268L13.1481 20.02C13.0665 19.9622 13.0103 19.8751 12.9914 19.7769C12.9724 19.6788 12.9921 19.5771 13.0463 19.4931L13.3426 19.0493C13.9603 18.0522 14.7041 17.1387 15.5556 16.3313C15.1502 16.2097 14.7754 16.0034 14.4561 15.7261C14.1368 15.4487 13.8803 15.1067 13.7037 14.7227C13.3861 14.8881 13.0341 14.9768 12.6759 14.9815H11.2963C10.7411 14.9804 10.2063 14.7728 9.79629 14.3991C9.38626 14.7728 8.85145 14.9804 8.2963 14.9815H6.75C6.49383 14.9792 6.24003 14.9322 6 14.8428V18.4946C6.00101 20.0831 6.63381 21.6061 7.75926 22.7288L9 23.9676V27H15V21C15 19.3431 16.3431 18 18 18H24V14.9815ZM22.5 5.2188V10.7658C22.0212 10.5791 21.5138 10.4759 21 10.4607H19.5V5.2188C19.5 5.02019 19.579 4.82972 19.7197 4.68929C19.8603 4.54885 20.0511 4.46995 20.25 4.46995H21.75C21.9489 4.46995 22.1397 4.54885 22.2803 4.68929C22.421 4.82972 22.5 5.02019 22.5 5.2188ZM6.75 13.4838H8.25926C8.45817 13.4838 8.64894 13.4049 8.78959 13.2645C8.93024 13.1241 9.00926 12.9336 9.00926 12.735V6.74422C9.00926 6.54562 8.93024 6.35514 8.78959 6.21471C8.64894 6.07427 8.45817 5.99538 8.25926 5.99538H6.75C6.65151 5.99538 6.55398 6.01475 6.46299 6.05238C6.37199 6.09001 6.28931 6.14517 6.21967 6.21471C6.15003 6.28425 6.09478 6.3668 6.05709 6.45765C6.0194 6.54851 6 6.64588 6 6.74422V12.735C6 12.9336 6.07902 13.1241 6.21967 13.2645C6.36032 13.4049 6.55109 13.4838 6.75 13.4838ZM12.7593 13.4838H11.2963C11.0974 13.4838 10.9066 13.4049 10.766 13.2645C10.6253 13.1241 10.5463 12.9336 10.5463 12.735V5.24653C10.5463 5.04793 10.6253 4.85746 10.766 4.71702C10.9066 4.57658 11.0974 4.49769 11.2963 4.49769H12.7593C12.9582 4.49769 13.1489 4.57658 13.2896 4.71702C13.4302 4.85746 13.5093 5.04793 13.5093 5.24653V12.735C13.5093 12.9336 13.4302 13.1241 13.2896 13.2645C13.1489 13.4049 12.9582 13.4838 12.7593 13.4838ZM16 21C16 19.8954 16.8954 19 18 19H26C27.1046 19 28 19.8954 28 21V29C28 30.1046 27.1046 31 26 31H18C16.8954 31 16 30.1046 16 29V21ZM18 29V27.9304L20.0996 24.0641C20.2062 23.8709 20.267 23.7038 20.2822 23.5627C20.2974 23.4141 20.305 23.2321 20.305 23.0167C20.305 22.9201 20.3012 22.8199 20.2936 22.7159C20.2936 22.6045 20.2746 22.5079 20.2366 22.4262C20.1985 22.3445 20.1415 22.2776 20.0654 22.2256C19.9893 22.1662 19.879 22.1365 19.7345 22.1365C19.5595 22.1365 19.4188 22.1848 19.3123 22.2813C19.2134 22.3779 19.1639 22.519 19.1639 22.7047V23.351H18V22.727C18 22.4893 18.0456 22.2665 18.1369 22.0585C18.2282 21.8505 18.3537 21.6685 18.5135 21.5125C18.6656 21.3565 18.8482 21.234 19.0612 21.1448C19.2742 21.0483 19.5025 21 19.7459 21C20.0502 21 20.3089 21.0557 20.5219 21.1671C20.7425 21.2711 20.9251 21.416 21.0696 21.6017C21.2065 21.7874 21.3054 21.9991 21.3663 22.2368C21.4347 22.4745 21.469 22.727 21.469 22.9944C21.469 23.1876 21.4652 23.351 21.4576 23.4847C21.45 23.611 21.4347 23.7335 21.4119 23.8524C21.3891 23.9712 21.3511 24.0901 21.2978 24.2089C21.2446 24.3278 21.1723 24.4726 21.081 24.6435L19.3693 27.8635H21.469V29H18ZM24.2769 29V27.8189H21.9605V26.7493L23.6379 21.0669H24.8703L23.1244 26.7493H24.2769V24.4875H25.4409V26.7493H26V27.8189H25.4409V29H24.2769Z" fill="currentColor"/>
</svg>
