<svg width="32" height="32" viewBox="0 0 32 32" fill="currentColor" xmlns="http://www.w3.org/2000/svg">
<path fill-rule="evenodd" clip-rule="evenodd" d="M6.77152 10.5002C8.30219 10.5002 9.54304 9.26891 9.54304 7.75008C9.54304 6.23125 8.30219 5 6.77152 5C5.24085 5 4 6.23125 4 7.75008C4 9.26891 5.24085 10.5002 6.77152 10.5002ZM9.95396 22.9541C8.94853 21.866 8.08649 20.6555 7.38853 19.3518C7.3806 19.3371 7.37224 19.323 7.36344 19.3092C7.32548 19.2496 7.22275 19.0632 7.29653 18.8791C7.34736 18.7514 7.45781 18.6761 7.52 18.6414C7.6956 18.5433 7.89485 18.4947 8.09627 18.5008C8.45657 18.5105 8.8173 18.5274 9.17566 18.562C10.8269 18.7285 12.4658 19.1141 14.0126 19.7235C14.0043 19.8145 14 19.9068 14 20V26.1966C12.7576 25.4706 11.3196 24.4308 9.95396 22.9541ZM9.39223 16.4442C11.3363 16.6404 13.2142 17.1023 14.9547 17.8053C15.4906 17.3057 16.2096 17 17 17H17.8881H25H25.1215C25.2284 16.7693 25.3345 16.5305 25.4389 16.2838L25.49 16.1631C25.9552 15.0663 26.5005 13.7804 26.9034 11.1686C26.9034 11.1686 27.0729 10.2574 26.9628 8.06866C26.9626 8.03885 26.9541 8.00967 26.9384 7.98426C26.9227 7.95885 26.9003 7.93815 26.8736 7.92438C23.2374 5.90784 18.3086 5.46435 18.3086 5.46435C14.9016 5.1577 12.754 5.31326 11.1884 5.60204C11.6383 6.51594 11.7896 7.54641 11.6211 8.5497C11.4526 9.553 10.9727 10.4791 10.2484 11.1988C9.5125 11.928 8.56282 12.4072 7.53551 12.5678C6.5082 12.7284 5.45604 12.562 4.52989 12.0926C4.7242 13.6035 5.14391 14.3036 5.14391 14.3036C5.26823 14.4864 5.40662 14.6594 5.55782 14.821C6.84425 16.1898 8.72313 16.3786 9.27638 16.4342C9.31893 16.4385 9.35525 16.4417 9.37757 16.4437L9.38408 16.4442H9.39223ZM15 20C15 18.8954 15.8954 18 17 18H25C26.1046 18 27 18.8954 27 20V28C27 29.1046 26.1046 30 25 30H17C15.8954 30 15 29.1046 15 28V20ZM17 28V26.9304L19.0996 23.0641C19.2062 22.8709 19.267 22.7038 19.2822 22.5627C19.2974 22.4141 19.305 22.2321 19.305 22.0167C19.305 21.9201 19.3012 21.8199 19.2936 21.7159C19.2936 21.6045 19.2746 21.5079 19.2366 21.4262C19.1985 21.3445 19.1415 21.2776 19.0654 21.2256C18.9893 21.1662 18.879 21.1365 18.7345 21.1365C18.5595 21.1365 18.4188 21.1848 18.3123 21.2813C18.2134 21.3779 18.1639 21.519 18.1639 21.7047V22.351H17V21.727C17 21.4893 17.0456 21.2665 17.1369 21.0585C17.2282 20.8505 17.3537 20.6685 17.5135 20.5125C17.6656 20.3565 17.8482 20.234 18.0612 20.1448C18.2742 20.0483 18.5025 20 18.7459 20C19.0502 20 19.3089 20.0557 19.5219 20.1671C19.7425 20.2711 19.9251 20.416 20.0696 20.6017C20.2065 20.7874 20.3054 20.9991 20.3663 21.2368C20.4347 21.4745 20.469 21.727 20.469 21.9944C20.469 22.1876 20.4652 22.351 20.4576 22.4847C20.45 22.611 20.4347 22.7335 20.4119 22.8524C20.3891 22.9712 20.3511 23.0901 20.2978 23.2089C20.2446 23.3278 20.1723 23.4726 20.081 23.6435L18.3693 26.8635H20.469V28H17ZM23.2769 28V26.8189H20.9605V25.7493L22.6379 20.0669H23.8703L22.1244 25.7493H23.2769V23.4875H24.4409V25.7493H25V26.8189H24.4409V28H23.2769Z" fill="currentColor"/>
</svg>
