<svg width="32" height="32" viewBox="0 0 32 32" fill="currentColor" xmlns="http://www.w3.org/2000/svg">
<path fill-rule="evenodd" clip-rule="evenodd" d="M10.933 18.8276L10.8967 18.8639L12.1361 20.1033L12.1724 20.067C12.9726 19.2668 14.1951 19.0684 15.2073 19.5745L15.3279 19.6348C15.1183 20.0443 15 20.5084 15 21V21.3989C14.8786 21.3591 14.7591 21.3101 14.6423 21.2517L14.4234 21.1423C14.086 20.9736 13.6785 21.0397 13.4118 21.3065L11.2797 23.4385C11.0898 23.6284 11.0235 23.9093 11.1084 24.1641C11.4033 25.0487 11.1731 26.024 10.5137 26.6834L9.96715 27.2299C8.94039 28.2567 7.27567 28.2567 6.24891 27.2299L3.77007 24.7511C2.74331 23.7243 2.74331 22.0596 3.77007 21.0328L4.31664 20.4863C4.97599 19.8269 5.95128 19.5967 6.8359 19.8916C7.09068 19.9765 7.37157 19.9102 7.56147 19.7203L9.69354 17.5882C9.96028 17.3215 10.0264 16.914 9.85771 16.5766L9.74826 16.3577C9.24216 15.3455 9.44054 14.123 10.2408 13.3227L18.0234 5.54015C20.0769 3.48662 23.4063 3.48662 25.4599 5.54015C27.5134 7.59368 27.5134 10.9231 25.4599 12.9766L20.4365 18H18H17.9577L24.2204 11.7372C25.5895 10.3682 25.5895 8.14859 24.2204 6.77956C22.8514 5.41054 20.6318 5.41054 19.2628 6.77956L11.4802 14.5622C11.2134 14.8289 11.1473 15.2364 11.316 15.5738L11.4255 15.7927C11.9316 16.8049 11.7332 18.0274 10.933 18.8276ZM10.277 19.4836L8.80088 20.9597C8.14153 21.6191 7.16624 21.8493 6.28162 21.5544C6.02684 21.4695 5.74595 21.5358 5.55605 21.7257L5.00949 22.2723C4.66723 22.6145 4.66723 23.1694 5.00949 23.5117L7.48832 25.9905C7.83058 26.3328 8.38548 26.3328 8.72774 25.9905L9.2743 25.4439C9.4642 25.254 9.53051 24.9732 9.44558 24.7184C9.15071 23.8338 9.38095 22.8585 10.0403 22.1991L11.5164 20.723L10.277 19.4836ZM6.47068 10.5069C4.7766 10.5069 3.40328 9.13361 3.40328 7.43954C3.40328 5.74546 4.7766 4.37214 6.47068 4.37214C8.16475 4.37214 9.53807 5.74546 9.53807 7.43954C9.53807 9.13361 8.16475 10.5069 6.47068 10.5069ZM6.47068 9.63053C7.68073 9.63053 8.66168 8.64959 8.66168 7.43954C8.66168 6.22948 7.68073 5.24854 6.47068 5.24854C5.26062 5.24854 4.27968 6.22948 4.27968 7.43954C4.27968 8.64959 5.26062 9.63053 6.47068 9.63053ZM16 21C16 19.8954 16.8954 19 18 19H26C27.1046 19 28 19.8954 28 21V29C28 30.1046 27.1046 31 26 31H18C16.8954 31 16 30.1046 16 29V21ZM18 29V27.9304L20.0996 24.0641C20.2062 23.8709 20.267 23.7038 20.2822 23.5627C20.2974 23.4141 20.305 23.2321 20.305 23.0167C20.305 22.9201 20.3012 22.8199 20.2936 22.7159C20.2936 22.6045 20.2746 22.5079 20.2366 22.4262C20.1985 22.3445 20.1415 22.2776 20.0654 22.2256C19.9893 22.1662 19.879 22.1365 19.7345 22.1365C19.5595 22.1365 19.4188 22.1848 19.3123 22.2813C19.2134 22.3779 19.1639 22.519 19.1639 22.7047V23.351H18V22.727C18 22.4893 18.0456 22.2665 18.1369 22.0585C18.2282 21.8505 18.3537 21.6685 18.5135 21.5125C18.6656 21.3565 18.8482 21.234 19.0612 21.1448C19.2742 21.0483 19.5025 21 19.7459 21C20.0502 21 20.3089 21.0557 20.5219 21.1671C20.7425 21.2711 20.9251 21.416 21.0696 21.6017C21.2065 21.7874 21.3054 21.9991 21.3663 22.2368C21.4347 22.4745 21.469 22.727 21.469 22.9944C21.469 23.1876 21.4652 23.351 21.4576 23.4847C21.45 23.611 21.4347 23.7335 21.4119 23.8524C21.3891 23.9712 21.3511 24.0901 21.2978 24.2089C21.2446 24.3278 21.1723 24.4726 21.081 24.6435L19.3693 27.8635H21.469V29H18ZM24.2769 29V27.8189H21.9605V26.7493L23.6379 21.0669H24.8703L23.1244 26.7493H24.2769V24.4875H25.4409V26.7493H26V27.8189H25.4409V29H24.2769Z" fill="currentColor"/>
</svg>
