<svg width="18" height="20" viewBox="0 0 18 20" fill="currentColor" xmlns="http://www.w3.org/2000/svg">
<path fill-rule="evenodd" clip-rule="evenodd" d="M3.27793 14.0225C4.42489 12.6812 5.53445 11.3838 6.48128 10.2767L7.37358 11.169C7.49699 11.0111 7.64281 10.8716 7.80636 10.7553L6.8715 9.82046L7.08208 9.5742L7.08566 9.57L7.08951 9.56547L7.09033 9.56457C8.41068 8.02072 9.28965 6.99298 9.28614 6.99655L14.1621 2.10272C14.3751 1.88886 14.7403 1.8952 14.9775 2.13233L15.8239 2.97877C16.061 3.2159 16.068 3.58175 15.855 3.79561L10.9605 8.70802C10.7001 8.93125 10.6998 8.93145 9.23616 10.1982L9.0319 10.375H10.8613L11.7746 9.58458C13.7098 7.64466 13.7103 7.64411 16.6989 4.6446L16.7014 4.64205C17.3882 3.9528 17.3667 2.82861 16.6689 2.13079L15.8224 1.28434C15.1246 0.58651 14.0024 0.567027 13.3156 1.25627L8.43969 6.1501C8.40903 6.18084 7.28269 7.49747 2.56946 13.0094C2.05164 12.9093 1.57309 13.0398 1.19413 13.4188C0.504535 14.1083 0.661258 15.0372 1.36614 15.7421L2.25655 16.6326C2.96275 17.3388 3.88815 17.4963 4.5799 16.8046C4.95702 16.4274 5.09418 15.9543 5.00308 15.4452L6.9375 13.771V12.4375C6.9375 12.3479 6.94321 12.2596 6.95428 12.1731L3.96627 14.7591L3.96752 14.7606C3.7413 14.9231 3.64702 15.2241 3.75699 15.4883C3.85916 15.7337 3.84315 15.8484 3.73346 15.9581C3.59697 16.0946 3.4074 16.0623 3.11709 15.772L2.22667 14.8816C1.93796 14.5929 1.90547 14.4003 2.04057 14.2652C2.14389 14.1619 2.26315 14.1477 2.52542 14.2598C2.80127 14.3777 3.11976 14.2715 3.27793 14.0225ZM2.15833 5.57742C2.15833 6.73441 3.09622 7.6723 4.25318 7.6723C5.41015 7.6723 6.34804 6.73441 6.34804 5.57742C6.34804 4.4205 5.41015 3.4826 4.25318 3.4826C3.09622 3.4826 2.15833 4.4205 2.15833 5.57742ZM5.7495 5.57742C5.7495 6.40386 5.0796 7.07376 4.25318 7.07376C3.42678 7.07376 2.75686 6.40386 2.75686 5.57742C2.75686 4.75106 3.42678 4.08114 4.25318 4.08114C5.0796 4.08114 5.7495 4.75106 5.7495 5.57742ZM7.625 12.4375C7.625 11.6781 8.24059 11.0625 9 11.0625H14.5C15.2594 11.0625 15.875 11.6781 15.875 12.4375V17.9375C15.875 18.6969 15.2594 19.3125 14.5 19.3125H9C8.24059 19.3125 7.625 18.6969 7.625 17.9375V12.4375ZM9 17.9375V17.2021L10.4435 14.5441C10.5168 14.4112 10.5586 14.2964 10.569 14.1994C10.5795 14.0972 10.5847 13.9721 10.5847 13.824C10.5847 13.7576 10.5821 13.6887 10.5769 13.6172C10.5769 13.5406 10.5638 13.4742 10.5377 13.418C10.5115 13.3618 10.4723 13.3158 10.42 13.2801C10.3676 13.2393 10.2918 13.2188 10.1925 13.2188C10.0722 13.2188 9.97543 13.252 9.90221 13.3184C9.83421 13.3848 9.80018 13.4818 9.80018 13.6095V14.0538H9V13.6248C9 13.4614 9.03135 13.3082 9.09412 13.1652C9.15689 13.0222 9.24317 12.8971 9.35303 12.7898C9.4576 12.6826 9.58314 12.5984 9.72958 12.537C9.87601 12.4707 10.033 12.4375 10.2003 12.4375C10.4095 12.4375 10.5874 12.4758 10.7338 12.5524C10.8855 12.6239 11.011 12.7235 11.1103 12.8512C11.2045 12.9788 11.2725 13.1244 11.3143 13.2878C11.3614 13.4512 11.3849 13.6248 11.3849 13.8086C11.3849 13.9415 11.3823 14.0538 11.3771 14.1457C11.3719 14.2326 11.3614 14.3168 11.3457 14.3985C11.33 14.4802 11.3039 14.5619 11.2672 14.6436C11.2307 14.7254 11.181 14.8249 11.1182 14.9424L9.94139 17.1562H11.3849V17.9375H9ZM13.3154 17.9375V17.1255H11.7228V16.3901L12.8761 12.4835H13.7233L12.523 16.3901H13.3154V14.8352H14.1156V16.3901H14.5V17.1255H14.1156V17.9375H13.3154Z" fill="currentColor"/>
</svg>
