<svg width="22" height="22" viewBox="0 0 22 22" fill="currentColor" xmlns="http://www.w3.org/2000/svg">
<path fill-rule="evenodd" clip-rule="evenodd" d="M8.69433 2.80368C8.79938 2.76629 8.90746 2.75001 9.01581 2.75C9.25966 2.75001 9.50517 2.8324 9.7218 2.94214L9.73617 2.95162C9.95005 3.09311 10.1645 3.23496 10.4041 3.32751C10.4153 3.34927 10.4339 3.38383 10.451 3.41562L10.4515 3.41651C10.4626 3.43723 10.4731 3.45669 10.4805 3.47058C10.4756 3.4825 10.4685 3.50077 10.4613 3.51904C10.4543 3.5373 10.4471 3.55558 10.4422 3.5675C10.6167 3.97517 10.7283 4.45823 10.5591 4.8866C10.4706 4.99755 10.3318 5.03656 10.1987 5.074C10.1582 5.08535 10.1183 5.09656 10.0805 5.10959C10.08 5.25194 10.0951 5.39324 10.1102 5.53442C10.117 5.59842 10.1239 5.66252 10.1292 5.72657C10.3127 5.75703 10.4813 5.70215 10.6502 5.64717C10.8012 5.59802 10.9524 5.5488 11.1146 5.56042C11.1277 5.50443 11.1401 5.44818 11.1525 5.3919C11.1838 5.2495 11.2152 5.10694 11.2593 4.96806C11.3305 5.09651 11.3334 5.24428 11.3342 5.38889C11.424 5.41504 11.5154 5.43889 11.6074 5.46188C11.6083 5.49735 11.609 5.56811 11.609 5.6035C12.2803 5.60761 12.9513 5.60667 13.6225 5.60572C14.4578 5.60455 15.293 5.60339 16.1286 5.61196C16.1249 5.66488 16.1175 5.7711 16.1145 5.82426L16.1587 5.82442L16.1929 5.82464L16.1936 5.82464C16.2231 5.82484 16.2527 5.82502 16.2724 5.82502C16.2715 5.6644 16.2717 5.50348 16.2718 5.3426C16.2719 5.2218 16.272 5.10035 16.2717 4.97975C16.3098 4.97813 16.3848 4.97583 16.4222 4.97506L16.4225 5.05803C16.4233 5.2519 16.424 5.44578 16.426 5.63973C16.4589 5.68126 16.5248 5.76426 16.5579 5.80579C16.5694 5.79186 16.5861 5.77171 16.6032 5.7511L16.6037 5.75044C16.6234 5.72677 16.6435 5.70256 16.6566 5.68657C16.7425 5.76917 16.7274 5.87469 16.7122 5.97936C16.7072 6.01417 16.7022 6.04889 16.701 6.08263C16.846 6.08101 16.9916 6.08342 17.1373 6.08583C17.4151 6.0904 17.6932 6.09499 17.9688 6.07179C17.9858 6.05896 18.0117 6.03948 18.037 6.02051L18.0947 5.97725L18.1087 5.98284C18.1618 6.00399 18.2155 6.02535 18.2684 6.04725C18.4511 6.04265 18.6344 6.04191 18.8178 6.04117L18.8383 6.0411C18.8362 6.09615 18.8343 6.15119 18.8325 6.20623L18.8301 6.27659L18.8277 6.34339L18.8073 6.34306C18.5692 6.33921 18.3305 6.33535 18.096 6.37716C17.9732 6.26871 17.8175 6.27286 17.6649 6.27693C17.6239 6.27803 17.5832 6.27912 17.5433 6.27801C17.4536 6.28231 17.363 6.28023 17.2723 6.27815C17.0708 6.27353 16.8691 6.2689 16.6761 6.33408C16.5097 6.38177 16.3271 6.37031 16.1803 6.27331C16.1693 6.30118 16.167 6.33975 16.1645 6.37948C16.1591 6.46806 16.1533 6.56244 16.0513 6.55707C15.7706 6.56083 15.49 6.55971 15.2095 6.55861C14.9094 6.55742 14.6094 6.55623 14.3094 6.561C14.23 6.60407 14.1498 6.64484 14.0707 6.68476C13.9917 6.92656 13.7741 7.09266 13.5781 7.24226L13.5418 7.27004C13.5251 7.52888 13.5847 7.77652 13.6445 8.02436C13.6758 8.1543 13.7071 8.28438 13.7274 8.4161C13.6129 8.44986 13.4976 8.48464 13.3845 8.52307C13.3268 8.66291 13.3021 8.82097 13.2775 8.97889C13.2327 9.26557 13.188 9.55206 12.9456 9.72923C12.8529 9.78464 12.7702 9.86102 12.6878 9.93713C12.514 10.0976 12.3414 10.257 12.0777 10.2169C12.2754 10.3861 12.0237 10.3331 12.05 10.1977C11.4934 10.1472 11.0063 9.87119 10.5244 9.59819C10.3974 9.52621 10.2707 9.45443 10.1432 9.38706C10.1148 9.56388 10.0699 9.73782 10.0234 9.91086C10.2556 9.95624 10.4473 10.1316 10.4884 10.3762C10.5326 10.6939 10.4978 11.0102 10.463 11.3272C10.4393 11.542 10.4156 11.7572 10.4166 11.9732C10.4239 12.1124 10.4022 12.2465 10.3615 12.375H10.3125C9.17338 12.375 8.25 13.2984 8.25 14.4375V16.5517C8.14818 16.3972 8.04602 16.2429 7.94351 16.0889C7.90934 16.0865 7.87476 16.0857 7.84004 16.085C7.73767 16.0825 7.63455 16.0802 7.54064 16.0388C7.42637 15.9184 7.35515 15.7666 7.28475 15.6166C7.26571 15.576 7.24673 15.5355 7.227 15.4959C7.16588 15.5664 7.13501 15.6541 7.10408 15.7419C7.06784 15.8447 7.03168 15.9476 6.94691 16.0228C6.70218 16.264 6.58969 16.5885 6.47811 16.9104C6.43806 17.0259 6.39813 17.1411 6.35225 17.252C6.28807 17.3832 6.27222 17.5274 6.25641 17.6714C6.23941 17.8261 6.22245 17.9806 6.14555 18.1181C6.10941 18.1832 6.04845 18.2245 5.9878 18.2657C5.91522 18.3149 5.8431 18.3638 5.81454 18.4528C5.74564 18.6288 5.66475 18.8111 5.50374 18.9182C5.38782 18.9962 5.32845 19.121 5.27884 19.25H3.4375C3.55964 19.0046 3.68998 18.763 3.88183 18.5681C3.90976 18.437 3.97351 18.3232 4.03726 18.2095C4.09131 18.113 4.14535 18.0166 4.17758 17.9096C4.21994 17.793 4.19641 17.6753 4.17275 17.5571C4.15458 17.4663 4.13632 17.3751 4.14777 17.2835C4.19699 16.7944 4.27478 16.309 4.35254 15.8238C4.37643 15.6747 4.40032 15.5257 4.42337 15.3766C4.29811 15.2692 4.2846 15.119 4.27089 14.9668C4.26429 14.8934 4.25763 14.8195 4.23839 14.7497C4.26759 14.6651 4.30429 14.5843 4.34848 14.5058C4.32649 14.4851 4.30468 14.4641 4.28288 14.4432L4.28229 14.4427C4.25826 14.4196 4.2342 14.3965 4.20993 14.3736C4.21736 14.3363 4.22321 14.2942 4.22932 14.2501C4.2602 14.0275 4.29785 13.7563 4.57914 13.8175C4.58854 13.4826 4.543 13.1526 4.49752 12.8229C4.44155 12.4173 4.38567 12.0123 4.43235 11.5998C4.46001 11.6329 4.48735 11.6663 4.51478 11.6999L4.51539 11.7006C4.53227 11.7213 4.54937 11.7422 4.56641 11.7628L4.54244 11.5098C4.68324 11.4329 4.83302 11.3737 4.99029 11.3437C4.77916 11.3152 4.5726 11.2647 4.36593 11.2142C4.32191 11.2034 4.27781 11.1926 4.23374 11.1821C4.17928 11.0349 4.20101 10.8792 4.22217 10.7275C4.22458 10.7103 4.22697 10.6931 4.22925 10.676C4.32661 10.1098 4.36256 9.53604 4.38278 8.96218C4.51285 8.91578 4.64905 8.90862 4.78511 8.90154C4.94596 8.89322 5.10663 8.88484 5.25675 8.81141C5.17078 8.0938 5.14906 7.34463 5.39754 6.65615C5.5975 6.06994 5.97952 5.50458 6.57557 5.29851C6.85716 5.22936 7.21139 5.15159 7.41042 5.43235C7.43779 5.40658 7.46515 5.38043 7.49244 5.35428C7.51981 5.32812 7.5471 5.30197 7.57446 5.2762C7.11996 4.34901 7.66294 2.99445 8.69433 2.80368ZM12.3317 6.82506C12.2119 6.90044 12.0943 6.98665 12.2202 7.1236C12.1589 7.16121 12.0972 7.19744 12.0351 7.23195C12.0072 7.25402 11.9692 7.27334 11.93 7.29341C11.8324 7.34319 11.7263 7.39729 11.7445 7.50819C11.8539 7.68859 11.9481 7.8782 12.0262 8.07503C12.265 7.87359 12.4552 7.60265 12.5841 7.31589C12.611 7.28743 12.6657 7.23051 12.6926 7.20273C12.6807 7.07121 12.6522 6.94265 12.602 6.82122C12.5122 6.82283 12.4215 6.82429 12.3317 6.82506Z" fill="currentColor"/>
<path fill-rule="evenodd" clip-rule="evenodd" d="M10.3125 13.0625C9.55309 13.0625 8.9375 13.6781 8.9375 14.4375V19.9375C8.9375 20.6969 9.55309 21.3125 10.3125 21.3125H15.8125C16.5719 21.3125 17.1875 20.6969 17.1875 19.9375V14.4375C17.1875 13.6781 16.5719 13.0625 15.8125 13.0625H10.3125ZM10.3125 19.2022V19.9375H12.6974V19.1562H11.2539L12.4307 16.9424C12.4935 16.8249 12.5432 16.7254 12.5797 16.6436C12.6164 16.5619 12.6425 16.4802 12.6582 16.3985C12.6739 16.3168 12.6844 16.2326 12.6896 16.1457C12.6948 16.0538 12.6974 15.9415 12.6974 15.8087C12.6974 15.6248 12.6739 15.4512 12.6268 15.2878C12.585 15.1244 12.517 14.9788 12.4228 14.8512C12.3235 14.7235 12.198 14.6239 12.0463 14.5524C11.8999 14.4758 11.722 14.4375 11.5128 14.4375C11.3455 14.4375 11.1885 14.4707 11.0421 14.5371C10.8956 14.5984 10.7701 14.6826 10.6655 14.7898C10.5557 14.8971 10.4694 15.0222 10.4066 15.1652C10.3439 15.3082 10.3125 15.4614 10.3125 15.6248V16.0538H11.1127V15.6095C11.1127 15.4818 11.1467 15.3848 11.2147 15.3184C11.2879 15.252 11.3847 15.2188 11.505 15.2188C11.6043 15.2188 11.6801 15.2393 11.7325 15.2801C11.7848 15.3158 11.824 15.3618 11.8502 15.418C11.8763 15.4742 11.8893 15.5406 11.8893 15.6172C11.8946 15.6887 11.8972 15.7576 11.8972 15.824C11.8972 15.9721 11.892 16.0972 11.8815 16.1994C11.8711 16.2964 11.8293 16.4112 11.756 16.5441L10.3125 19.2022ZM14.6279 19.1255V19.9375H15.4281V19.1255H15.8125V18.3901H15.4281V16.8352H14.6279V18.3901H13.8355L15.0358 14.4835H14.1886L13.0353 18.3901V19.1255H14.6279Z" fill="currentColor"/>
</svg>
