<svg width="22" height="16" viewBox="0 0 22 16" fill="currentColor" xmlns="http://www.w3.org/2000/svg">
<path fill-rule="evenodd" clip-rule="evenodd" d="M21.3122 6.375H20.0145H19.2304V5.88969H18.1367V4.17658H19.2304V2.47186C19.2304 2.07008 19.0714 1.91388 18.6724 1.91388H18.2818C17.9665 1.91388 17.7796 2.08961 17.7572 2.40489C17.7554 2.43645 17.756 2.4667 17.7566 2.49743C17.7569 2.5129 17.7572 2.52851 17.7572 2.54439V6.375H15.6731V2.16496C15.6731 1.01264 16.3873 0.248179 17.5396 0.203533C18.2036 0.178425 18.8705 0.184007 19.5345 0.211906C20.5584 0.253761 21.3062 1.04055 21.309 2.06451C21.313 3.64824 21.3127 4.62442 21.3122 6.15301L21.3122 6.375ZM5.12373 3.64652H2.79122C2.79122 3.25602 2.79122 2.88752 2.78843 2.51654C2.78843 2.09243 2.95863 1.9222 3.37993 1.9222H5.9775V0.200742C5.94123 0.195166 5.91333 0.192374 5.88543 0.192374C5.5488 0.192374 5.21244 0.191316 4.87618 0.190257C4.11991 0.187885 3.36416 0.185507 2.60708 0.195166C1.44919 0.209115 0.6875 0.995931 0.6875 2.151V8.81934H2.79401V5.37634H5.12373V3.64652ZM9.68832 8.82209H11.7948V5.38191H14.1134V3.63531H11.7837V2.50816C11.7837 2.10356 11.9622 1.9222 12.3696 1.9222H14.9811V0.192374H14.8416C14.4862 0.192374 14.1311 0.192065 13.7762 0.191756C13.0666 0.191137 12.3574 0.190518 11.6469 0.192374C11.5186 0.192374 11.3875 0.200748 11.2591 0.223071C10.3077 0.393262 9.68832 1.12986 9.68832 2.09799V8.82209ZM8.81499 8.81652H6.73639V0.200748H8.81499V8.81652ZM13.0625 8.4375C13.0625 7.67809 13.6781 7.0625 14.4375 7.0625H19.9375C20.6969 7.0625 21.3125 7.67809 21.3125 8.4375V13.9375C21.3125 14.6969 20.6969 15.3125 19.9375 15.3125H14.4375C13.6781 15.3125 13.0625 14.6969 13.0625 13.9375V8.4375ZM14.4375 13.9375V13.2022L15.881 10.5441C15.9543 10.4112 15.9961 10.2964 16.0065 10.1994C16.017 10.0972 16.0222 9.97207 16.0222 9.82398C16.0222 9.75757 16.0196 9.68868 16.0143 9.61718C16.0143 9.54059 16.0013 9.47418 15.9752 9.41801C15.949 9.36184 15.9098 9.31585 15.8575 9.2801C15.8051 9.23926 15.7293 9.21884 15.63 9.21884C15.5097 9.21884 15.4129 9.25205 15.3397 9.31839C15.2717 9.38481 15.2377 9.48181 15.2377 9.60948V10.0538H14.4375V9.62481C14.4375 9.46139 14.4689 9.30822 14.5316 9.16522C14.5944 9.02222 14.6807 8.89709 14.7905 8.78984C14.8951 8.68259 15.0206 8.59838 15.1671 8.53705C15.3135 8.47071 15.4705 8.4375 15.6378 8.4375C15.847 8.4375 16.0249 8.47579 16.1713 8.55238C16.323 8.62388 16.4485 8.7235 16.5478 8.85117C16.642 8.97884 16.71 9.12438 16.7518 9.2878C16.7989 9.45122 16.8224 9.62481 16.8224 9.80865C16.8224 9.94147 16.8198 10.0538 16.8146 10.1457C16.8094 10.2326 16.7989 10.3168 16.7832 10.3985C16.7675 10.4802 16.7414 10.5619 16.7047 10.6436C16.6682 10.7254 16.6185 10.8249 16.5557 10.9424L15.3789 13.1562H16.8224V13.9375H14.4375ZM18.7529 13.9375V13.1255H17.1603V12.3901L18.3136 8.48349H19.1608L17.9605 12.3901H18.7529V10.8352H19.5531V12.3901H19.9375V13.1255H19.5531V13.9375H18.7529Z" fill="currentColor"/>
</svg>
