<svg width="18" height="18" viewBox="0 0 18 18" fill="currentColor" xmlns="http://www.w3.org/2000/svg">
<path fill-rule="evenodd" clip-rule="evenodd" d="M5.59 12.6983C6.503 13.1472 7.5073 13.3952 8.54797 13.4179L10.288 11.425C10.308 10.2488 10.0365 9.08711 9.49816 8.04706L6.05716 7.24584C5.33906 7.96524 4.78215 8.83163 4.42866 9.78643L5.59 12.6983ZM5.40877 13.2653L4.24565 14.2347C5.50138 15.3759 7.16946 16.0714 9 16.0714C9.35131 16.0714 9.69664 16.0458 10.0342 15.9963L8.54343 14.0073C7.44323 13.9844 6.37952 13.7288 5.40877 13.2653ZM1.94233 9.44474H3.92829C4.32513 8.43316 4.93412 7.51782 5.71128 6.75916V4.61516C5.02137 4.44837 4.31029 4.38725 3.60105 4.43288C2.55771 5.66501 1.92857 7.25904 1.92857 9C1.92857 9.14939 1.9332 9.29769 1.94233 9.44474ZM13.7517 11.302C14.3659 10.6764 14.8592 9.94284 15.205 9.13867L14.266 5.93512C13.4699 5.52971 12.6022 5.27856 11.7 5.19799L10.1033 7.93898C10.5812 8.91915 10.8442 9.99254 10.8752 11.0852L13.7517 11.302ZM14.0935 11.7937V13.9052C15.2121 12.7439 15.9373 11.2012 16.0546 9.49122L15.7197 9.43264C15.3316 10.3139 14.7795 11.1151 14.0935 11.7937ZM14.499 4.55372C13.4595 3.26975 11.9795 2.35709 10.2889 2.04575C10.0506 2.32424 9.83524 2.61987 9.64426 2.93023L11.575 4.59725C12.5295 4.66036 13.4515 4.89934 14.3035 5.29774L14.499 4.55372ZM9.05809 2.76165C9.22241 2.48139 9.40459 2.21168 9.60397 1.954C9.40487 1.93716 9.20343 1.92857 9 1.92857C7.13522 1.92857 5.43902 2.65039 4.17554 3.82988C4.73004 3.83851 5.28221 3.90732 5.82265 4.03587C5.84534 4.01782 5.87098 4.00294 5.89896 3.99204L9.05809 2.76165ZM9 17.25C4.44365 17.25 0.75 13.5563 0.75 9C0.75 4.44365 4.44365 0.75 9 0.75C13.5563 0.75 17.25 4.44365 17.25 9C17.25 13.5563 13.5563 17.25 9 17.25Z" fill="currentColor"/>
</svg>
