<svg width="12" height="12" viewBox="0 0 12 12" fill="currentColor" xmlns="http://www.w3.org/2000/svg">
<path fill-rule="evenodd" clip-rule="evenodd" d="M3.52 8.68965C4.184 9.01615 4.9144 9.1965 5.67125 9.21305L6.9367 7.7636C6.9513 6.90825 6.7538 6.06335 6.3623 5.30695L3.85975 4.72425C3.3375 5.24745 2.93247 5.87755 2.67539 6.57195L3.52 8.68965ZM3.3882 9.102L2.54229 9.80705C3.45555 10.637 4.6687 11.1428 6 11.1428C6.2555 11.1428 6.50665 11.1243 6.75215 11.0883L5.66795 9.64165C4.8678 9.625 4.0942 9.43915 3.3882 9.102ZM0.86715 6.32345H2.31148C2.60009 5.58775 3.043 4.92205 3.6082 4.3703V2.81103C3.10645 2.68973 2.5893 2.64527 2.07349 2.67846C1.3147 3.57455 0.857145 4.73385 0.857145 6C0.857145 6.10865 0.86051 6.2165 0.86715 6.32345ZM9.4558 7.67415C9.90245 7.2192 10.2613 6.6857 10.5127 6.10085L9.82985 3.771C9.2508 3.47615 8.61975 3.2935 7.9636 3.2349L6.8024 5.22835C7.15 5.9412 7.34125 6.72185 7.36375 7.5165L9.4558 7.67415ZM9.7044 8.0318V9.5674C10.5179 8.72285 11.0453 7.60085 11.1306 6.35725L10.887 6.31465C10.6048 6.95555 10.2032 7.53825 9.7044 8.0318ZM9.99925 2.76634C9.2433 1.83254 8.1669 1.16879 6.93735 0.942365C6.76405 1.1449 6.60745 1.3599 6.46855 1.58562L7.8727 2.798C8.5669 2.84389 9.23745 3.0177 9.8571 3.30745L9.99925 2.76634ZM6.04225 1.46302C6.16175 1.25919 6.29425 1.06304 6.43925 0.87564C6.29445 0.86339 6.14795 0.857145 6 0.857145C4.6438 0.857145 3.4102 1.3821 2.4913 2.23991C2.89457 2.24619 3.29615 2.29623 3.6892 2.38973C3.7057 2.3766 3.72435 2.36577 3.7447 2.35784L6.04225 1.46302ZM6 12C2.68629 12 0 9.3137 0 6C0 2.68629 2.68629 0 6 0C9.3137 0 12 2.68629 12 6C12 9.3137 9.3137 12 6 12Z" fill="currentColor"/>
</svg>
