<svg width="22" height="22" viewBox="0 0 22 22" fill="currentColor" xmlns="http://www.w3.org/2000/svg">
<g id="Frame">
<path id="Vector" fill-rule="evenodd" clip-rule="evenodd" d="M18.3335 5.50001C18.3335 4.99375 17.9231 4.58334 17.4168 4.58334H16.5002C15.9939 4.58334 15.5835 4.99375 15.5835 5.50001V16.5C15.5835 17.0063 15.9939 17.4167 16.5002 17.4167H17.4168C17.9231 17.4167 18.3335 17.0063 18.3335 16.5V5.50001Z" fill="currentColor"/>
<path id="Vector_2" fill-rule="evenodd" clip-rule="evenodd" d="M3.66667 10.5417C3.66667 10.0354 4.07706 9.625 4.58333 9.625H10.0833C10.5896 9.625 11 10.0354 11 10.5417V11.4583C11 11.9646 10.5896 12.375 10.0833 12.375H4.58333C4.07706 12.375 3.66667 11.9646 3.66667 11.4583V10.5417Z" fill="currentColor"/>
<path id="Vector_3" d="M9.03237 6.28241C8.74362 5.99368 8.24991 6.19817 8.24991 6.6065V15.3935C8.24991 15.8018 8.74362 16.0063 9.03237 15.7175L13.4258 11.3241C13.6048 11.1451 13.6048 10.8549 13.4258 10.6759L9.03237 6.28241Z" fill="currentColor"/>
</g>
</svg>
