<svg width="15" height="14" viewBox="0 0 15 14" fill="currentColor" xmlns="http://www.w3.org/2000/svg">
<g id="Frame">
<g id="fist-small">
<path id="Combined-Shape" fill-rule="evenodd" clip-rule="evenodd" d="M4.65646 2.7326C5.74524 3.23083 6.83722 3.72216 7.93069 4.21006C8.05314 4.26469 8.09949 4.32546 8.06873 4.46142C8.01379 4.70405 7.97231 4.94986 7.93122 5.19537C7.92067 5.25832 7.79735 5.53587 7.56127 6.02803L7.4999 6.15554L6.01977 5.96888L5.1469 5.6422L4.47578 6.15554L4.65933 6.24079L7.19339 6.63178C8.19495 7.37116 8.80123 7.76548 9.01224 7.81473C9.14961 7.84681 9.21614 7.71935 9.32041 7.81473C9.7002 8.16206 10.0649 8.52583 10.4521 8.8997C11.0227 8.39369 11.587 7.89343 12.1513 7.39314C12.1616 7.39905 12.172 7.40496 12.1824 7.41087C12.1221 7.70703 12.0623 8.00329 12.0015 8.29935C11.917 8.71043 11.7513 9.22657 11.5042 9.84778L11.4077 10.0857L10.4521 10.7043L11.0964 13.3H4.6913L5.31352 10.7043C3.80406 9.03776 2.68446 7.68478 1.95473 6.64541C1.87496 6.53177 1.88698 6.4692 1.96019 6.36214C2.76673 5.18292 3.56869 4.00055 4.36488 2.81439C4.45101 2.68604 4.51726 2.6689 4.65646 2.7326ZM11.9326 4.8591L13.0999 6.27511C12.2186 7.06309 11.3415 7.60925 10.4521 8.40447C10.1033 8.09526 9.89383 7.99943 9.53812 7.68411C10.0904 7.02042 10.8885 6.07875 11.9326 4.8591ZM10.0823 3.45783C10.767 3.92934 11.3004 4.29518 11.6825 4.55534C11.6439 4.60771 11.6141 4.65171 11.5806 4.69276C10.8489 5.5895 10.1151 6.48458 9.38697 7.38421C9.30613 7.4841 9.24364 7.50383 9.12578 7.44548C8.66948 7.21962 8.29063 6.7435 7.81283 6.51582C8.31907 5.75784 9.07558 4.73851 10.0823 3.45783ZM8.23094 1.79315C9.03349 2.27567 9.65063 2.65036 10.0823 2.91722C10.0411 2.98105 9.31911 4.0006 9.01224 4.47452C8.87587 4.68516 8.61543 5.0163 8.23094 5.46795L8.41952 4.39938L8.23094 4.05127C7.75212 3.84064 7.40627 3.67576 7.19339 3.55663C7.15861 3.53719 7.10786 3.53719 7.04115 3.55663L8.23094 1.79315ZM6.35346 0.700012C6.69374 0.897561 7.1802 1.19519 7.81283 1.59291L6.81611 3.41574C6.28376 3.18742 5.8342 2.9946 5.46742 2.83729L5.04146 2.65459L4.91975 2.60239C5.40358 1.96039 5.87502 1.33483 6.35346 0.700012Z" fill="currentColor"/>
</g>
</g>
</svg>
