<svg width="48" height="20" viewBox="0 0 48 20" fill="currentColor" xmlns="http://www.w3.org/2000/svg">
<g id="Frame" clip-path="url(#clip0_1_2979)">
<path id="Vector" d="M8.77487 2.5785C8.21237 3.25404 7.31237 3.78687 6.41237 3.71075C6.29987 2.79734 6.7405 1.82683 7.25612 1.2274C7.81862 0.532826 8.803 0.038059 9.59987 0C9.69362 0.951475 9.328 1.88392 8.77487 2.5785ZM9.5905 3.89153C8.28737 3.81541 7.17175 4.6432 6.553 4.6432C5.92487 4.6432 4.978 3.92959 3.94675 3.94862C2.60612 3.96765 1.35925 4.73834 0.674872 5.96575C-0.731378 8.42055 0.309247 12.0552 1.66862 14.0533C2.33425 15.0428 3.13112 16.1275 4.18112 16.0894C5.17487 16.0514 5.56862 15.4329 6.76862 15.4329C7.978 15.4329 8.32487 16.0894 9.37487 16.0704C10.4624 16.0514 11.1467 15.0809 11.8124 14.0913C12.5717 12.9686 12.8811 11.8744 12.8999 11.8173C12.8811 11.7983 10.7999 10.9895 10.7811 8.55376C10.7624 6.5176 12.4217 5.5471 12.4967 5.49001C11.5592 4.08183 10.0967 3.92959 9.5905 3.89153ZM17.1186 1.13225V15.9657H19.3874V10.8944H22.528C25.3967 10.8944 27.4124 8.89629 27.4124 6.00381C27.4124 3.11132 25.4342 1.13225 22.603 1.13225H17.1186ZM19.3874 3.07326H22.003C23.9717 3.07326 25.0967 4.13892 25.0967 6.01332C25.0967 7.88773 23.9717 8.96289 21.9936 8.96289H19.3874V3.07326ZM31.5561 16.0799C32.9811 16.0799 34.303 15.3473 34.903 14.1865H34.9499V15.9657H37.0499V8.5823C37.0499 6.44148 35.3624 5.06185 32.7655 5.06185C30.3561 5.06185 28.5749 6.46051 28.5092 8.38249H30.553C30.7217 7.46908 31.5561 6.86965 32.6999 6.86965C34.0874 6.86965 34.8655 7.52617 34.8655 8.73454V9.55281L32.0342 9.72407C29.3999 9.88582 27.9749 10.98 27.9749 12.883C27.9749 14.8049 29.4467 16.0799 31.5561 16.0799ZM32.1655 14.3197C30.9561 14.3197 30.1874 13.7298 30.1874 12.8259C30.1874 11.8934 30.928 11.3511 32.3436 11.2655L34.8655 11.1037V11.941C34.8655 13.3302 33.703 14.3197 32.1655 14.3197ZM39.853 20C42.0655 20 43.1061 19.1437 44.0155 16.5461L47.9999 5.20457H45.6936L43.0217 13.9677H42.9749L40.303 5.20457H37.9311L41.7749 16.0038L41.5686 16.6603C41.2217 17.7736 40.6592 18.2017 39.6561 18.2017C39.478 18.2017 39.1311 18.1827 38.9905 18.1637V19.9429C39.1217 19.981 39.6842 20 39.853 20Z" fill="#B1B6C6"/>
</g>
<defs>
<clipPath id="clip0_1_2979">
<rect width="48" height="20" fill="white"/>
</clipPath>
</defs>
</svg>
