<svg width="17" height="17" viewBox="0 0 17 17" fill="currentColor" xmlns="http://www.w3.org/2000/svg">
<g id="Frame" clip-path="url(#clip0_1_3084)">
<path id="Vector" fill-rule="evenodd" clip-rule="evenodd" d="M7.45079 16.4999C7.80064 16.4944 8.15036 16.4922 8.49998 16.4913C8.8496 16.4922 9.19936 16.4944 9.54918 16.4999C9.68443 16.5019 9.79502 16.4738 9.90071 16.3965C10.0648 16.277 10.2303 16.1594 10.396 16.0417C10.8102 15.7476 11.2244 15.4534 11.6143 15.1296C11.8734 14.9151 12.0896 14.8996 12.383 14.9847C12.8336 15.1156 13.286 15.2398 13.7384 15.3639C14.2843 15.5138 14.8302 15.6637 15.3731 15.8254C15.6597 15.9104 15.7845 15.8989 15.8732 15.5683C16.0816 14.7929 16.3117 14.0233 16.5418 13.2536C16.6209 12.9893 16.6999 12.725 16.7781 12.4606C16.8485 12.2219 16.8247 11.9957 16.7475 11.7589C16.6224 11.3758 16.5019 10.9909 16.3815 10.6061C16.1984 10.0214 16.0153 9.43668 15.8159 8.85796C15.7103 8.55065 15.7341 8.35159 15.9398 8.09163C15.9794 8.04158 16.0419 7.99379 16.1068 7.94398C16.3104 7.78803 16.5397 7.61237 16.178 7.28569C16.1712 7.28087 16.2475 7.14557 16.3075 7.10692C16.6409 6.89046 16.6114 6.68655 16.2456 6.47299C16.3463 6.38816 16.4362 6.31207 16.5302 6.23231L16.5356 6.22771C16.5963 6.17625 16.659 6.12318 16.7275 6.06519C16.358 5.84872 16.4342 5.53852 16.5199 5.20706C16.5897 4.9384 16.6396 4.66489 16.6895 4.39135C16.7674 3.96335 16.8454 3.53527 17 3.12553V2.93226C16.7656 2.47551 16.6177 1.9873 16.4699 1.49908C16.3978 1.26114 16.3258 1.02319 16.2437 0.788877C16.1598 0.550187 16.098 0.427461 15.7903 0.545357C14.9262 0.876976 14.0574 1.19634 13.1885 1.51575L13.1871 1.51625C12.4942 1.77096 11.8012 2.02571 11.1104 2.28673C10.8094 2.40076 10.5151 2.46358 10.196 2.45681C10.0581 2.45416 9.91969 2.44904 9.78123 2.44391C9.36494 2.4285 8.94764 2.41305 8.53951 2.46455L8.51807 2.4672L8.49989 2.46936C8.48677 2.4678 8.4736 2.46619 8.46049 2.46455C8.05236 2.41305 7.63506 2.4285 7.21875 2.44391C7.08028 2.44904 6.94191 2.45416 6.80401 2.45681C6.4849 2.46358 6.19058 2.40076 5.88956 2.28673C5.19883 2.02571 4.50582 1.77096 3.8129 1.51625L3.81151 1.51575C2.9426 1.19634 2.07382 0.876976 1.20975 0.545357C0.902076 0.427461 0.84017 0.550187 0.756311 0.788877C0.674243 1.02314 0.602221 1.26103 0.530199 1.49891C0.382341 1.98713 0.234414 2.47551 0 2.93226V3.12553C0.154602 3.53527 0.232601 3.96335 0.310552 4.39135C0.360411 4.66489 0.410271 4.9384 0.480084 5.20706C0.565803 5.53852 0.642034 5.84872 0.27246 6.06519C0.341063 6.12318 0.403667 6.17625 0.464363 6.22771L0.469805 6.23231C0.563849 6.31207 0.653592 6.38816 0.754404 6.47299C0.388644 6.68655 0.359109 6.89046 0.692499 7.10692C0.752497 7.14557 0.828728 7.28087 0.822077 7.28569C0.460364 7.61237 0.689662 7.78803 0.893192 7.94398C0.958167 7.99379 1.02054 8.04158 1.06021 8.09163C1.26593 8.35159 1.28974 8.55065 1.18402 8.85796C0.984678 9.43668 0.801612 10.0214 0.618546 10.6061C0.498083 10.9909 0.377574 11.3758 0.252414 11.7589C0.175299 11.9957 0.151485 12.2219 0.221949 12.4606C0.300087 12.725 0.379109 12.9893 0.458131 13.2536C0.688312 14.0233 0.918401 14.7929 1.12686 15.5683C1.21546 15.8989 1.34025 15.9104 1.62695 15.8254C2.16973 15.6637 2.71567 15.5138 3.26166 15.3639C3.71402 15.2398 4.16639 15.1156 4.61698 14.9847C4.91037 14.8996 5.1266 14.9151 5.38567 15.1296C5.77556 15.4534 6.18978 15.7476 6.60401 16.0417C6.76964 16.1594 6.93526 16.277 7.0993 16.3965C7.20502 16.4738 7.31553 16.5019 7.45079 16.4999ZM9.23871 13.5024C9.5149 13.4996 9.68159 13.6008 9.71692 13.8994C9.76697 14.3252 9.89306 15.0593 9.89306 15.0593H7.10694C7.10694 15.0593 7.23305 14.3252 7.28311 13.8994C7.31837 13.6008 7.48506 13.4996 7.76129 13.5024H9.23871ZM0.605849 3.04629C0.653476 2.90217 0.703893 2.75409 0.755335 2.60291C0.879843 2.23709 1.01049 1.85315 1.12305 1.4634C1.20309 1.18702 1.31453 1.17446 1.56597 1.25273C2.19287 1.44898 2.69595 1.83803 3.20013 2.22794C3.29421 2.30072 3.3885 2.37364 3.48347 2.44521C4.61889 3.3014 5.75813 4.15276 6.90117 5.00026C7.15167 5.1858 7.29744 5.30757 6.94401 5.57525C6.5881 5.84477 6.25365 6.14398 5.91924 6.44318C5.74523 6.59882 5.57124 6.75447 5.39427 6.90592C5.08372 7.17166 4.77414 7.42485 4.35597 7.52921C3.87713 7.64835 3.40412 7.79014 2.9311 7.93192C2.71344 7.99718 2.49577 8.06242 2.27754 8.12546C1.89745 8.23562 1.41072 7.86937 1.365 7.478C1.28211 6.77063 1.18877 6.06326 1.06779 5.36168C0.976678 4.83455 0.867891 4.31025 0.75473 3.76507L0.754172 3.76238C0.705474 3.52786 0.655988 3.28947 0.606779 3.04532L0.605849 3.04629ZM7.06023 11.0816L4.53936 10.609L6.52206 9.20095L7.06023 11.0816ZM16.248 2.61256L16.2446 2.60291C16.1202 2.23709 15.9895 1.85315 15.877 1.4634C15.7969 1.18702 15.6854 1.17446 15.434 1.25273C14.8071 1.449 14.304 1.83812 13.7997 2.22807C13.7057 2.30084 13.6115 2.37364 13.5165 2.44521C12.3811 3.3014 11.2419 4.15276 10.0988 5.00026C9.84829 5.1858 9.70256 5.30757 10.056 5.57525C10.4119 5.84477 10.7464 6.14398 11.0808 6.44318C11.2548 6.59882 11.4287 6.75447 11.6057 6.90592C11.9162 7.17166 12.2258 7.42485 12.644 7.52921C13.1229 7.64835 13.5958 7.79014 14.0689 7.93192C14.2866 7.99718 14.5042 8.06242 14.7225 8.12546C15.1025 8.23562 15.5893 7.86937 15.635 7.478C15.7179 6.77063 15.8112 6.06326 15.9322 5.36168C16.0233 4.83455 16.1321 4.31025 16.2453 3.76507L16.2459 3.76238C16.2945 3.52786 16.344 3.28947 16.3932 3.04532L16.3941 3.04629C16.3476 2.90524 16.2983 2.7604 16.248 2.61256ZM9.93981 11.0816L12.4606 10.609L10.478 9.20095L9.93981 11.0816Z" fill="currentColor"/>
</g>
<defs>
<clipPath id="clip0_1_3084">
<rect width="17" height="16" fill="currentColor" transform="translate(0 0.5)"/>
</clipPath>
</defs>
</svg>
