<svg width="6" height="10" viewBox="0 0 6 10" fill="currentColor" xmlns="http://www.w3.org/2000/svg">
<g id="Frame" clip-path="url(#clip0_1_3199)">
<g id="arrow">
<path id="Arrow-left-1" d="M-1.23978e-05 8.95276C-0.00235271 8.6779 0.104857 8.41243 0.299988 8.2099L3.48899 4.9999L0.299988 1.7899C-0.105155 1.37119 -0.105155 0.726472 0.299988 0.307762C0.488927 0.111424 0.755724 -0.000366211 1.03536 -0.000366211C1.315 -0.000366211 1.5818 0.111424 1.77074 0.307762L5.69474 4.25919C6.10175 4.67638 6.10175 5.322 5.69474 5.73919L1.77449 9.69205C1.58555 9.88838 1.31875 10.0002 1.03911 10.0002C0.759474 10.0002 0.492677 9.88838 0.303738 9.69205C0.108847 9.49081 0.00159883 9.22652 0.00373745 8.95276" fill="currentColor"/>
</g>
</g>
<defs>
<clipPath id="clip0_1_3199">
<rect width="6" height="10" fill="currentColor" transform="matrix(-1 0 0 1 6 0)"/>
</clipPath>
</defs>
</svg>
