<svg width="12" height="13" viewBox="0 0 12 13" fill="currentColor" xmlns="http://www.w3.org/2000/svg">
<g id="Frame" clip-path="url(#clip0_1_3724)">
<path id="Vector" fill-rule="evenodd" clip-rule="evenodd" d="M5.94651 5.60258C6.19732 5.54516 6.46666 5.60496 6.66622 5.78325L6.72984 5.84687C6.76301 5.884 6.79208 5.92354 6.81706 5.96493C8.46024 5.66004 9.76296 5.72804 10.7193 6.18084C10.9754 6.04051 11.2032 5.87061 11.4026 5.67113C12.9382 4.13562 11.1536 2.35104 10.0758 2.4242C10.149 1.34643 8.3644 -0.438148 6.82889 1.09737C5.91782 2.00844 5.62369 3.51017 5.94651 5.60258ZM6.91656 6.22406C6.96559 6.47607 6.89452 6.74979 6.70465 6.9543L6.64508 7.01261C6.54295 7.10346 6.42454 7.16553 6.30069 7.19867C6.55134 8.71139 6.49658 9.94697 6.12728 10.9007C6.26987 11.2016 6.45284 11.4637 6.67619 11.6871C8.16806 13.1789 10.0048 11.3421 9.96274 10.266C11.0389 10.3081 12.8756 8.47133 11.3838 6.97947C10.5006 6.09633 9.01156 5.84452 6.91656 6.22406ZM5.50049 5.868C5.32212 6.06853 5.25469 6.33179 5.29938 6.57576C3.19428 6.96031 1.69881 6.70967 0.812977 5.82383C-0.678888 4.33197 1.15791 2.49518 2.23402 2.53728C2.19191 1.46117 4.02871 -0.375624 5.52057 1.11624C5.71439 1.31006 5.8778 1.53306 6.0108 1.78524C5.5286 2.75842 5.42394 4.06935 5.68477 5.71149C5.64063 5.73934 5.59842 5.77166 5.5588 5.80844L5.50049 5.868ZM6.02573 7.22495C5.85104 7.21236 5.68106 7.14395 5.54467 7.0193L5.49376 6.96839C5.45583 6.92689 5.42311 6.88228 5.39559 6.83538C3.80633 7.1322 2.53468 7.08117 1.58602 6.67155C1.20245 6.83423 0.872896 7.05333 0.597369 7.32886C-0.938148 8.86437 0.846428 10.6489 1.9242 10.5758C1.85104 11.6536 3.63562 13.4381 5.17113 11.9026C6.10704 10.9667 6.3919 9.40749 6.02573 7.22495Z" fill="currentColor"/>
</g>
<defs>
<clipPath id="clip0_1_3724">
<rect width="12" height="12" fill="currentColor" transform="translate(0 0.5)"/>
</clipPath>
</defs>
</svg>
