<svg width="33" height="22" viewBox="0 0 33 22" fill="currentColor" xmlns="http://www.w3.org/2000/svg">
<g id="Frame">
<g id="Group">
<path id="Vector" fill-rule="evenodd" clip-rule="evenodd" d="M12.0928 3.76044H20.7578V17.8211H12.0928V3.76044Z" fill="#FF5F00"/>
<path id="Vector_2" fill-rule="evenodd" clip-rule="evenodd" d="M12.985 10.792C12.9828 8.0487 14.2504 5.45672 16.4225 3.76294C12.7325 0.881769 7.43339 1.30144 4.24935 4.72701C1.06532 8.15259 1.06532 13.434 4.24935 16.8596C7.43339 20.2851 12.7325 20.7048 16.4225 17.8236C14.2497 16.1293 12.9821 13.5362 12.985 10.792Z" fill="#EB001B"/>
<g id="Group_2">
<path id="Vector_3" d="M30.1424 16.6908V16.1065H30.2799V15.9856H29.9526V16.1065H30.0819V16.6908H30.1424ZM30.7776 16.6908V15.9856H30.6786L30.5631 16.4893L30.4476 15.9856H30.3486V16.6908H30.4201V16.1569L30.5274 16.6152H30.6016L30.7089 16.1569V16.6908H30.7776Z" fill="#F79E1B"/>
<path id="Vector_4" fill-rule="evenodd" clip-rule="evenodd" d="M30.9854 10.792C30.9854 14.2155 29.0177 17.3384 25.9183 18.8345C22.8189 20.3305 19.1317 19.937 16.4229 17.8211C18.594 16.1259 19.8617 13.5343 19.8617 10.7908C19.8617 8.04729 18.594 5.45565 16.4229 3.76043C19.1317 1.64452 22.8189 1.25103 25.9183 2.74707C29.0177 4.24312 30.9854 7.36604 30.9854 10.7895V10.792Z" fill="#F79E1B"/>
</g>
</g>
</g>
</svg>
