<svg width="19" height="19" viewBox="0 0 19 19" fill="currentColor" xmlns="http://www.w3.org/2000/svg">
<g id="Frame">
<path id="Vector" d="M14.7318 7.78456C14.7229 7.43566 14.7111 7.31504 14.6973 6.82893L14.9224 4.43791C14.8833 4.30065 14.7514 3.99343 14.6332 3.72869C14.5079 3.44837 14.2281 3.27124 13.921 3.27125L5.06183 3.27155C4.75211 3.27157 4.47018 3.45179 4.34687 3.7359C4.23199 4.00061 4.107 4.30195 4.08095 4.41713C4.06621 4.48205 4.30297 6.83409 4.30297 6.83409C4.29936 7.00479 4.29538 7.16659 4.29093 7.32225C4.26683 8.16557 4.2291 8.82875 4.16286 9.75151C4.15873 9.8097 4.17574 9.83598 4.22742 9.86068C5.96149 10.6888 7.69505 11.5185 9.42796 12.349C9.47823 12.3731 9.51892 12.3753 9.57062 12.3506C11.2987 11.5232 13.0274 10.6969 14.7571 9.87256C14.8207 9.84216 14.8418 9.80954 14.8362 9.73829C14.7885 9.1337 14.7639 8.52752 14.7318 7.78456ZM4.04283 11.2721C4.03683 11.2992 4.0303 11.3211 4.02756 11.3434C3.99132 11.624 3.96093 11.9054 3.91886 12.1849C3.84572 12.6705 3.76278 13.1547 3.59897 13.6202C3.57939 13.6759 3.60206 13.6954 3.64069 13.7212C3.99476 13.9571 4.35517 14.1829 4.72142 14.3996C6.22026 15.2858 7.77593 16.0513 9.42669 16.6146C9.47854 16.6323 9.52201 16.6333 9.57354 16.6155C11.6024 15.9157 13.4921 14.9367 15.2875 13.7687C15.4179 13.684 15.4168 13.6827 15.3699 13.5321C15.182 12.9265 15.0945 12.3017 15.011 11.6758C14.9933 11.5436 14.9784 11.4108 14.9614 11.2719C14.9157 11.2936 14.8795 11.3102 14.8437 11.3276C13.0846 12.1825 11.3255 13.0371 9.56697 13.8933C9.51789 13.9171 9.47926 13.9149 9.43136 13.8917C8.00359 13.1963 6.57535 12.5022 5.14708 11.808C4.78049 11.6298 4.4139 11.4521 4.04283 11.2721Z" fill="currentColor"/>
<path id="Vector_2" d="M15.4893 6.32973C15.7321 6.38629 16.3844 7.13222 16.6319 7.33577C16.7815 7.45871 16.946 7.49648 17.1261 7.41303C17.4474 7.26451 17.741 7.07425 17.9965 6.82751C18.1375 6.69135 18.2082 6.52582 18.2081 6.32973C18.2078 5.87488 18.2072 5.41985 18.2084 4.965C18.2089 4.76805 18.1367 4.60459 17.9954 4.46859C17.7583 4.24056 17.4854 4.06611 17.1948 3.91501C16.9819 3.80426 16.7934 3.82331 16.6096 3.97871C16.5011 4.07061 15.8408 4.73937 15.7763 4.7501C15.7763 4.7501 15.5233 5.96815 15.4893 6.32973Z" fill="currentColor"/>
<path id="Vector_3" d="M3.20225 4.7501C3.07464 4.71962 2.51281 4.08042 2.35934 3.95537C2.21494 3.83758 2.05336 3.80324 1.88011 3.88256C1.55833 4.02989 1.26453 4.21997 1.00817 4.46585C0.86428 4.60374 0.791651 4.77081 0.791993 4.97034C0.792682 5.42244 0.792682 5.87455 0.791993 6.32648C0.791651 6.52926 0.865832 6.69788 1.01298 6.83748C1.25148 7.06379 1.52467 7.23807 1.81589 7.38764C2.0228 7.49392 2.20927 7.47435 2.38596 7.32239C2.67835 7.07074 3.19023 6.41776 3.51167 6.33343C3.47023 5.88227 3.20225 4.7501 3.20225 4.7501Z" fill="currentColor"/>
<path id="Vector_4" d="M2.375 4.7501H16.625V6.33343H2.375V4.7501Z" fill="currentColor"/>
</g>
</svg>
