<svg width="18" height="18" viewBox="0 0 18 18" fill="currentColor" xmlns="http://www.w3.org/2000/svg">
<g id="Frame">
<g id="Group">
<g id="Group_2">
<g id="Group_3">
<path id="Vector" d="M11.8127 4.72324H6.22447C3.48532 7.46422 0.078738 11.7721 1.82939 14.9148C3.21281 17.3985 6.3404 18.0407 9.3748 17.998C12.4092 17.9554 15.3503 17.2272 16.3602 14.9148C17.6516 11.9584 14.3576 7.53199 11.8127 4.72324ZM9.45422 14.8481V15.9732H8.4654V14.925C7.78937 14.8923 7.13366 14.6934 6.7501 14.4508L7.05266 13.1607C7.47658 13.4142 8.07189 13.6457 8.72774 13.6457C9.30273 13.6457 9.69638 13.4034 9.69638 12.9619C9.69638 12.5433 9.3735 12.2783 8.62684 12.0024C7.54707 11.6054 6.81078 11.0538 6.81078 9.98411C6.81078 9.01342 7.43622 8.25243 8.51599 8.02083V6.97324H9.50467V7.94362C10.1807 7.97686 10.635 8.13142 10.9679 8.30788L10.6752 9.55399C10.4129 9.43252 9.94863 9.17901 9.22229 9.17901C8.56644 9.17901 8.35441 9.48766 8.35441 9.79677C8.35441 10.1607 8.70756 10.3923 9.56521 10.7451C10.7659 11.2085 11.2501 11.8151 11.2501 12.8077C11.2502 13.7894 10.6147 14.6277 9.45422 14.8481Z" fill="#FFFFC1"/>
<path id="Vector_2" d="M13.4646 0.471942C12.6978 0.00294496 11.7542 1.69419 11.0807 1.66803C10.4069 1.64188 9.87539 -0.0268949 9.10616 0.000329505C8.33693 0.0275539 8.0326 1.5463 7.41536 1.6886C6.79811 1.8309 5.25952 -0.103575 4.64228 0.575846C4.14226 1.1264 5.67224 3.32646 6.27111 4.14212H6.81825H11.2759H11.7884C12.416 3.27808 14.0927 0.856056 13.4646 0.471942Z" fill="#FFFFC1"/>
</g>
</g>
</g>
</g>
</svg>
