<svg width="51" height="20" viewBox="0 0 51 20" fill="currentColor" xmlns="http://www.w3.org/2000/svg">
<g id="Frame" clip-path="url(#clip0_1_2981)">
<g id="Group">
<path id="Vector" d="M24.1212 9.7707V15.6333H22.2378V1.15521H27.2329C27.8291 1.14291 28.4219 1.24734 28.9771 1.46246C29.5322 1.67759 30.0387 1.99915 30.4674 2.4086C30.9003 2.79319 31.2449 3.26485 31.478 3.79188C31.711 4.3189 31.8271 4.88909 31.8185 5.46411C31.8309 6.04221 31.7166 6.61611 31.4834 7.1465C31.2501 7.67688 30.9036 8.1512 30.4674 8.53695C29.5939 9.35945 28.5157 9.77032 27.2329 9.76954H24.1212V9.7707ZM24.1212 2.93768V7.99169H27.2797C27.6259 8.00183 27.9705 7.94048 28.2914 7.81158C28.6123 7.68268 28.9024 7.48907 29.1432 7.24312C29.3827 7.01316 29.5731 6.73811 29.7031 6.43423C29.8331 6.13035 29.9001 5.80382 29.9001 5.47393C29.9001 5.14404 29.8331 4.8175 29.7031 4.51362C29.5731 4.20975 29.3827 3.9347 29.1432 3.70474C28.9054 3.45361 28.6163 3.25524 28.295 3.1228C27.9738 2.99036 27.6277 2.92687 27.2797 2.93653H24.1212V2.93768Z" fill="white"/>
<path id="Vector_2" d="M36.1583 5.40405C37.5504 5.40405 38.6492 5.77141 39.4548 6.50611C40.2604 7.24082 40.6628 8.24816 40.662 9.52812V15.6334H38.8605V14.2587H38.7787C37.9988 15.3908 36.9616 15.9568 35.667 15.9568C34.5619 15.9568 33.6374 15.6334 32.8934 14.9864C32.5363 14.6895 32.2509 14.3177 32.0578 13.898C31.8647 13.4783 31.7689 13.0214 31.7774 12.5605C31.7774 11.5355 32.1696 10.7203 32.9542 10.115C33.7387 9.50964 34.7861 9.20621 36.0963 9.20466C37.2146 9.20466 38.1357 9.40683 38.8594 9.81115V9.38603C38.8615 9.07184 38.7928 8.76111 38.6582 8.47639C38.5237 8.19166 38.3267 7.94007 38.0815 7.73987C37.5834 7.29613 36.9343 7.05401 36.2636 7.06177C35.2115 7.06177 34.379 7.49997 33.766 8.37639L32.1073 7.34479C33.0197 6.05097 34.37 5.40405 36.1583 5.40405ZM33.7216 12.601C33.7203 12.8377 33.7764 13.0712 33.885 13.2822C33.9937 13.4932 34.1518 13.6755 34.3463 13.8139C34.7628 14.1375 35.2798 14.3089 35.8097 14.2991C36.6044 14.2978 37.3663 13.9854 37.9282 13.4304C38.5521 12.8505 38.8641 12.1701 38.8641 11.3891C38.2768 10.9271 37.4579 10.696 36.4075 10.696C35.6424 10.696 35.0045 10.8782 34.4937 11.2424C33.9778 11.6121 33.7216 12.0615 33.7216 12.601Z" fill="white"/>
<path id="Vector_3" d="M51.0033 5.72751L44.7145 20H42.7702L45.104 15.0061L40.9688 5.72751H43.0159L46.0048 12.8435H46.0457L48.9527 5.72751H51.0033Z" fill="white"/>
</g>
<path id="Vector_4" d="M16.5104 8.50689C16.5111 7.94009 16.4626 7.37428 16.3653 6.81567H8.42236V10.019H12.9717C12.8786 10.5307 12.6816 11.0184 12.3925 11.4528C12.1034 11.8872 11.7282 12.2593 11.2896 12.5466V14.626H14.0047C15.5944 13.1785 16.5104 11.0379 16.5104 8.50689Z" fill="#4285F4"/>
<path id="Vector_5" d="M8.42282 16.6349C10.6958 16.6349 12.6096 15.8979 14.0051 14.6271L11.29 12.5478C10.5343 13.0538 9.56104 13.3426 8.42282 13.3426C6.22592 13.3426 4.36125 11.8801 3.69447 9.9093H0.897461V12.0522C1.59849 13.4298 2.67343 14.5878 4.00229 15.397C5.33115 16.2062 6.86161 16.6348 8.42282 16.6349Z" fill="#34A853"/>
<path id="Vector_6" d="M3.69435 9.90931C3.34184 8.87661 3.34184 7.75827 3.69435 6.72557V4.58267H0.897345C0.307618 5.74152 0.000488281 7.02049 0.000488281 8.31744C0.000488281 9.61438 0.307618 10.8934 0.897345 12.0522L3.69435 9.90931Z" fill="#FBBC04"/>
<path id="Vector_7" d="M8.42282 3.29232C9.62396 3.27294 10.7846 3.7211 11.6538 4.53994L14.0578 2.166C12.5334 0.75212 10.514 -0.0241231 8.42282 -3.61394e-06C6.86161 6.66514e-05 5.33115 0.428639 4.00229 1.23787C2.67343 2.04709 1.59849 3.20513 0.897461 4.58268L3.69447 6.72558C4.36125 4.75481 6.22592 3.29232 8.42282 3.29232Z" fill="#EA4335"/>
</g>
<defs>
<clipPath id="clip0_1_2981">
<rect width="51" height="20" fill="white"/>
</clipPath>
</defs>
</svg>
