<svg width="15" height="16" viewBox="0 0 15 16" fill="currentColor" xmlns="http://www.w3.org/2000/svg">
<g id="Frame" clip-path="url(#clip0_1_2953)">
<g id="Symbols">
<g id="Icons-/-20x">
<path id="Combined-Shape" fill-rule="evenodd" clip-rule="evenodd" d="M10.9947 13.7073C11.0878 13.7073 11.1633 13.7832 11.1635 13.8768V15.4088C11.1635 15.5025 11.088 15.5783 10.9949 15.5783H4.24747C4.15419 15.5783 4.07867 15.5025 4.07867 15.4088V13.8768C4.07867 13.7832 4.15419 13.7073 4.24747 13.7073H10.9947ZM12.0601 0C12.1513 0 12.2259 0.0726978 12.2287 0.164435C12.2335 0.325582 12.2366 0.518231 12.2371 0.731651C13.0907 0.517712 13.7638 0.591275 14.243 0.955283C14.7425 1.33452 14.9578 1.99157 14.8492 2.80544C14.6156 4.55365 12.9363 6.93416 10.4856 8.08434C10.0718 8.668 9.56005 9.15923 8.93333 9.50714V9.61463C9.16747 9.72125 9.33212 9.95717 9.33212 10.231V10.2504C9.33212 10.5422 9.14505 10.7897 8.88626 10.8848V11.1778C9.16954 11.7358 9.62316 12.4469 10.2726 12.9445C10.3301 12.9887 10.3533 13.0647 10.3301 13.1334C10.3068 13.2021 10.2426 13.2485 10.1704 13.2485H5.07178C4.99936 13.2485 4.93505 13.2023 4.91195 13.1334C4.88885 13.0645 4.91195 12.9887 4.96936 12.9445C5.61954 12.4462 6.07316 11.7362 6.35592 11.1788V10.8848C6.09712 10.7897 5.91005 10.5422 5.91005 10.2504V10.231C5.91005 9.957 6.07471 9.7209 6.30902 9.61445V9.50714C5.68247 9.15923 5.17109 8.66817 4.7573 8.08468C2.30626 6.93485 0.626433 4.554 0.392813 2.80544C0.28402 1.99157 0.499364 1.33435 0.998847 0.954937C1.47833 0.590929 2.15126 0.517539 3.00505 0.731305C3.0054 0.518058 3.0085 0.325409 3.01333 0.164262C3.01609 0.0726979 3.09074 0 3.18195 0H12.0601ZM3.03126 1.83095C2.38161 1.62376 1.87609 1.60541 1.62988 1.79235C1.37936 1.98275 1.39678 2.42136 1.42936 2.6661C1.57609 3.76453 2.48178 5.22541 3.84161 6.29251C3.29609 4.79875 3.0954 3.13206 3.03126 1.83095ZM13.612 1.79252C13.3657 1.60541 12.8606 1.62376 12.2109 1.83077C12.1471 3.13172 11.9464 4.79805 11.4013 6.29165C12.7607 5.22472 13.6657 3.76419 13.8126 2.66593C13.8454 2.42136 13.8626 1.98275 13.612 1.79252Z" fill="currentColor"/>
</g>
</g>
</g>
<defs>
<clipPath id="clip0_1_2953">
<rect width="15" height="16" fill="currentColor"/>
</clipPath>
</defs>
</svg>
