<svg width="20" height="19" viewBox="0 0 20 19" fill="currentColor" xmlns="http://www.w3.org/2000/svg">
<g id="Frame" clip-path="url(#clip0_1_2050)">
<path id="Vector" fill-rule="evenodd" clip-rule="evenodd" d="M11.1441 1.63547C10.7793 0.995046 9.85176 0.995045 9.48694 1.63547L0.917168 16.6797C0.557413 17.3112 1.01604 18.0941 1.74577 18.0941H18.8853C19.615 18.0941 20.0737 17.3112 19.714 16.6797L11.1441 1.63547ZM11.004 12.0203C11.2162 12.0203 11.2816 11.9228 11.2979 11.7117L11.4448 7.05606C11.4448 6.82869 11.3795 6.73124 11.1509 6.73124H9.49649C9.26792 6.73124 9.18629 6.82869 9.18629 7.05606L9.34955 11.7117C9.36589 11.9228 9.43119 12.0203 9.64348 12.0203H11.004ZM11.1509 15.4741C11.3632 15.4741 11.4448 15.3929 11.4448 15.1656V13.4278C11.4448 13.2166 11.3632 13.1193 11.1509 13.1193H9.49649C9.26792 13.1193 9.18629 13.2166 9.18629 13.4278V15.1656C9.18629 15.3929 9.26792 15.4741 9.49649 15.4741H11.1509Z" fill="#FFE81A"/>
</g>
<defs>
<clipPath id="clip0_1_2050">
<rect width="20" height="18" fill="currentColor" transform="translate(0 0.5)"/>
</clipPath>
</defs>
</svg>
