<svg width="19" height="19" viewBox="0 0 19 19" fill="currentColor" xmlns="http://www.w3.org/2000/svg">
<g id="Frame">
<g id="search">
<g id="Search">
<path id="Vector" fill-rule="evenodd" clip-rule="evenodd" d="M12.2461 3.6875C10.04 1.46597 6.51713 1.29399 4.10753 3.29017C1.69792 5.28635 1.19018 8.79739 2.93454 11.4015C4.67889 14.0055 8.10444 14.8504 10.8483 13.3532L14.4791 16.8231C14.8729 17.199 15.4925 17.1912 15.8769 16.8057L16.8087 15.8683C17.197 15.4754 17.197 14.8408 16.8087 14.4479L13.2855 10.8972C14.5634 8.5274 14.1405 5.59449 12.2461 3.6875ZM10.4465 10.4929C9.4424 11.5035 7.932 11.806 6.6197 11.2594C5.3074 10.7128 4.45171 9.42474 4.45171 7.99594C4.45171 6.56714 5.3074 5.27906 6.6197 4.73245C7.932 4.18584 9.4424 4.48837 10.4465 5.49893C11.8133 6.87969 11.8133 9.11219 10.4465 10.4929Z" fill="currentColor"/>
</g>
</g>
</g>
</svg>
