<svg width="16" height="16" viewBox="0 0 16 16" fill="currentColor" xmlns="http://www.w3.org/2000/svg">
<g id="Frame" clip-path="url(#clip0_1_1184)">
<g id="flower">
<path id="Shape" d="M8.88827 7.04433C8.62219 6.80661 8.26307 6.72688 7.92866 6.80343C7.49823 4.01356 7.8904 2.01125 9.10516 0.796491C11.1525 -1.25086 13.5319 1.12857 13.4344 2.5656C14.8714 2.46805 17.2509 4.84749 15.2035 6.89484C14.9375 7.16081 14.6338 7.38735 14.2923 7.57445C13.0173 6.97072 11.2803 6.88005 9.08939 7.28658C9.05608 7.23139 9.01732 7.17866 8.97309 7.12915L8.88827 7.04433ZM8.9395 8.60573C9.19267 8.33304 9.28743 7.96808 9.22205 7.63207C12.0154 7.12602 14.0008 7.46176 15.1784 8.63928C17.1675 10.6284 14.7185 13.0775 13.2836 13.0214C13.3398 14.4562 10.8907 16.9052 8.90156 14.9161C8.60376 14.6183 8.3598 14.2688 8.16968 13.8676C8.66209 12.5959 8.7351 10.9485 8.40089 8.93155C8.56602 8.88737 8.72391 8.80461 8.86009 8.68347L8.9395 8.60573ZM7.33394 7.15733C7.09612 7.4247 7.00621 7.77571 7.06579 8.101C4.259 8.61374 2.26504 8.27955 1.08392 7.09844C-0.905227 5.10928 1.54383 2.66023 2.97864 2.71636C2.92251 1.28155 5.37156 -1.16751 7.36072 0.821645C7.61914 1.08007 7.83702 1.3774 8.01435 1.71365C7.37142 3.01122 7.23188 4.75913 7.57965 6.94865C7.52079 6.98578 7.46451 7.02888 7.41169 7.07792L7.33394 7.15733ZM7.39289 8.69241C7.57474 8.85861 7.80138 8.94983 8.0343 8.96661C8.52254 11.8767 8.14272 13.9556 6.89484 15.2035C4.84749 17.2509 2.46805 14.8714 2.5656 13.4344C1.12857 13.5319 -1.25086 11.1525 0.796491 9.10516C1.16386 8.73779 1.60326 8.44565 2.11469 8.22875C3.37958 8.77491 5.07511 8.84295 7.19412 8.44719C7.23082 8.50973 7.27444 8.5692 7.32501 8.62453L7.39289 8.69241Z" fill="currentColor"/>
</g>
</g>
<defs>
<clipPath id="clip0_1_1184">
<rect width="16" height="16" fill="currentColor"/>
</clipPath>
</defs>
</svg>
