<svg width="47" height="16" viewBox="0 0 47 16" fill="currentColor" xmlns="http://www.w3.org/2000/svg">
<g id="Frame" clip-path="url(#clip0_1_2963)">
<g id="Group">
<g id="Group_2">
<path id="Vector" fill-rule="evenodd" clip-rule="evenodd" d="M20.3707 14.7726H16.5801L18.951 0.927734H22.7414L20.3707 14.7726Z" fill="#1767EE"/>
<path id="Vector_2" fill-rule="evenodd" clip-rule="evenodd" d="M34.112 1.26619C33.3643 0.986058 32.1785 0.676758 30.7121 0.676758C26.9688 0.676758 24.3327 2.56192 24.3166 5.25714C24.2855 7.24566 26.2039 8.35014 27.6387 9.01317C29.1053 9.6907 29.6038 10.1329 29.6038 10.7368C29.5888 11.6643 28.4187 12.0919 27.3274 12.0919C25.814 12.0919 25.0031 11.8715 23.7708 11.3554L23.2717 11.1342L22.7412 14.2421C23.6303 14.6246 25.2682 14.9641 26.9688 14.9789C30.9461 14.9789 33.5355 13.1229 33.5662 10.2508C33.5814 8.6747 32.5684 7.46706 30.3844 6.48024C29.0586 5.84676 28.2467 5.41962 28.2467 4.77146C28.2622 4.18222 28.9334 3.5787 30.43 3.5787C31.6623 3.54914 32.5677 3.82888 33.2536 4.10881L33.5965 4.25583L34.112 1.26619Z" fill="#1767EE"/>
<path id="Vector_3" d="M39.1508 9.86787C39.463 9.0725 40.6642 5.99418 40.6642 5.99418C40.6485 6.02374 40.9758 5.18413 41.1629 4.6687L41.4278 5.86165C41.4278 5.86165 42.1457 9.17567 42.3016 9.86787C41.7091 9.86787 39.8995 9.86787 39.1508 9.86787ZM43.8299 0.927734H40.8978C39.9936 0.927734 39.3067 1.17791 38.9166 2.07645L33.2861 14.7724H37.2635C37.2635 14.7724 37.9183 13.0636 38.0591 12.6956H42.9259C43.0347 13.1817 43.3782 14.7724 43.3782 14.7724H46.8879L43.8299 0.927734Z" fill="#1767EE"/>
<path id="Vector_4" fill-rule="evenodd" clip-rule="evenodd" d="M13.4143 0.927734L9.70209 10.3686L9.29644 8.4539C8.61012 6.24456 6.45768 3.84416 4.05566 2.65061L7.45596 14.7579H11.4644L17.4226 0.927734H13.4143Z" fill="#1767EE"/>
</g>
<path id="Vector_5" fill-rule="evenodd" clip-rule="evenodd" d="M6.25486 0.927734H0.156143L0.09375 1.20747C4.85113 2.35639 8.00186 5.12579 9.29635 8.45449L7.97056 2.09152C7.75229 1.20728 7.08151 0.956903 6.25486 0.927734Z" fill="#EC982D"/>
</g>
</g>
<defs>
<clipPath id="clip0_1_2963">
<rect width="47" height="15" fill="white" transform="translate(0 0.5)"/>
</clipPath>
</defs>
</svg>
