<svg width="15" height="15" viewBox="0 0 15 15" fill="currentColor" xmlns="http://www.w3.org/2000/svg">
<g id="Frame" clip-path="url(#clip0_1_2907)">
<g id="Group">
<g id="Group_2">
<path id="Vector" d="M3.50516 3.04144L9.48495 1.40921L9.16828 0.76912C8.96109 0.353062 8.45575 0.181248 8.0397 0.388435L2.68652 3.04144H3.50516Z" fill="currentColor"/>
<path id="Vector_2" d="M11.3413 1.45638C11.2672 1.45638 11.1931 1.46648 11.1189 1.4867L9.71413 1.87075L5.42383 3.04144H10.2936H12.416L12.1532 2.07794C12.0521 1.7023 11.7119 1.45638 11.3413 1.45638Z" fill="currentColor"/>
<path id="Vector_3" d="M13.2937 3.631H13.1016H12.8405H12.5794H10.5867H3.26446H2.30432H1.49579H1.34587H0.843908C0.577765 3.631 0.340258 3.75396 0.185289 3.94767C0.114542 4.03695 0.0606401 4.1397 0.03032 4.25256C0.0117911 4.3233 0 4.39742 0 4.47322V4.57429V5.53442V13.8573C0 14.3222 0.377316 14.6995 0.842224 14.6995H13.292C13.7569 14.6995 14.1342 14.3222 14.1342 13.8573V11.5075H9.13644C8.34644 11.5075 7.70466 10.8657 7.70466 10.0757V9.30421V9.04312V8.78204V8.20259C7.70466 7.81516 7.85961 7.46313 8.11061 7.20541C8.33296 6.97631 8.63111 6.82134 8.96463 6.7826C9.02021 6.77588 9.07749 6.77249 9.13476 6.77249H13.4335H13.6946H13.9556H14.1342V4.47322C14.1359 4.00831 13.7586 3.631 13.2937 3.631Z" fill="currentColor"/>
<path id="Vector_4" d="M14.7252 7.57766C14.6409 7.50017 14.5416 7.44122 14.4304 7.40247C14.3445 7.37385 14.2535 7.35701 14.1575 7.35701H14.1356H14.1188H13.8577H12.9161H9.13617C8.67125 7.35701 8.29395 7.73431 8.29395 8.19923V8.61864V8.87973V9.14082V10.074C8.29395 10.5389 8.67125 10.9162 9.13617 10.9162H14.1356H14.1575C14.2535 10.9162 14.3445 10.8994 14.4304 10.8707C14.5416 10.8337 14.6409 10.7731 14.7252 10.6956C14.8936 10.5423 14.9997 10.3199 14.9997 10.074V8.19923C14.9997 7.95329 14.8936 7.73092 14.7252 7.57766ZM10.8947 9.30421C10.8947 9.53667 10.7061 9.72533 10.4736 9.72533H10.194C9.96155 9.72533 9.77289 9.53667 9.77289 9.30421V9.0246C9.77289 8.88984 9.83521 8.77023 9.9346 8.69443C10.007 8.63884 10.0963 8.60348 10.194 8.60348H10.2647H10.4736C10.7061 8.60348 10.8947 8.79213 10.8947 9.0246V9.30421Z" fill="currentColor"/>
</g>
</g>
</g>
<defs>
<clipPath id="clip0_1_2907">
<rect width="15" height="15" fill="currentColor"/>
</clipPath>
</defs>
</svg>
