<svg width="12" height="12" viewBox="0 0 12 12" fill="currentColor" xmlns="http://www.w3.org/2000/svg">
<g id="Frame" clip-path="url(#clip0_1_3415)">
<path id="Vector" d="M11.1111 2.92398H9.47368C9.76608 2.63158 9.94152 2.22222 9.94152 1.75439C9.94152 0.760234 9.18129 0 8.18713 0C7.60234 0 6.54971 0.526316 5.84795 1.22807C5.1462 0.526316 4.09357 0 3.50877 0C2.51462 0 1.75439 0.760234 1.75439 1.75439C1.75439 2.22222 1.92982 2.63158 2.22222 2.92398H0.584795C0.233918 2.92398 0 3.15789 0 3.50877V5.1462C0 5.20468 0.0584795 5.26316 0.116959 5.26316H5.02924C5.1462 5.26316 5.26316 5.1462 5.26316 5.02924V3.15789C5.26316 3.04094 5.38012 2.92398 5.49708 2.92398H6.19883C6.31579 2.92398 6.43275 3.04094 6.43275 3.15789V5.02924C6.43275 5.1462 6.54971 5.26316 6.66667 5.26316H11.5789C11.6374 5.26316 11.6959 5.20468 11.6959 5.1462V3.50877C11.6959 3.15789 11.462 2.92398 11.1111 2.92398ZM3.50877 2.33918C3.15789 2.33918 2.92398 2.10526 2.92398 1.75439C2.92398 1.40351 3.15789 1.16959 3.50877 1.16959C3.85965 1.16959 4.91228 1.87135 5.20468 2.22222C5.02924 2.2807 3.50877 2.33918 3.50877 2.33918ZM8.18713 2.33918C8.18713 2.33918 6.66667 2.2807 6.49123 2.22222C6.84211 1.81287 7.83626 1.16959 8.18713 1.16959C8.53801 1.16959 8.77193 1.40351 8.77193 1.75439C8.77193 2.10526 8.53801 2.33918 8.18713 2.33918Z" fill="currentColor"/>
<path id="Vector_2" d="M5.02941 6.43274H0.70192C0.64344 6.43274 0.584961 6.49122 0.584961 6.5497V11.1111C0.584961 11.462 0.818879 11.6959 1.16976 11.6959H5.02941C5.14636 11.6959 5.26332 11.5789 5.26332 11.462V6.66666C5.26332 6.5497 5.14636 6.43274 5.02941 6.43274Z" fill="currentColor"/>
<path id="Vector_3" d="M10.994 6.43274H6.66654C6.54958 6.43274 6.43262 6.5497 6.43262 6.66666V11.462C6.43262 11.5789 6.54958 11.6959 6.66654 11.6959H10.5262C10.8771 11.6959 11.111 11.462 11.111 11.1111V6.5497C11.111 6.49122 11.0525 6.43274 10.994 6.43274Z" fill="currentColor"/>
</g>
<defs>
<clipPath id="clip0_1_3415">
<rect width="12" height="12" fill="currentColor"/>
</clipPath>
</defs>
</svg>
