<svg width="17" height="17" viewBox="0 0 17 17" fill="currentColor" xmlns="http://www.w3.org/2000/svg">
<g id="Frame" clip-path="url(#clip0_1_2871)">
<path id="Vector" d="M2.71273 6.92971C3.50148 6.57712 4.46335 6.25727 5.42152 6.02909L5.45854 6.0202C7.31423 5.56472 10.6875 5.39812 11.5662 5.38834C11.4638 4.92361 11.3514 4.51691 11.2853 4.28891C11.18 4.30796 11.0589 4.31721 10.9167 4.31721C10.3846 4.31721 9.74165 4.1791 9.55725 4.13673C9.09217 4.06305 8.14618 3.66702 7.38616 3.34896C7.02811 3.1991 6.68997 3.0576 6.57855 3.02805C6.07223 2.8748 5.537 2.79738 4.98607 2.79738C3.83644 2.79738 2.88938 3.12648 2.45517 3.30748C1.2798 4.67389 0.560339 6.4422 0.53125 8.37905C1.00725 7.85132 1.73605 7.36613 2.71273 6.92971Z" fill="currentColor"/>
<path id="Vector_2" d="M12.0332 4.26489C12.1254 4.56889 12.2201 4.91668 12.3364 5.37642C14.3981 5.40311 15.5042 5.74628 16.0823 6.04832C15.696 4.85331 15.0359 3.78183 14.1747 2.9081C14.1209 3.20301 13.9978 3.45611 13.8026 3.66169C13.3402 4.14919 12.5931 4.26025 12.0332 4.26489Z" fill="currentColor"/>
<path id="Vector_3" d="M6.69284 11.2377C7.09303 10.7968 8.69098 9.12714 8.98822 8.82705C9.77855 7.99515 10.7595 7.49571 11.8266 7.38127C11.7917 6.67608 11.7225 6.24073 11.6963 6.09424C8.07834 6.15315 5.2153 7.02209 5.18674 7.03099C2.45363 7.76287 1.19699 9.12074 0.662109 9.94624C0.956171 11.5494 1.72869 12.9848 2.82825 14.0981C4.032 13.6028 6.33673 11.6153 6.69284 11.2377Z" fill="currentColor"/>
<path id="Vector_4" d="M7.33638 2.31593C9.1436 3.28845 10.3941 3.54547 10.8028 3.54547C10.9341 3.54529 10.9938 3.52784 11.0176 3.51787C11.0149 3.50364 11.0085 3.47747 10.9932 3.4303C10.9855 3.40716 10.9786 3.38509 10.9732 3.36498C10.1851 1.26331 8.85306 0.656553 8.50964 0.531606C8.50576 0.531606 8.50188 0.53125 8.498 0.53125C6.86567 0.53125 5.34865 1.02267 4.08496 1.86437C4.34024 1.82824 4.60485 1.80919 4.87777 1.80919C5.99125 1.80955 6.95806 2.11231 7.33638 2.31593Z" fill="currentColor"/>
<path id="Vector_5" d="M11.2726 12.8416C11.8387 11.0416 11.8966 8.96534 11.8362 8.58285C11.8058 8.39009 11.7181 8.37407 11.6233 8.37407C11.4452 8.37407 11.2025 8.47819 11.0418 8.54708C10.9617 8.58161 10.8982 8.60866 10.8451 8.62379C9.61387 9.14689 8.06916 10.8872 7.23934 11.822C7.05352 12.0313 6.90755 12.1956 6.80072 12.3068C5.34962 13.8507 4.40556 14.5918 3.7998 14.9356C5.11744 15.8988 6.74095 16.4687 8.49826 16.4687C8.50091 16.4687 8.50338 16.4685 8.50602 16.4685C9.67557 15.9097 10.5842 14.7175 11.2726 12.8416Z" fill="currentColor"/>
<path id="Vector_6" d="M12.4727 6.1067C12.5122 6.39433 12.5352 6.8215 12.5555 7.2371L12.5619 7.36418C14.2425 7.39746 14.9015 8.62486 15.1193 9.03067L15.139 9.06699C15.6408 9.99216 15.5854 11.4337 15.483 12.3398C16.1109 11.2009 16.4689 9.8923 16.4689 8.49992C16.4689 8.07719 16.4355 7.66249 16.3719 7.25774C15.2527 6.21883 13.4182 6.10403 12.6682 6.10403C12.594 6.10403 12.5283 6.1051 12.4727 6.1067Z" fill="currentColor"/>
<path id="Vector_7" d="M14.3545 9.37649C13.9192 8.61488 13.5376 8.38083 13.0256 8.23364C12.9674 8.2169 12.9145 8.20836 12.868 8.20836C12.6236 8.20836 12.6065 8.48495 12.6058 8.4967C12.4829 11.9032 12.2284 12.7821 12.0425 13.4239L12.0102 13.5358C11.7497 14.4527 11.3206 15.3645 10.7959 16.1305C12.3278 15.67 13.6657 14.7622 14.6566 13.5576C15.166 11.5781 14.7159 10.0089 14.3545 9.37649Z" fill="currentColor"/>
<path id="Vector_8" d="M11.9862 3.52179C12.0024 3.52321 12.0181 3.52464 12.0334 3.52623C12.6016 3.4812 13.0159 3.3098 13.2554 3.01702C13.5143 2.70037 13.478 2.33247 13.4774 2.32874C13.4755 2.31254 13.476 2.29616 13.4782 2.28032C12.5408 1.52904 11.4305 0.985822 10.2158 0.718842C10.9973 1.54577 11.5169 2.87035 11.6399 3.20479C11.7702 3.50292 11.8702 3.51164 11.9862 3.52179Z" fill="currentColor"/>
</g>
<defs>
<clipPath id="clip0_1_2871">
<rect width="17" height="17" fill="currentColor"/>
</clipPath>
</defs>
</svg>
