<svg width="20" height="20" viewBox="0 0 20 20" fill="currentColor" xmlns="http://www.w3.org/2000/svg">
<g id="Frame">
<path id="Vector" d="M9.16699 5.83325C9.16699 4.45254 10.2862 3.33325 11.6669 3.33325H15.8336C17.2143 3.33325 18.3336 4.45254 18.3336 5.83325V14.1666C18.3336 15.5473 17.2143 16.6666 15.8336 16.6666H11.6669C10.2862 16.6666 9.16699 15.5473 9.16699 14.1666V5.83325Z" fill="currentColor"/>
<path id="Vector_2" d="M5.83301 6.66667C5.83301 5.74619 6.5792 5 7.49968 5V15C6.5792 15 5.83301 14.2538 5.83301 13.3333V6.66667Z" fill="currentColor"/>
<path id="Vector_3" d="M2.5 8.33341C2.5 7.41294 3.24619 6.66675 4.16667 6.66675V13.3334C3.24619 13.3334 2.5 12.5872 2.5 11.6667V8.33341Z" fill="currentColor"/>
</g>
</svg>
