<svg width="13" height="13" viewBox="0 0 13 13" fill="currentColor" xmlns="http://www.w3.org/2000/svg">
<g id="Frame" clip-path="url(#clip0_1_3024)">
<g id="Group">
<path id="Vector" d="M6.5 8.667C5.303 8.667 4.333 7.697 4.333 6.5C4.333 5.303 5.303 4.334 6.5 4.334C7.697 4.334 8.667 5.303 8.667 6.5C8.667 7.697 7.697 8.667 6.5 8.667ZM12.35 5.41L11.346 5.205C11.25 5.186 11.175 5.114 11.146 5.021C11.063 4.759 10.957 4.505 10.829 4.262C10.783 4.175 10.786 4.071 10.84 3.989L11.406 3.134C11.619 2.812 11.576 2.384 11.303 2.111L10.889 1.697C10.616 1.424 10.189 1.381 9.867 1.594L9.011 2.161C8.929 2.214 8.825 2.217 8.738 2.171C8.495 2.043 8.242 1.938 7.979 1.855C7.886 1.825 7.815 1.75 7.796 1.654L7.59 0.651C7.513 0.272 7.181 0 6.794 0H6.206C5.819 0 5.487 0.272 5.41 0.651L5.204 1.654C5.185 1.75 5.114 1.825 5.021 1.855C4.758 1.938 4.505 2.043 4.262 2.171C4.175 2.217 4.071 2.214 3.989 2.161L3.133 1.594C2.811 1.381 2.384 1.424 2.111 1.697L1.697 2.111C1.424 2.384 1.381 2.812 1.594 3.134L2.16 3.989C2.214 4.071 2.217 4.175 2.171 4.262C2.043 4.505 1.937 4.759 1.854 5.021C1.825 5.114 1.75 5.186 1.654 5.205L0.65 5.41C0.272 5.487 0 5.82 0 6.206V6.794C0 7.181 0.272 7.514 0.65 7.591L1.654 7.796C1.75 7.815 1.825 7.886 1.854 7.979C1.937 8.242 2.043 8.496 2.171 8.738C2.217 8.826 2.214 8.929 2.16 9.011L1.594 9.867C1.381 10.189 1.424 10.616 1.697 10.889L2.111 11.303C2.384 11.576 2.811 11.619 3.133 11.406L3.989 10.84C4.071 10.786 4.175 10.784 4.262 10.829C4.505 10.958 4.758 11.063 5.021 11.146C5.114 11.175 5.185 11.25 5.204 11.346L5.41 12.35C5.487 12.729 5.819 13 6.206 13H6.794C7.181 13 7.513 12.729 7.59 12.35L7.796 11.346C7.815 11.25 7.886 11.175 7.979 11.146C8.242 11.063 8.495 10.958 8.738 10.829C8.825 10.784 8.929 10.786 9.011 10.84L9.867 11.406C10.189 11.619 10.616 11.576 10.889 11.303L11.303 10.889C11.576 10.616 11.619 10.189 11.406 9.867L10.84 9.011C10.786 8.929 10.783 8.826 10.829 8.738C10.957 8.496 11.063 8.242 11.146 7.979C11.175 7.886 11.25 7.815 11.346 7.796L12.35 7.591C12.728 7.514 13 7.181 13 6.794V6.206C13 5.82 12.728 5.487 12.35 5.41Z" fill="currentColor"/>
</g>
</g>
<defs>
<clipPath id="clip0_1_3024">
<rect width="13" height="13" fill="currentColor"/>
</clipPath>
</defs>
</svg>
