<svg width="215" height="22" viewBox="0 0 215 22" fill="currentColor" xmlns="http://www.w3.org/2000/svg">
<g clip-path="url(#clip0_1_1931)">
<path fill-rule="evenodd" clip-rule="evenodd" d="M20.3707 17.7726H16.5801L18.951 3.92773H22.7414L20.3707 17.7726Z" fill="#1767EE"/>
<path fill-rule="evenodd" clip-rule="evenodd" d="M34.112 4.26619C33.3643 3.98606 32.1785 3.67676 30.7121 3.67676C26.9688 3.67676 24.3327 5.56192 24.3166 8.25714C24.2855 10.2457 26.2039 11.3501 27.6387 12.0132C29.1053 12.6907 29.6038 13.1329 29.6038 13.7368C29.5888 14.6643 28.4187 15.0919 27.3274 15.0919C25.814 15.0919 25.0031 14.8715 23.7708 14.3554L23.2717 14.1342L22.7412 17.2421C23.6303 17.6246 25.2682 17.9641 26.9688 17.9789C30.9461 17.9789 33.5355 16.1229 33.5662 13.2508C33.5814 11.6747 32.5684 10.4671 30.3844 9.48024C29.0586 8.84676 28.2467 8.41962 28.2467 7.77146C28.2622 7.18222 28.9334 6.5787 30.43 6.5787C31.6623 6.54914 32.5677 6.82888 33.2536 7.10881L33.5965 7.25583L34.112 4.26619Z" fill="#1767EE"/>
<path d="M39.1501 12.8679C39.4623 12.0725 40.6635 8.99418 40.6635 8.99418C40.6477 9.02374 40.975 8.18413 41.1622 7.6687L41.4271 8.86165C41.4271 8.86165 42.1449 12.1757 42.3008 12.8679C41.7084 12.8679 39.8988 12.8679 39.1501 12.8679ZM43.8291 3.92773H40.8971C39.9929 3.92773 39.306 4.17791 38.9159 5.07645L33.2854 17.7724H37.2628C37.2628 17.7724 37.9176 16.0636 38.0583 15.6956H42.9252C43.034 16.1817 43.3775 17.7724 43.3775 17.7724H46.8872L43.8291 3.92773Z" fill="#1767EE"/>
<path fill-rule="evenodd" clip-rule="evenodd" d="M13.4141 3.92773L9.70185 13.3686L9.29619 11.4539C8.60987 9.24456 6.45743 6.84416 4.05542 5.65061L7.45571 17.7579H11.4642L17.4224 3.92773H13.4141Z" fill="#1767EE"/>
<path fill-rule="evenodd" clip-rule="evenodd" d="M6.25462 3.92773H0.155898L0.0935059 4.20747C4.85089 5.35639 8.00161 8.12579 9.2961 11.4545L7.97031 5.09152C7.75204 4.20728 7.08127 3.9569 6.25462 3.92773Z" fill="#EC982D"/>
</g>
<path fill-rule="evenodd" clip-rule="evenodd" d="M71.0925 3.7605H79.7575V17.8212H71.0925V3.7605Z" fill="#FF5F00"/>
<path fill-rule="evenodd" clip-rule="evenodd" d="M71.985 10.7921C71.9828 8.04873 73.2504 5.45676 75.4225 3.76297C71.7325 0.881799 66.4334 1.30147 63.2494 4.72704C60.0653 8.15262 60.0653 13.434 63.2494 16.8596C66.4334 20.2852 71.7325 20.7048 75.4225 17.8237C73.2497 16.1293 71.9821 13.5363 71.985 10.7921Z" fill="#EB001B"/>
<path d="M89.1424 16.6908V16.1065H89.2799V15.9856H88.9526V16.1065H89.0819V16.6908H89.1424ZM89.7776 16.6908V15.9856H89.6786L89.5631 16.4893L89.4476 15.9856H89.3486V16.6908H89.4201V16.1569L89.5274 16.6152H89.6016L89.7089 16.1569V16.6908H89.7776Z" fill="#F79E1B"/>
<path fill-rule="evenodd" clip-rule="evenodd" d="M89.9851 10.792C89.9851 14.2155 88.0175 17.3384 84.918 18.8344C81.8186 20.3305 78.1315 19.937 75.4226 17.8211C77.5938 16.1259 78.8614 13.5342 78.8614 10.7907C78.8614 8.04726 77.5938 5.45562 75.4226 3.7604C78.1315 1.64449 81.8186 1.251 84.918 2.74704C88.0175 4.24308 89.9851 7.36601 89.9851 10.7895V10.792Z" fill="#F79E1B"/>
<g clip-path="url(#clip1_1_1931)">
<path d="M112.775 3.5785C112.213 4.25404 111.313 4.78687 110.413 4.71075C110.3 3.79734 110.741 2.82683 111.256 2.2274C111.819 1.53283 112.803 1.03806 113.6 1C113.694 1.95147 113.328 2.88392 112.775 3.5785ZM113.591 4.89153C112.288 4.81541 111.172 5.6432 110.553 5.6432C109.925 5.6432 108.978 4.92959 107.947 4.94862C106.606 4.96765 105.359 5.73834 104.675 6.96575C103.269 9.42055 104.309 13.0552 105.669 15.0533C106.334 16.0428 107.131 17.1275 108.181 17.0894C109.175 17.0514 109.569 16.4329 110.769 16.4329C111.978 16.4329 112.325 17.0894 113.375 17.0704C114.463 17.0514 115.147 16.0809 115.813 15.0913C116.572 13.9686 116.881 12.8744 116.9 12.8173C116.881 12.7983 114.8 11.9895 114.781 9.55376C114.763 7.5176 116.422 6.5471 116.497 6.49001C115.559 5.08183 114.097 4.92959 113.591 4.89153ZM121.119 2.13225V16.9657H123.388V11.8944H126.528C129.397 11.8944 131.413 9.89629 131.413 7.00381C131.413 4.11132 129.434 2.13225 126.603 2.13225H121.119ZM123.388 4.07326H126.003C127.972 4.07326 129.097 5.13892 129.097 7.01332C129.097 8.88773 127.972 9.96289 125.994 9.96289H123.388V4.07326ZM135.556 17.0799C136.981 17.0799 138.303 16.3473 138.903 15.1865H138.95V16.9657H141.05V9.5823C141.05 7.44148 139.363 6.06185 136.766 6.06185C134.356 6.06185 132.575 7.46051 132.509 9.38249H134.553C134.722 8.46908 135.556 7.86965 136.7 7.86965C138.088 7.86965 138.866 8.52617 138.866 9.73454V10.5528L136.034 10.7241C133.4 10.8858 131.975 11.98 131.975 13.883C131.975 15.8049 133.447 17.0799 135.556 17.0799ZM136.166 15.3197C134.956 15.3197 134.188 14.7298 134.188 13.8259C134.188 12.8934 134.928 12.3511 136.344 12.2655L138.866 12.1037V12.941C138.866 14.3302 137.703 15.3197 136.166 15.3197ZM143.853 21C146.066 21 147.106 20.1437 148.016 17.5461L152 6.20457H149.694L147.022 14.9677H146.975L144.303 6.20457H141.931L145.775 17.0038L145.569 17.6603C145.222 18.7736 144.659 19.2017 143.656 19.2017C143.478 19.2017 143.131 19.1827 142.991 19.1637V20.9429C143.122 20.981 143.684 21 143.853 21Z" fill="currentColor"/>
</g>
<g clip-path="url(#clip2_1_1931)">
<path d="M188.121 10.7706V16.6333H186.238V2.15515H191.233C191.829 2.14285 192.422 2.24727 192.977 2.4624C193.532 2.67753 194.039 2.99909 194.468 3.40854C194.901 3.79313 195.245 4.26479 195.478 4.79182C195.711 5.31884 195.827 5.88903 195.819 6.46405C195.831 7.04214 195.717 7.61605 195.484 8.14644C195.25 8.67682 194.904 9.15114 194.468 9.53688C193.594 10.3594 192.516 10.7703 191.233 10.7695H188.121V10.7706ZM188.121 3.93762V8.99163H191.28C191.626 9.00176 191.971 8.94042 192.292 8.81152C192.613 8.68262 192.903 8.48901 193.143 8.24306C193.383 8.0131 193.573 7.73805 193.703 7.43417C193.833 7.13029 193.9 6.80375 193.9 6.47387C193.9 6.14398 193.833 5.81744 193.703 5.51356C193.573 5.20968 193.383 4.93463 193.143 4.70468C192.906 4.45354 192.617 4.25518 192.295 4.12274C191.974 3.9903 191.628 3.92681 191.28 3.93647H188.121V3.93762Z" fill="currentColor"/>
<path d="M200.159 6.40393C201.551 6.40393 202.65 6.77128 203.455 7.50599C204.261 8.2407 204.663 9.24804 204.663 10.528V16.6332H202.861V15.2585H202.779C201.999 16.3906 200.962 16.9567 199.667 16.9567C198.562 16.9567 197.638 16.6332 196.894 15.9863C196.537 15.6894 196.251 15.3176 196.058 14.8979C195.865 14.4782 195.769 14.0213 195.778 13.5604C195.778 12.5354 196.17 11.7202 196.955 11.1148C197.739 10.5095 198.787 10.2061 200.097 10.2045C201.215 10.2045 202.136 10.4067 202.86 10.811V10.3859C202.862 10.0717 202.793 9.76099 202.659 9.47626C202.524 9.19154 202.327 8.93995 202.082 8.73975C201.584 8.29601 200.935 8.05389 200.264 8.06164C199.212 8.06164 198.38 8.49985 197.767 9.37626L196.108 8.34467C197.02 7.05084 198.371 6.40393 200.159 6.40393ZM197.722 13.6008C197.721 13.8375 197.777 14.0711 197.886 14.2821C197.994 14.4931 198.152 14.6754 198.347 14.8138C198.763 15.1374 199.28 15.3088 199.81 15.299C200.605 15.2977 201.367 14.9853 201.929 14.4303C202.553 13.8504 202.865 13.1699 202.865 12.389C202.277 11.9269 201.458 11.6959 200.408 11.6959C199.643 11.6959 199.005 11.878 198.494 12.2423C197.978 12.612 197.722 13.0614 197.722 13.6008Z" fill="currentColor"/>
<path d="M215.004 6.72742L208.715 20.9999H206.77L209.104 16.006L204.969 6.72742H207.016L210.005 13.8435H210.046L212.953 6.72742H215.004Z" fill="currentColor"/>
<path d="M180.511 9.50689C180.511 8.94009 180.463 8.37428 180.366 7.81567H172.423V11.019H176.972C176.879 11.5307 176.682 12.0184 176.393 12.4528C176.104 12.8872 175.728 13.2593 175.29 13.5466V15.626H178.005C179.595 14.1785 180.511 12.0379 180.511 9.50689Z" fill="#4285F4"/>
<path d="M172.423 17.6349C174.696 17.6349 176.609 16.8979 178.005 15.6271L175.29 13.5478C174.534 14.0538 173.561 14.3426 172.423 14.3426C170.226 14.3426 168.361 12.8801 167.694 10.9093H164.897V13.0522C165.598 14.4298 166.673 15.5878 168.002 16.397C169.331 17.2062 170.861 17.6348 172.423 17.6349Z" fill="#34A853"/>
<path d="M167.694 10.9093C167.342 9.87658 167.342 8.75824 167.694 7.72554V5.58264H164.897C164.308 6.74149 164 8.02046 164 9.31741C164 10.6144 164.308 11.8933 164.897 13.0522L167.694 10.9093Z" fill="#FBBC04"/>
<path d="M172.423 4.29238C173.624 4.273 174.784 4.72116 175.654 5.54L178.058 3.16606C176.533 1.75218 174.514 0.975938 172.423 1.00006C170.861 1.00013 169.331 1.4287 168.002 2.23793C166.673 3.04716 165.598 4.20519 164.897 5.58274L167.694 7.72564C168.361 5.75487 170.226 4.29238 172.423 4.29238Z" fill="#EA4335"/>
</g>
<defs>
<clipPath id="clip0_1_1931">
<rect width="47" height="15" fill="currentColor" transform="translate(0 3.5)"/>
</clipPath>
<clipPath id="clip1_1_1931">
<rect width="48" height="20" fill="currentColor" transform="translate(104 1)"/>
</clipPath>
<clipPath id="clip2_1_1931">
<rect width="51" height="20" fill="currentColor" transform="translate(164 1)"/>
</clipPath>
</defs>
</svg>
