<svg width="17" height="17" viewBox="0 0 17 17" fill="currentColor" xmlns="http://www.w3.org/2000/svg">
<g id="Frame" clip-path="url(#clip0_1_3069)">
<g id="steam">
<g id="steam-1">
<path id="Shape" d="M8.39361 0C3.9689 0 0.344208 3.44287 0 7.81785L4.51438 9.7014C4.90857 9.42854 5.37672 9.28264 5.85613 9.28323C5.90093 9.28323 5.9452 9.28448 5.98882 9.28691L7.99665 6.34997V6.30885C7.99665 4.54164 9.42144 3.10352 11.1729 3.10352C12.9243 3.10352 14.3491 4.54164 14.3491 6.30885C14.3491 8.076 12.9243 9.51471 11.1729 9.51471C11.1486 9.51471 11.1249 9.51412 11.1008 9.51353L8.23721 11.5746C8.23904 11.6129 8.24023 11.651 8.24023 11.6886C8.24023 13.0158 7.17062 14.0952 5.85613 14.0952C4.70224 14.0952 3.73682 13.2637 3.51867 12.1631L0.289686 10.8159C1.28966 14.3836 4.53796 16.9993 8.39361 16.9993C13.0455 16.9993 16.8163 13.1934 16.8163 8.49963C16.8163 3.80533 13.0455 0 8.39361 0ZM5.2782 12.8968L4.24367 12.4653C4.42675 12.8507 4.74429 13.1731 5.16548 13.3501C6.07573 13.7331 7.12536 13.2974 7.50478 12.378C7.68847 11.9359 7.68955 11.4391 7.5078 10.9963C7.32597 10.5502 6.98236 10.2023 6.54179 10.0169C6.10364 9.8333 5.63456 9.83994 5.22243 9.99693L6.29151 10.443C6.96298 10.7254 7.28052 11.5035 7.00055 12.1811C6.72118 12.8586 5.94967 13.1792 5.2782 12.8968ZM13.2894 6.30885C13.2894 5.13139 12.3397 4.17266 11.1731 4.17266C10.0059 4.17266 9.05621 5.13139 9.05621 6.30885C9.05621 7.48639 10.0059 8.44452 11.1731 8.44452C12.3397 8.44452 13.2894 7.48639 13.2894 6.30885ZM9.58651 6.30524C9.58651 5.41923 10.2986 4.70113 11.1762 4.70113C12.0543 4.70113 12.7664 5.41923 12.7664 6.30524C12.7664 7.19125 12.0543 7.90942 11.1761 7.90942C10.2986 7.90942 9.58651 7.19118 9.58651 6.30524Z" fill="currentColor"/>
</g>
</g>
</g>
<defs>
<clipPath id="clip0_1_3069">
<rect width="17" height="17" fill="currentColor"/>
</clipPath>
</defs>
</svg>
