<svg width="15" height="15" viewBox="0 0 15 15" fill="currentColor" xmlns="http://www.w3.org/2000/svg">
<g id="Frame" clip-path="url(#clip0_1_1292)">
<path id="Vector" fill-rule="evenodd" clip-rule="evenodd" d="M2.16835 2.16844C1.47554 2.85464 0.925142 3.67097 0.548759 4.57052C0.172376 5.47007 -0.0225701 6.43512 -0.0248815 7.41024C-0.027193 8.38535 0.163176 9.35132 0.53529 10.2526C0.907404 11.154 1.45393 11.9729 2.14347 12.6624C2.83302 13.3519 3.65199 13.8983 4.55335 14.2703C5.45471 14.6424 6.42069 14.8327 7.39581 14.8303C8.37092 14.8279 9.33596 14.6328 10.2355 14.2564C11.135 13.8799 11.9513 13.3294 12.6374 12.6366C14.0256 11.2482 14.8053 9.36517 14.8052 7.40184C14.805 5.43851 14.0249 3.55566 12.6365 2.1675C11.949 1.48015 11.1329 0.934945 10.2347 0.563003C9.33653 0.19106 8.37389 -0.000331166 7.40175 -0.000244111C5.43842 -6.82956e-05 3.55651 0.78003 2.16835 2.16844ZM7.6996 3.10594C8.32397 3.10594 8.8246 3.62156 8.8246 4.24594C8.8239 4.54557 8.70565 4.83297 8.49527 5.04632C8.2849 5.25968 7.99919 5.38196 7.6996 5.38688C7.07429 5.38688 6.55866 4.87125 6.55866 4.23C6.55866 3.60563 7.07429 3.105 7.69866 3.105L7.6996 3.10594ZM9.30835 10.7466C9.27533 10.845 9.22199 10.9354 9.15179 11.0119C8.74585 11.4338 8.24616 11.6831 7.65179 11.6831C7.37054 11.6831 7.10522 11.6831 6.82397 11.6363C6.37116 11.5744 5.79272 11.0119 5.87054 10.4175L6.05804 9.19875C6.18366 8.49563 6.30835 7.7775 6.43304 7.07438C6.43304 7.0275 6.44897 6.98063 6.44897 6.93375C6.44897 6.63656 6.35522 6.52781 6.05897 6.49594C5.93335 6.48 5.80866 6.465 5.68397 6.43406C5.54335 6.38719 5.4646 6.26156 5.48054 6.15281C5.49554 6.02719 5.57429 5.94938 5.73085 5.91844C5.80866 5.9025 5.90241 5.9025 5.99616 5.9025H8.15241C8.41772 5.9025 8.57429 6.02719 8.57429 6.29344C8.57429 6.51188 8.54241 6.73031 8.49554 6.94969C8.35491 7.76156 8.19929 8.55844 8.05866 9.37125C8.01179 9.63656 7.94897 9.90188 7.91804 10.1681C7.9021 10.2928 7.91804 10.4334 7.94897 10.5581C7.99585 10.7306 8.12147 10.8244 8.29304 10.8084C8.43366 10.7925 8.57429 10.7466 8.71491 10.6838C8.8246 10.6369 8.91741 10.5581 9.0271 10.5272C9.2146 10.4653 9.35522 10.5741 9.30835 10.7466Z" fill="currentColor"/>
</g>
<defs>
<clipPath id="clip0_1_1292">
<rect width="15" height="15" fill="currentColor"/>
</clipPath>
</defs>
</svg>
