<svg width="16" height="16" viewBox="0 0 16 16" fill="currentColor" xmlns="http://www.w3.org/2000/svg">
<g id="Frame" clip-path="url(#clip0_1_75)">
<g id="Group">
<path id="Vector" d="M8 10.6671C6.52677 10.6671 5.33292 9.47323 5.33292 8C5.33292 6.52677 6.52677 5.33415 8 5.33415C9.47323 5.33415 10.6671 6.52677 10.6671 8C10.6671 9.47323 9.47323 10.6671 8 10.6671ZM15.2 6.65846L13.9643 6.40615C13.8462 6.38277 13.7538 6.29415 13.7182 6.17969C13.616 5.85723 13.4855 5.54462 13.328 5.24554C13.2714 5.13846 13.2751 5.01046 13.3415 4.90954L14.0382 3.85723C14.3003 3.46092 14.2474 2.93415 13.9114 2.59815L13.4018 2.08862C13.0658 1.75262 12.5403 1.69969 12.144 1.96185L11.0905 2.65969C10.9895 2.72492 10.8615 2.72862 10.7545 2.672C10.4554 2.51446 10.144 2.38523 9.82031 2.28308C9.70585 2.24615 9.61846 2.15385 9.59508 2.03569L9.34154 0.801231C9.24677 0.334769 8.83815 0 8.36185 0H7.63815C7.16185 0 6.75323 0.334769 6.65846 0.801231L6.40492 2.03569C6.38154 2.15385 6.29415 2.24615 6.17969 2.28308C5.856 2.38523 5.54462 2.51446 5.24554 2.672C5.13846 2.72862 5.01046 2.72492 4.90954 2.65969L3.856 1.96185C3.45969 1.69969 2.93415 1.75262 2.59815 2.08862L2.08862 2.59815C1.75262 2.93415 1.69969 3.46092 1.96185 3.85723L2.65846 4.90954C2.72492 5.01046 2.72862 5.13846 2.672 5.24554C2.51446 5.54462 2.384 5.85723 2.28185 6.17969C2.24615 6.29415 2.15385 6.38277 2.03569 6.40615L0.8 6.65846C0.334769 6.75323 0 7.16308 0 7.63815V8.36185C0 8.83815 0.334769 9.248 0.8 9.34277L2.03569 9.59508C2.15385 9.61846 2.24615 9.70585 2.28185 9.82031C2.384 10.144 2.51446 10.4566 2.672 10.7545C2.72862 10.8628 2.72492 10.9895 2.65846 11.0905L1.96185 12.144C1.69969 12.5403 1.75262 13.0658 2.08862 13.4018L2.59815 13.9114C2.93415 14.2474 3.45969 14.3003 3.856 14.0382L4.90954 13.3415C5.01046 13.2751 5.13846 13.2726 5.24554 13.328C5.54462 13.4868 5.856 13.616 6.17969 13.7182C6.29415 13.7538 6.38154 13.8462 6.40492 13.9643L6.65846 15.2C6.75323 15.6665 7.16185 16 7.63815 16H8.36185C8.83815 16 9.24677 15.6665 9.34154 15.2L9.59508 13.9643C9.61846 13.8462 9.70585 13.7538 9.82031 13.7182C10.144 13.616 10.4554 13.4868 10.7545 13.328C10.8615 13.2726 10.9895 13.2751 11.0905 13.3415L12.144 14.0382C12.5403 14.3003 13.0658 14.2474 13.4018 13.9114L13.9114 13.4018C14.2474 13.0658 14.3003 12.5403 14.0382 12.144L13.3415 11.0905C13.2751 10.9895 13.2714 10.8628 13.328 10.7545C13.4855 10.4566 13.616 10.144 13.7182 9.82031C13.7538 9.70585 13.8462 9.61846 13.9643 9.59508L15.2 9.34277C15.6652 9.248 16 8.83815 16 8.36185V7.63815C16 7.16308 15.6652 6.75323 15.2 6.65846Z" fill="#FFFFC1"/>
</g>
</g>
<defs>
<clipPath id="clip0_1_75">
<rect width="16" height="16" fill="currentColor"/>
</clipPath>
</defs>
</svg>
