<svg width="110" height="63" viewBox="0 0 110 63" fill="currentColor" xmlns="http://www.w3.org/2000/svg">
<path fill-rule="evenodd" clip-rule="evenodd" d="M15.0925 4.26044H23.7575V18.3211H15.0925V4.26044Z" fill="#FF5F00"/>
<path fill-rule="evenodd" clip-rule="evenodd" d="M15.985 11.292C15.9828 8.54867 17.2504 5.95669 19.4225 4.26291C15.7325 1.38174 10.4334 1.80141 7.24935 5.22698C4.06532 8.65256 4.06532 13.9339 7.24935 17.3595C10.4334 20.7851 15.7325 21.2048 19.4225 18.3236C17.2497 16.6293 15.9821 14.0362 15.985 11.292Z" fill="#EB001B"/>
<path d="M33.1424 17.1908V16.6065H33.2799V16.4856H32.9526V16.6065H33.0819V17.1908H33.1424ZM33.7776 17.1908V16.4856H33.6786L33.5631 16.9893L33.4476 16.4856H33.3486V17.1908H33.4201V16.6569L33.5274 17.1152H33.6016L33.7089 16.6569V17.1908H33.7776Z" fill="#F79E1B"/>
<path fill-rule="evenodd" clip-rule="evenodd" d="M33.9851 11.292C33.9851 14.7155 32.0175 17.8385 28.918 19.3345C25.8186 20.8305 22.1315 20.437 19.4226 18.3211C21.5938 16.6259 22.8614 14.0343 22.8614 11.2908C22.8614 8.54732 21.5938 5.95568 19.4226 4.26046C22.1315 2.14455 25.8186 1.75106 28.918 3.2471C32.0175 4.74315 33.9851 7.86607 33.9851 11.2896V11.292Z" fill="#F79E1B"/>
<g clip-path="url(#clip0_1_1862)">
<path d="M67.7751 4.0785C67.2126 4.75404 66.3126 5.28687 65.4126 5.21075C65.3001 4.29734 65.7407 3.32683 66.2564 2.7274C66.8189 2.03283 67.8032 1.53806 68.6001 1.5C68.6939 2.45147 68.3282 3.38392 67.7751 4.0785ZM68.5907 5.39153C67.2876 5.31541 66.172 6.1432 65.5532 6.1432C64.9251 6.1432 63.9782 5.42959 62.947 5.44862C61.6064 5.46765 60.3595 6.23834 59.6751 7.46575C58.2689 9.92055 59.3095 13.5552 60.6689 15.5533C61.3345 16.5428 62.1314 17.6275 63.1814 17.5894C64.1751 17.5514 64.5689 16.9329 65.7689 16.9329C66.9782 16.9329 67.3251 17.5894 68.3751 17.5704C69.4626 17.5514 70.147 16.5809 70.8126 15.5913C71.572 14.4686 71.8814 13.3744 71.9001 13.3173C71.8814 13.2983 69.8001 12.4895 69.7814 10.0538C69.7626 8.0176 71.422 7.0471 71.497 6.99001C70.5595 5.58183 69.097 5.42959 68.5907 5.39153ZM76.1189 2.63225V17.4657H78.3876V12.3944H81.5282C84.397 12.3944 86.4126 10.3963 86.4126 7.50381C86.4126 4.61132 84.4345 2.63225 81.6032 2.63225H76.1189ZM78.3876 4.57326H81.0032C82.972 4.57326 84.097 5.63892 84.097 7.51332C84.097 9.38773 82.972 10.4629 80.9939 10.4629H78.3876V4.57326ZM90.5564 17.5799C91.9814 17.5799 93.3032 16.8473 93.9032 15.6865H93.9501V17.4657H96.0501V10.0823C96.0501 7.94148 94.3626 6.56185 91.7657 6.56185C89.3564 6.56185 87.5751 7.96051 87.5095 9.88249H89.5532C89.722 8.96908 90.5564 8.36965 91.7001 8.36965C93.0876 8.36965 93.8657 9.02617 93.8657 10.2345V11.0528L91.0345 11.2241C88.4001 11.3858 86.9751 12.48 86.9751 14.383C86.9751 16.3049 88.447 17.5799 90.5564 17.5799ZM91.1657 15.8197C89.9564 15.8197 89.1876 15.2298 89.1876 14.3259C89.1876 13.3934 89.9282 12.8511 91.3439 12.7655L93.8657 12.6037V13.441C93.8657 14.8302 92.7032 15.8197 91.1657 15.8197ZM98.8532 21.5C101.066 21.5 102.106 20.6437 103.016 18.0461L107 6.70457H104.694L102.022 15.4677H101.975L99.3032 6.70457H96.9314L100.775 17.5038L100.569 18.1603C100.222 19.2736 99.6595 19.7017 98.6564 19.7017C98.4782 19.7017 98.1314 19.6827 97.9907 19.6637V21.4429C98.122 21.481 98.6845 21.5 98.8532 21.5Z" fill="currentColor"/>
</g>
<g clip-path="url(#clip1_1_1862)">
<path fill-rule="evenodd" clip-rule="evenodd" d="M19.0706 58.8211H15.522L17.7416 45.8992H21.29L19.0706 58.8211Z" fill="#1767EE"/>
<path fill-rule="evenodd" clip-rule="evenodd" d="M31.9348 46.2151C31.2348 45.9536 30.1247 45.6649 28.7519 45.6649C25.2475 45.6649 22.7797 47.4244 22.7646 49.9399C22.7355 51.7959 24.5315 52.8267 25.8747 53.4456C27.2476 54.0779 27.7143 54.4907 27.7143 55.0543C27.7003 55.92 26.6049 56.319 25.5832 56.319C24.1664 56.319 23.4073 56.1133 22.2537 55.6317L21.7864 55.4252L21.2898 58.3259C22.1221 58.6829 23.6555 58.9997 25.2475 59.0136C28.971 59.0136 31.3951 57.2814 31.4238 54.6007C31.438 53.1297 30.4897 52.0025 28.4451 51.0815C27.204 50.4903 26.4439 50.0916 26.4439 49.4866C26.4584 48.9367 27.0868 48.3734 28.4878 48.3734C29.6415 48.3458 30.4891 48.6069 31.1312 48.8682L31.4522 49.0054L31.9348 46.2151Z" fill="#1767EE"/>
<path d="M36.6512 54.2433C36.9435 53.501 38.068 50.6279 38.068 50.6279C38.0533 50.6554 38.3597 49.8718 38.5349 49.3907L38.7829 50.5042C38.7829 50.5042 39.4549 53.5972 39.6009 54.2433C39.0462 54.2433 37.3522 54.2433 36.6512 54.2433ZM41.0316 45.8992H38.2867C37.4403 45.8992 36.7972 46.1327 36.432 46.9713L31.1609 58.8209H34.8844C34.8844 58.8209 35.4974 57.226 35.6292 56.8825H40.1853C40.2872 57.3362 40.6088 58.8209 40.6088 58.8209H43.8945L41.0316 45.8992Z" fill="#1767EE"/>
<path fill-rule="evenodd" clip-rule="evenodd" d="M12.558 45.8992L9.08265 54.7107L8.70288 52.9236C8.06037 50.8615 6.04532 48.6212 3.79663 47.5072L6.97988 58.8074H10.7325L16.3104 45.8992H12.558Z" fill="#1767EE"/>
<path fill-rule="evenodd" clip-rule="evenodd" d="M5.8555 45.8992H0.146057L0.0876465 46.1603C4.54137 47.2326 7.49098 49.8174 8.70284 52.9241L7.46168 46.9854C7.25734 46.1601 6.62938 45.9264 5.8555 45.8992Z" fill="#EC982D"/>
</g>
<g clip-path="url(#clip2_1_1862)">
<path d="M83.1214 52.2706V58.1333H81.238V43.6551H86.2331C86.8293 43.6428 87.4221 43.7473 87.9773 43.9624C88.5325 44.1775 89.039 44.4991 89.4676 44.9085C89.9006 45.2931 90.2452 45.7648 90.4782 46.2918C90.7113 46.8188 90.8274 47.389 90.8187 47.964C90.8311 48.5421 90.7168 49.1161 90.4836 49.6464C90.2504 50.1768 89.9038 50.6511 89.4676 51.0369C88.5942 51.8594 87.516 52.2703 86.2331 52.2695H83.1214V52.2706ZM83.1214 45.4376V50.4916H86.2799C86.6262 50.5018 86.9708 50.4404 87.2916 50.3115C87.6125 50.1826 87.9026 49.989 88.1434 49.7431C88.3829 49.5131 88.5733 49.2381 88.7033 48.9342C88.8333 48.6303 88.9003 48.3038 88.9003 47.9739C88.9003 47.644 88.8333 47.3174 88.7033 47.0136C88.5733 46.7097 88.3829 46.4346 88.1434 46.2047C87.9056 45.9535 87.6165 45.7552 87.2953 45.6227C86.974 45.4903 86.6279 45.4268 86.2799 45.4365H83.1214V45.4376Z" fill="currentColor"/>
<path d="M95.1588 47.9039C96.5508 47.9039 97.6497 48.2713 98.4553 49.006C99.2609 49.7407 99.6633 50.748 99.6625 52.028V58.1332H97.861V56.7585H97.7791C96.9993 57.8906 95.962 58.4567 94.6675 58.4567C93.5624 58.4567 92.6378 58.1332 91.8939 57.4863C91.5368 57.1894 91.2513 56.8176 91.0583 56.3979C90.8652 55.9782 90.7694 55.5213 90.7779 55.0604C90.7779 54.0354 91.1701 53.2202 91.9547 52.6148C92.7392 52.0095 93.7866 51.7061 95.0968 51.7045C96.2151 51.7045 97.1361 51.9067 97.8599 52.311V51.8859C97.862 51.5717 97.7933 51.261 97.6587 50.9763C97.5242 50.6915 97.3272 50.44 97.0819 50.2397C96.5839 49.796 95.9348 49.5539 95.2641 49.5616C94.212 49.5616 93.3795 49.9999 92.7665 50.8763L91.1077 49.8447C92.0202 48.5508 93.3705 47.9039 95.1588 47.9039ZM92.7221 55.1008C92.7208 55.3375 92.7768 55.5711 92.8855 55.7821C92.9942 55.9931 93.1523 56.1754 93.3467 56.3138C93.7633 56.6374 94.2803 56.8088 94.8102 56.799C95.6049 56.7977 96.3668 56.4853 96.9287 55.9303C97.5526 55.3504 97.8645 54.6699 97.8645 53.889C97.2773 53.4269 96.4584 53.1959 95.4079 53.1959C94.6429 53.1959 94.005 53.378 93.4941 53.7423C92.9783 54.112 92.7221 54.5614 92.7221 55.1008Z" fill="currentColor"/>
<path d="M110.004 48.2274L103.715 62.4999H101.77L104.104 57.506L99.969 48.2274H102.016L105.005 55.3435H105.046L107.953 48.2274H110.004Z" fill="currentColor"/>
<path d="M75.5106 51.0069C75.5114 50.4401 75.4628 49.8743 75.3656 49.3157H67.4226V52.519H71.972C71.8789 53.0307 71.6818 53.5184 71.3927 53.9528C71.1036 54.3872 70.7285 54.7593 70.2898 55.0466V57.126H73.0049C74.5947 55.6785 75.5106 53.5379 75.5106 51.0069Z" fill="#4285F4"/>
<path d="M67.4226 59.1349C69.6955 59.1349 71.6093 58.3979 73.0049 57.1271L70.2898 55.0478C69.5341 55.5538 68.5608 55.8426 67.4226 55.8426C65.2257 55.8426 63.361 54.3801 62.6942 52.4093H59.8972V54.5522C60.5982 55.9298 61.6732 57.0878 63.002 57.897C64.3309 58.7062 65.8614 59.1348 67.4226 59.1349Z" fill="#34A853"/>
<path d="M62.6943 52.4093C62.3418 51.3766 62.3418 50.2582 62.6943 49.2255V47.0826H59.8973C59.3076 48.2415 59.0005 49.5205 59.0005 50.8174C59.0005 52.1144 59.3076 53.3933 59.8973 54.5522L62.6943 52.4093Z" fill="#FBBC04"/>
<path d="M67.4226 45.7924C68.6237 45.773 69.7843 46.2212 70.6536 47.04L73.0575 44.6661C71.5332 43.2522 69.5137 42.4759 67.4226 42.5001C65.8614 42.5001 64.3309 42.9287 63.002 43.7379C61.6732 44.5472 60.5982 45.7052 59.8972 47.0827L62.6942 49.2256C63.361 47.2549 65.2257 45.7924 67.4226 45.7924Z" fill="#EA4335"/>
</g>
<defs>
<clipPath id="clip0_1_1862">
<rect width="48" height="20" fill="currentColor" transform="translate(59 1.5)"/>
</clipPath>
<clipPath id="clip1_1_1862">
<rect width="44" height="14" fill="currentColor" transform="translate(0 45.5)"/>
</clipPath>
<clipPath id="clip2_1_1862">
<rect width="51" height="20" fill="currentColor" transform="translate(59 42.5)"/>
</clipPath>
</defs>
</svg>
