<svg width="19" height="19" viewBox="0 0 19 19" fill="currentColor" xmlns="http://www.w3.org/2000/svg">
<g id="Frame">
<g id="profile">
<g id="user">
<path id="User" d="M2.81738 14.8732V13.781C2.85867 12.97 3.34618 12.2487 4.08333 11.9081C7.55944 10.5118 11.4405 10.5118 14.9166 11.9081C15.6537 12.2487 16.1412 12.97 16.1825 13.781V14.8732C16.1822 15.4644 15.9469 16.0313 15.5285 16.449C15.11 16.8667 14.5426 17.1009 13.9514 17.1H5.04853C4.45728 17.1009 3.88993 16.8667 3.47145 16.449C3.05297 16.0313 2.81767 15.4644 2.81738 14.8732ZM9.49995 1.89999C7.99803 1.89956 6.64375 2.80395 6.06868 4.19143C5.49362 5.5789 5.81103 7.17617 6.8729 8.23834C7.93476 9.30052 9.53194 9.6184 10.9196 9.04374C12.3072 8.46908 13.212 7.11506 13.212 5.61314C13.2123 4.62845 12.8213 3.684 12.1252 2.98761C11.429 2.29123 10.4846 1.89999 9.49995 1.89999Z" fill="#FFFFC1"/>
</g>
</g>
</g>
</svg>
