<svg width="17" height="17" viewBox="0 0 17 17" fill="currentColor" xmlns="http://www.w3.org/2000/svg">
<g id="Frame" clip-path="url(#clip0_1_2863)">
<path id="Vector" d="M4.62734 8.42267C7.7193 7.71473 9.35349 9.4583 9.25007 11.8644C9.14042 14.415 7.18031 16.4871 4.62734 16.4871C2.07437 16.4871 0.114265 14.415 0.00462425 11.8644C-0.0987991 9.4583 1.53539 7.71473 4.62734 8.42267ZM8.48155 8.38294C9.22561 7.80203 10.3301 7.5779 11.7609 7.90601C14.7067 7.23185 16.2629 8.89393 16.1643 11.1853C16.0603 13.6165 14.1921 15.5906 11.7609 15.5906C10.7875 15.5945 9.8421 15.2648 9.08218 14.6565C9.59924 13.8244 9.89146 12.8724 9.93024 11.8935C9.98584 10.6241 9.60572 9.49815 8.86345 8.72358C8.74485 8.60065 8.61719 8.48678 8.48155 8.38294ZM9.36864 0.0376317C9.4796 -0.126845 10.0358 0.292154 10.1662 0.441719C10.2287 0.513616 10.2602 0.607421 10.2535 0.702492C10.2469 0.797564 10.2028 0.886114 10.1309 0.948658C9.76456 1.26739 9.41709 1.59114 9.08458 1.91826C9.08381 1.92277 9.08411 1.9272 9.08316 1.9317C8.74913 3.52955 9.7423 4.74738 10.7028 5.92503C11.0441 6.3249 11.3594 6.74622 11.6468 7.18642C11.3343 7.12594 11.0176 7.08934 10.6995 7.07694C10.5282 6.84849 10.3389 6.61586 10.146 6.37925C9.3019 5.34433 8.36745 4.19384 8.30334 2.7281C6.85461 4.31334 5.79833 5.97268 5.17882 7.63305C4.9977 7.65614 4.81418 7.68507 4.62729 7.72393C4.55048 7.70797 4.47479 7.69527 4.3989 7.68195C5.0403 5.81641 6.19674 3.95539 7.8183 2.19233C7.98096 2.01705 8.13155 1.83095 8.26906 1.63532C8.63568 1.10881 9.00501 0.576676 9.36864 0.0376317ZM10.3145 1.31133C10.637 1.25935 12.8913 1.40802 13.8749 2.14976C15.0741 3.054 15.0268 3.40029 15.5234 5.77514C14.1474 5.53582 13.0121 5.46697 11.5287 4.14906C10.7253 3.4285 10.2809 2.39001 10.3145 1.31133Z" fill="currentCollor"/>
</g>
<defs>
<clipPath id="clip0_1_2863">
<rect width="17" height="17" fill="currentColor"/>
</clipPath>
</defs>
</svg>
