<svg width="17" height="17" viewBox="0 0 17 17" fill="currentColor" xmlns="http://www.w3.org/2000/svg">
<g id="Frame">
<path id="Vector" d="M9.61597 3.50601H1.85996C0.83698 3.50601 0 4.34299 0 5.36597V11.634C0 12.657 0.83698 13.494 1.85996 13.494H9.61597C10.639 13.494 11.4759 12.657 11.4759 11.634V5.36597C11.4759 4.32439 10.639 3.50601 9.61597 3.50601Z" fill="currentColor"/>
<path id="Vector_2" d="M15.624 4.529C15.5124 4.5476 15.4008 4.6034 15.3078 4.65919L12.4062 6.33315V10.6483L15.3264 12.3222C15.8658 12.6384 16.5354 12.4524 16.8515 11.913C16.9445 11.7456 17.0003 11.5596 17.0003 11.355V5.60777C17.0003 4.91959 16.3494 4.3616 15.624 4.529Z" fill="currentColor"/>
</g>
</svg>
