<svg width="6" height="10" viewBox="0 0 6 10" fill="currentColor" xmlns="http://www.w3.org/2000/svg">
<g id="Frame" clip-path="url(#clip0_1_3195)">
<g id="arrow">
<path id="Arrow-left-1" d="M6.00001 8.95276C6.00235 8.6779 5.89514 8.41243 5.70001 8.2099L2.51101 4.9999L5.70001 1.7899C6.10515 1.37119 6.10515 0.726472 5.70001 0.307762C5.51107 0.111424 5.24428 -0.000366211 4.96464 -0.000366211C4.685 -0.000366211 4.4182 0.111424 4.22926 0.307762L0.305262 4.25919C-0.101754 4.67638 -0.101754 5.322 0.305262 5.73919L4.22551 9.69205C4.41445 9.88838 4.68125 10.0002 4.96089 10.0002C5.24053 10.0002 5.50732 9.88838 5.69626 9.69205C5.89115 9.49081 5.9984 9.22652 5.99626 8.95276" fill="currentColor"/>
</g>
</g>
<defs>
<clipPath id="clip0_1_3195">
<rect width="6" height="10" fill="currentColor"/>
</clipPath>
</defs>
</svg>
