<svg width="18" height="18" viewBox="0 0 18 18" fill="currentColor" xmlns="http://www.w3.org/2000/svg">
<g id="Frame">
<g id="search">
<g id="Search">
<path id="Vector" fill-rule="evenodd" clip-rule="evenodd" d="M11.6017 3.49341C9.51165 1.38881 6.17421 1.22588 3.89142 3.117C1.60864 5.00812 1.12762 8.33436 2.78017 10.8014C4.43271 13.2684 7.67797 14.0688 10.2774 12.6504L13.7171 15.9377C14.0902 16.2937 14.6772 16.2864 15.0413 15.9211L15.9241 15.0331C16.2919 14.6609 16.2919 14.0597 15.9241 13.6875L12.5863 10.3236C13.7969 8.07858 13.3964 5.30004 11.6017 3.49341ZM9.89675 9.94068C8.94551 10.8981 7.5146 11.1847 6.27137 10.6668C5.02815 10.149 4.21749 8.92869 4.21749 7.57509C4.21749 6.22149 5.02815 5.00121 6.27137 4.48337C7.5146 3.96553 8.94551 4.25213 9.89675 5.20951C11.1916 6.51759 11.1916 8.6326 9.89675 9.94068Z" fill="currentColor"/>
</g>
</g>
</g>
</svg>
