<svg width="18" height="17" viewBox="0 0 18 17" fill="currentColor" xmlns="http://www.w3.org/2000/svg">
<path d="M14.8588 10.0208C15.3242 9.54368 15.7107 8.99704 16.0038 8.4016C16.0125 8.26946 16.0169 8.13622 16.0169 8.00189C16.0169 7.04317 15.7928 6.13677 15.394 5.33232C14.6729 4.95262 13.8829 4.71584 13.0599 4.63867L11.6996 6.97394C12.1582 7.86322 12.4171 8.84215 12.4614 9.84013L14.8588 10.0208ZM15.2266 10.5256V10.9854C15.3953 10.6904 15.5398 10.3796 15.6573 10.0559C15.5212 10.2187 15.3775 10.3754 15.2266 10.5256ZM14.61 11.8694V10.6204L12.2946 10.4458L10.73 12.2379L11.8489 13.7308C12.9377 13.3792 13.891 12.726 14.61 11.8694ZM11.2049 13.8996L10.1828 12.5359C8.98185 12.5072 7.82967 12.1713 6.81636 11.5676C6.67013 11.4804 6.62221 11.2912 6.70932 11.145C6.79649 10.9987 6.98569 10.9508 7.13192 11.038C8.05242 11.5864 9.09824 11.892 10.1897 11.9193L11.8503 10.0172C11.83 9.03774 11.5829 8.07449 11.1261 7.20755L7.62136 6.39149V3.54624L10.7471 2.32885C10.8029 2.2357 10.8609 2.14387 10.9211 2.05341C10.6202 2.00711 10.312 1.98309 9.99811 1.98309C9.01616 1.98309 8.06933 2.21799 7.21869 2.66175C6.91681 2.81923 6.54439 2.70216 6.38688 2.40027C6.22944 2.09837 6.34646 1.72596 6.64841 1.56848C7.67409 1.03341 8.81644 0.75 9.99811 0.75C14.0032 0.75 17.25 3.99677 17.25 8.00189C17.25 12.007 14.0032 15.2537 9.99811 15.2537C8.82737 15.2537 7.69512 14.9755 6.67659 14.4499C6.37402 14.2937 6.25529 13.9219 6.41149 13.6192C6.56763 13.3167 6.93949 13.1979 7.24213 13.3541C8.08679 13.7901 9.02523 14.0207 9.99811 14.0207C10.4114 14.0207 10.8151 13.979 11.2049 13.8996ZM12.9415 4.01056C13.592 4.05494 14.2254 4.1899 14.8271 4.40866C14.0328 3.34286 12.8939 2.54896 11.5754 2.19188C11.4799 2.32369 11.3898 2.45904 11.305 2.59765L12.9415 4.01056ZM0.75 16.6332V9.23492L1.98309 3.68607L3.21617 1.21991C3.3332 0.967765 3.55182 0.669631 3.85484 0.837237C4.05685 0.948969 4.04948 1.28204 3.83271 1.83645L3.21617 3.68607V8.61844L3.83271 11.0846L5.68233 7.38534C5.81729 7.11164 6.25302 6.96431 6.64861 7.16211C7.0442 7.3599 6.97084 7.83276 6.91543 8.00189L5.68233 12.9342L3.83271 14.7838V16.6332H0.75ZM10.7951 2.97184L8.23791 3.96777V5.90206L11.2076 6.59354L12.4733 4.42082L10.7951 2.97184Z" fill="currentColor"/>
</svg>
