<svg width="18" height="18" viewBox="0 0 18 18" fill="currentColor" xmlns="http://www.w3.org/2000/svg">
<path d="M12.0473 6.46196L13.8419 7.53865L14.4248 6.42208L12.6328 5.3469L12.0473 6.46196ZM11.7668 6.99628L9.17861 11.9255C8.91544 12.4267 8.33106 12.6675 7.79124 12.4972L4.13071 11.3422C3.9723 11.2923 3.80731 11.2663 3.6412 11.2651C2.72127 11.2586 1.97029 11.9992 1.96384 12.9191L1.95503 14.1747C1.95499 14.1811 1.95499 14.1811 1.95499 14.1876C1.9557 15.1076 2.70204 15.8528 3.62199 15.8521L8.66684 15.8482C9.18122 15.8478 9.65292 15.5618 9.891 15.1058L13.5625 8.07366L11.7668 6.99628ZM12.9134 4.81259L14.7041 5.88707L15.9186 3.56098C16.1939 3.03379 16.0047 2.38333 15.4897 2.08597C15.4727 2.07632 15.4727 2.07632 15.4554 2.06712C14.979 1.81697 14.39 2.00039 14.1398 2.47681L12.9134 4.81259ZM2.68226 5.15852V6.3699C2.68226 7.22536 3.94995 7.94214 5.69464 7.94214C7.43965 7.94214 8.70719 7.22536 8.70719 6.36949V5.05822C8.07277 5.56133 6.99078 5.83344 5.67779 5.83344C4.34145 5.83344 3.29387 5.60973 2.68226 5.15852ZM2.68472 4.02721C2.68599 4.76232 3.79569 5.23092 5.67779 5.23092C7.3929 5.23092 8.57602 4.72869 8.70431 4.02167C8.63672 3.19742 7.39132 2.5197 5.69464 2.5197C3.99432 2.5197 2.74721 3.20047 2.68472 4.02721ZM5.69464 8.54467C3.66138 8.54467 2.07976 7.65037 2.07976 6.3699V4.09239C2.07976 2.81161 3.66127 1.91721 5.69464 1.91721C7.72819 1.91721 9.30972 2.81158 9.30972 4.09239V6.36949C9.30972 7.6503 7.72819 8.54467 5.69464 8.54467ZM13.073 1.91663C13.6325 0.850994 14.95 0.440721 16.0156 1.00025C16.0542 1.02082 16.0542 1.02082 16.0921 1.04241C17.1663 1.66259 17.5608 3.01917 16.9868 4.11867L10.9592 15.6635C10.5135 16.517 9.63064 17.0525 8.66773 17.0532L3.62291 17.0571C2.03746 17.0583 0.75121 15.774 0.75 14.1886C0.750007 14.1774 0.750007 14.1774 0.750069 14.1662L0.758876 12.9106C0.769992 11.3253 2.06423 10.0491 3.64965 10.0601C3.93591 10.0622 4.22027 10.1069 4.49327 10.1931L8.1255 11.3391L13.073 1.91663Z" fill="currentColor"/>
</svg>
