<svg width="14" height="14" viewBox="0 0 14 14" fill="none" xmlns="http://www.w3.org/2000/svg">
<path d="M7.0208 10.0311L6.1928 10.8591C5.3393 11.6287 4.0327 11.5952 3.21974 10.7829C2.40678 9.97069 2.37213 8.66412 3.1409 7.80994L3.9689 6.98194C4.32281 6.62853 4.32321 6.05514 3.9698 5.70124C3.61639 5.34733 3.04301 5.34693 2.6891 5.70034L1.862 6.52834C0.312926 8.07741 0.312926 10.589 1.862 12.138C3.41108 13.6871 5.92263 13.6871 7.4717 12.138L8.2997 11.3109C8.65311 10.9578 8.65331 10.385 8.30015 10.0316C7.94699 9.67818 7.37421 9.67798 7.0208 10.0311Z" fill="#FFB018"/>
<path d="M7.63998 5.08103L5.08128 7.63973C4.72812 7.99289 4.72812 8.56547 5.08128 8.91863C5.43443 9.27179 6.00702 9.27179 6.36018 8.91863L8.91888 6.35993C9.27203 6.00677 9.27203 5.43419 8.91888 5.08103C8.56572 4.72787 7.99313 4.72787 7.63998 5.08103Z" fill="#FFB018"/>
<path d="M12.1384 1.86191C11.3946 1.11793 10.3856 0.699951 9.33358 0.699951C8.28153 0.699951 7.27258 1.11793 6.52873 1.86191L5.70073 2.68901C5.34733 3.04216 5.34713 3.61495 5.70028 3.96836C6.05344 4.32176 6.62623 4.32196 6.97963 3.96881L7.80763 3.14081C8.66114 2.37128 9.96774 2.40477 10.7807 3.21701C11.5937 4.02925 11.6283 5.33582 10.8595 6.19001L10.0315 7.01801C9.67763 7.37141 9.67723 7.9448 10.0306 8.29871C10.384 8.65261 10.9574 8.65301 11.3113 8.29961L12.1384 7.47161C12.8824 6.72776 13.3004 5.71881 13.3004 4.66676C13.3004 3.6147 12.8824 2.60575 12.1384 1.86191Z" fill="#FFB018"/>
</svg>
