<svg width="32" height="32" viewBox="0 0 32 32" fill="currentColor" xmlns="http://www.w3.org/2000/svg">
<path d="M25.9252 6.41824C25.3528 5.86059 24.4246 5.86059 23.8522 6.41824C23.2798 6.97589 23.2798 7.88003 23.8522 8.43767C24.8716 9.43077 25.6804 10.6097 26.2322 11.9073C26.7838 13.2048 27.0678 14.5955 27.0678 16C27.0678 17.4045 26.7838 18.7952 26.2322 20.0928C25.6804 21.3902 24.8716 22.5692 23.8522 23.5624C23.2798 24.12 23.2798 25.0242 23.8522 25.5818C24.4246 26.1394 25.3528 26.1394 25.9252 25.5818C27.217 24.3234 28.2416 22.8296 28.9408 21.1856C29.6398 19.5416 29.9996 17.7795 29.9996 16C29.9996 14.2205 29.6398 12.4584 28.9408 10.8144C28.2416 9.17034 27.217 7.67654 25.9252 6.41824Z" fill="#FF4E4E"/>
<path d="M20.0846 10.2307C20.657 9.67309 21.5852 9.67309 22.1576 10.2307C22.9418 10.9946 23.5638 11.9015 23.9882 12.8996C24.4126 13.8977 24.6312 14.9674 24.6312 16.0477C24.6312 17.1281 24.4126 18.1978 23.9882 19.1959C23.5638 20.194 22.9418 21.1007 22.1576 21.8647C21.5852 22.4223 20.657 22.4223 20.0846 21.8647C19.5121 21.3071 19.5121 20.403 20.0846 19.8453C20.5966 19.3466 21.0026 18.7545 21.2796 18.103C21.5568 17.4514 21.6994 16.753 21.6994 16.0477C21.6994 15.3425 21.5568 14.6441 21.2796 13.9925C21.0026 13.3409 20.5966 12.7489 20.0846 12.2502C19.5121 11.6925 19.5121 10.7884 20.0846 10.2307Z" fill="#FF4E4E"/>
<path d="M16.1042 19.0229C17.8181 19.0229 19.2074 17.6695 19.2074 16C19.2074 14.3305 17.8181 12.9771 16.1042 12.9771C14.3903 12.9771 13.001 14.3305 13.001 16C13.001 17.6695 14.3903 19.0229 16.1042 19.0229Z" fill="#FF4E4E"/>
<path d="M12.112 10.2307C11.5395 9.67309 10.6114 9.67309 10.0389 10.2307C9.25473 10.9946 8.63267 11.9015 8.20827 12.8996C7.78387 13.8977 7.56543 14.9674 7.56543 16.0477C7.56543 17.1281 7.78387 18.1978 8.20827 19.1959C8.63267 20.194 9.25473 21.1007 10.0389 21.8647C10.6114 22.4223 11.5395 22.4223 12.112 21.8647C12.6845 21.3071 12.6845 20.403 12.112 19.8453C11.6 19.3466 11.1939 18.7545 10.9169 18.103C10.6398 17.4514 10.4972 16.753 10.4972 16.0477C10.4972 15.3425 10.6398 14.6441 10.9169 13.9925C11.1939 13.3409 11.6 12.7489 12.112 12.2502C12.6845 11.6925 12.6845 10.7884 12.112 10.2307Z" fill="#FF4E4E"/>
<path d="M6.07434 6.41824C6.6468 5.86059 7.57496 5.86059 8.14742 6.41824C8.71988 6.97589 8.71988 7.88003 8.14742 8.43767C7.12794 9.43077 6.31924 10.6097 5.7675 11.9073C5.21576 13.2048 4.93178 14.5955 4.93178 16C4.93178 17.4045 5.21576 18.7952 5.7675 20.0928C6.31924 21.3902 7.12794 22.5692 8.14742 23.5624C8.71988 24.12 8.71988 25.0242 8.14742 25.5818C7.57496 26.1394 6.6468 26.1394 6.07434 25.5818C4.78262 24.3234 3.75796 22.8296 3.05888 21.1856C2.3598 19.5416 2 17.7795 2 16C2 14.2205 2.3598 12.4584 3.05888 10.8144C3.75796 9.17034 4.78262 7.67654 6.07434 6.41824Z" fill="#FF4E4E"/>
</svg>
