<svg width="17" height="19" viewBox="0 0 17 19" fill="currentColor" xmlns="http://www.w3.org/2000/svg">
<g clip-path="url(#clip0_1_4514)">
<path fill-rule="evenodd" clip-rule="evenodd" d="M9.71942 0.846747L3.40476 4.05966C2.78403 4.37548 2.54876 5.11201 2.87937 5.70502L7.75655 14.4528C8.08708 15.0456 8.85833 15.2704 9.47907 14.9546L15.7937 11.7417C16.4147 11.4257 16.6497 10.6889 16.3191 10.096L11.4421 1.34833C11.1114 0.755324 10.3403 0.530831 9.71942 0.846747ZM9.4447 5.15364C8.67084 5.03357 7.85333 4.64071 7.67074 4.43536C7.73963 4.70153 7.61153 5.59402 7.28032 6.29874C7.18904 6.4932 7.06108 6.69341 6.92771 6.90206C6.53165 7.5217 6.08797 8.21584 6.41593 9.0554C7.08041 10.7565 9.65374 10.1823 9.69719 8.48686C10 9.15352 10.3059 10.422 9.06188 11.5959C9.05812 11.5994 9.05454 11.603 9.051 11.6066C9.04898 11.6087 9.04698 11.6107 9.04497 11.6128C9.0387 11.6193 9.03238 11.6258 9.0253 11.6323L9.11717 11.5838L12.8355 9.61602L12.8966 9.58371C12.8966 9.58371 12.8822 9.58699 12.8617 9.59112C12.6205 9.64089 11.0541 9.89278 9.92414 8.3668C11.3644 9.27725 13.2803 7.47642 12.2301 5.97931C11.7117 5.24043 10.8842 5.21885 10.1454 5.19959C9.89674 5.19311 9.6581 5.18688 9.4447 5.15364ZM16.2127 12.5167L16.2783 12.4833C16.3027 12.471 16.3249 12.4564 16.3472 12.4418C16.3561 12.4359 16.3652 12.43 16.3743 12.4243L16.3766 12.4228C16.3864 12.4166 16.3965 12.4107 16.4067 12.4048C16.4231 12.3952 16.4395 12.3856 16.4548 12.3747C16.4795 12.5409 16.471 12.7044 16.4333 12.8595C16.3457 13.0748 16.1993 13.2722 15.9946 13.4249L15.4389 13.8393L9.83941 18.0148C9.23441 18.466 8.36074 18.3637 7.88788 17.7863L0.826245 9.15962C0.3532 8.58195 0.460638 7.74815 1.06555 7.29686L2.40056 6.30127L7.27981 15.0448C7.76232 15.9094 8.89203 16.2381 9.79791 15.7776L9.8003 15.7764L12.5622 14.3724L16.2101 12.518L16.2127 12.5167Z" fill="currentColor"/>
</g>
<defs>
<clipPath id="clip0_1_4514">
<rect width="17" height="19" fill="currentColor"/>
</clipPath>
</defs>
</svg>
