<svg width="15" height="13" viewBox="0 0 15 13" fill="currentColor" xmlns="http://www.w3.org/2000/svg">
<path d="M2.22655 5.72617C2.73327 5.7259 3.21443 5.53021 3.54316 5.1907C3.65766 5.08358 3.8173 5.02284 3.98437 5.02284C4.15143 5.02284 4.31108 5.08358 4.42557 5.1907C4.76091 5.52021 5.23967 5.70849 5.74218 5.70849C6.24469 5.70849 6.72344 5.52021 7.05877 5.1907C7.17327 5.08358 7.33292 5.02284 7.49998 5.02284C7.66705 5.02284 7.8267 5.08358 7.9412 5.1907C8.27652 5.52021 8.75531 5.70849 9.25779 5.70849C9.76031 5.70849 10.2391 5.52021 10.5744 5.1907C10.6888 5.08358 10.8486 5.02284 11.0156 5.02284C11.1827 5.02284 11.3422 5.08358 11.4568 5.1907C11.7855 5.53021 12.2666 5.7259 12.7734 5.72617C13.7442 5.72617 14.5312 5.03328 14.5312 4.17856H0.468754C0.468754 5.03328 1.25574 5.72617 2.22655 5.72617ZM13.3221 0.823483L14.5312 4.17856H0.468754L1.49123 0.863417C1.59155 0.538137 1.89455 0.315877 2.23793 0.315683L12.5858 0.309815C12.9162 0.309628 13.211 0.515297 13.3221 0.823483ZM7.49688 6.79016L7.6098 6.85375C8.10374 7.11374 8.6742 7.25611 9.25779 7.25611L9.45178 7.25087C9.96731 7.22294 10.4676 7.08408 10.9131 6.84674L11 6.79712L11.0528 6.82875C11.5551 7.11246 12.1561 7.27346 12.7726 7.27378C13.1109 7.27378 13.4396 7.22616 13.7504 7.13712L13.75 11.9166C13.75 12.344 13.4002 12.6904 12.9687 12.6904H9.06248L9.0625 9.59521C9.0625 9.19839 8.76091 8.87132 8.37236 8.82662L8.28125 8.82142H6.71875C6.28728 8.82142 5.9375 9.16786 5.9375 9.59521L5.93747 12.6904H2.03125C1.59978 12.6904 1.25 12.344 1.25 11.9166L1.24997 7.13735C1.56034 7.22624 1.88866 7.27378 2.22655 7.27378L2.41111 7.2689C2.96297 7.23987 3.49665 7.08249 3.96337 6.81276L3.99063 6.79557L4.09418 6.85375C4.58812 7.11374 5.15858 7.25611 5.74218 7.25611L5.93615 7.25087C6.45169 7.22294 6.95192 7.08407 7.39747 6.84673L7.49688 6.79016Z" fill="currentColor"/>
</svg>
