<svg width="22" height="22" viewBox="0 0 22 22" fill="currentColor" xmlns="http://www.w3.org/2000/svg">
<path fill-rule="evenodd" clip-rule="evenodd" d="M3.4375 4.60625C3.4375 3.21976 4.53516 2.0625 5.92969 2.0625H11.9453C13.3398 2.0625 14.4375 3.21976 14.4375 4.60625V13.2687C14.4375 14.6552 13.3398 15.8125 11.9453 15.8125H5.92969C4.53516 15.8125 3.4375 14.6552 3.4375 13.2687V4.60625ZM5.92969 3.4375C5.33081 3.4375 4.8125 3.94238 4.8125 4.60625V13.2687C4.8125 13.9326 5.33081 14.4375 5.92969 14.4375H11.9453C12.5442 14.4375 13.0625 13.9326 13.0625 13.2687V4.60625C13.0625 3.94238 12.5442 3.4375 11.9453 3.4375H5.92969ZM15.3828 6.875C15.3828 6.49531 15.6906 6.1875 16.0703 6.1875H16.5C17.6391 6.1875 18.5625 7.11088 18.5625 8.25V17.875C18.5625 19.0141 17.6391 19.9375 16.5 19.9375H9.625C8.48588 19.9375 7.5625 19.0141 7.5625 17.875V17.3937C7.5625 17.014 7.87029 16.7062 8.25 16.7062C8.62971 16.7062 8.9375 17.014 8.9375 17.3937V17.875C8.9375 18.2547 9.24529 18.5625 9.625 18.5625H16.5C16.8797 18.5625 17.1875 18.2547 17.1875 17.875V8.25C17.1875 7.87029 16.8797 7.5625 16.5 7.5625H16.0703C15.6906 7.5625 15.3828 7.25471 15.3828 6.875ZM6.875 11C6.49531 11 6.1875 11.3078 6.1875 11.6875C6.1875 12.0672 6.49531 12.375 6.875 12.375H11C11.3797 12.375 11.6875 12.0672 11.6875 11.6875C11.6875 11.3078 11.3797 11 11 11H6.875ZM6.1875 8.9375C6.1875 8.55779 6.49531 8.25 6.875 8.25H11C11.3797 8.25 11.6875 8.55779 11.6875 8.9375C11.6875 9.31721 11.3797 9.625 11 9.625H6.875C6.49531 9.625 6.1875 9.31721 6.1875 8.9375ZM6.875 5.5C6.49531 5.5 6.1875 5.80781 6.1875 6.1875C6.1875 6.56719 6.49531 6.875 6.875 6.875H11C11.3797 6.875 11.6875 6.56719 11.6875 6.1875C11.6875 5.80781 11.3797 5.5 11 5.5H6.875Z" fill="currentColor"/>
</svg>
