<svg width="17" height="17" viewBox="0 0 17 17" fill="none" xmlns="http://www.w3.org/2000/svg">
<path fill-rule="evenodd" clip-rule="evenodd" d="M11.2466 2.68789C9.04048 0.46637 5.51762 0.294384 3.10802 2.29057C0.698411 4.28675 0.190672 7.79779 1.93503 10.4019C3.67938 13.0059 7.10493 13.8508 9.84882 12.3536L13.4796 15.8235C13.8734 16.1994 14.493 16.1916 14.8774 15.8061L15.8092 14.8687C16.1974 14.4758 16.1974 13.8412 15.8092 13.4483L12.286 9.89758C13.5638 7.5278 13.141 4.59489 11.2466 2.68789ZM9.44697 9.49334C8.44289 10.5039 6.93248 10.8064 5.62019 10.2598C4.30789 9.71321 3.4522 8.42514 3.4522 6.99634C3.4522 5.56754 4.30789 4.27946 5.62019 3.73285C6.93248 3.18624 8.44289 3.48876 9.44697 4.49933C10.8138 5.88008 10.8138 8.11259 9.44697 9.49334Z" fill="#B1B6C6"/>
</svg>
