<svg width="21" height="20" viewBox="0 0 21 20" fill="currentColor" xmlns="http://www.w3.org/2000/svg">
<path fill-rule="evenodd" clip-rule="evenodd" d="M16.5955 6.25722H18.2082C18.0484 5.79288 17.8886 5.34848 17.6939 4.91412C17.4755 4.47385 17.2643 4.02624 17.0536 3.5799C16.9609 3.38341 16.8683 3.18715 16.7752 2.99183C16.6729 2.77713 16.5705 2.56368 16.4681 2.35023C16.3658 2.13678 16.2634 1.92334 16.1611 1.70864C16.0162 1.40907 15.8715 1.10949 15.7317 0.809916C15.7117 0.769972 15.6867 0.75 15.6368 0.75H14.4784C14.4385 0.75 14.4186 0.759982 14.3986 0.799926C14.2688 1.07953 14.139 1.35415 14.0091 1.62876C13.9042 1.84845 13.8006 2.06814 13.697 2.28782C13.5934 2.50751 13.4899 2.7272 13.385 2.94689L12.8008 4.17515C12.7908 4.19512 12.7809 4.21011 12.7609 4.24006C12.691 4.02536 12.5911 3.84561 12.4463 3.69084C12.3066 3.54105 12.1318 3.4312 11.9471 3.34133C11.952 3.33134 11.952 3.32635 11.952 3.32635C11.962 3.31637 11.967 3.31137 11.977 3.30638C12.1517 3.18655 12.2965 3.03676 12.4014 2.84703C12.5362 2.60238 12.5662 2.33775 12.5412 2.06314C12.5262 1.89338 12.4813 1.73361 12.4014 1.57883C12.2366 1.25928 11.962 1.06955 11.6375 0.944721C11.278 0.804924 10.8985 0.754991 10.514 0.754991H8.05754C8.01759 0.754991 8.00261 0.774963 8.00261 0.809916V6.15237C8.00261 6.24223 8.01264 6.2522 8.1025 6.2522C8.39407 6.25055 8.68626 6.24945 8.97858 6.24835C9.56227 6.24608 10.1466 6.24388 10.7288 6.23721C11.0583 6.23721 11.3828 6.17231 11.6974 6.0575C11.7387 6.04375 11.78 6.02691 11.8246 6.00876C11.8609 5.99398 11.8995 5.9783 11.942 5.96263C11.9256 5.99563 11.9136 6.02251 11.9029 6.04677C11.8941 6.06651 11.8861 6.08445 11.8771 6.10239C11.7922 6.25722 11.8372 6.25722 11.972 6.25722H13.4649C13.4722 6.25722 13.4798 6.25749 13.4877 6.25784C13.5117 6.25873 13.5371 6.25976 13.5597 6.2522C13.5847 6.24718 13.6147 6.22724 13.6246 6.20731C13.7694 5.87772 13.9143 5.54318 14.054 5.21366C14.069 5.17874 14.089 5.16877 14.124 5.16877H15.9464C15.9913 5.16877 16.0063 5.18369 16.0213 5.21868C16.0886 5.37571 16.1583 5.53156 16.2282 5.68735L16.2285 5.68804C16.2984 5.84403 16.3683 6.00009 16.4357 6.15732C16.4657 6.23721 16.5156 6.25722 16.5955 6.25722ZM10.3842 4.92409H10.1046C9.96487 4.92409 9.82503 4.92409 9.68526 4.92911C9.6403 4.92911 9.62531 4.91412 9.62531 4.86917V4.19013C9.62036 4.15518 9.6304 4.13521 9.67529 4.13521C9.96487 4.13521 10.2544 4.13521 10.544 4.1402C10.6938 4.14519 10.8386 4.17015 10.9734 4.23507C11.253 4.36488 11.1981 4.67943 11.0233 4.79926C10.9135 4.86917 10.7937 4.90415 10.6688 4.91412C10.5739 4.91907 10.4791 4.92409 10.3842 4.92409ZM10.3493 2.80209H10.0298C9.90994 2.80209 9.79506 2.80209 9.68024 2.7971C9.6403 2.80209 9.63033 2.78712 9.63033 2.74717V2.13804C9.63033 2.09809 9.6403 2.08311 9.68526 2.08311C9.74143 2.08311 9.7976 2.0828 9.85377 2.08248C10.0223 2.08155 10.1908 2.08062 10.3593 2.0881C10.4791 2.09809 10.604 2.12305 10.7188 2.163C10.8386 2.20294 10.9085 2.29781 10.9085 2.43262C10.9085 2.56244 10.8436 2.66229 10.7288 2.7222C10.6139 2.78212 10.4791 2.7971 10.3493 2.80209ZM15.0177 2.93191C15.1525 3.24646 15.2773 3.53605 15.4071 3.83563H14.6283C14.758 3.53106 14.8829 3.24147 15.0177 2.93191ZM0.386956 15.1111C0.38963 15.1281 0.392298 15.1451 0.394436 15.1621C2.87497 15.1621 5.3555 15.1621 7.8275 15.1875C7.83252 15.1724 7.83836 15.1574 7.84421 15.1421C7.8583 15.1058 7.87281 15.0681 7.87879 15.0262C7.94719 14.7038 8.0178 14.3832 8.08834 14.0629C8.15894 13.7424 8.22948 13.4221 8.29796 13.0996C8.33213 12.9467 8.33213 12.9467 8.17819 12.9467H5.21009C5.19299 12.9467 5.1737 12.9446 5.15445 12.9425C5.13522 12.9404 5.11599 12.9383 5.0989 12.9383C5.09034 12.9297 5.09034 12.9213 5.09034 12.9128C5.10745 12.9043 5.12242 12.8959 5.13739 12.8873C5.15236 12.8789 5.16732 12.8703 5.18443 12.8619L6.57013 12.1744C6.74957 12.0839 6.93052 11.9932 7.11154 11.9024L7.11394 11.9012L7.11532 11.9006C7.47646 11.7195 7.84015 11.5371 8.20384 11.3511C8.57165 11.1643 8.80258 10.8842 8.88811 10.4768C8.94888 10.1646 9.01674 9.8558 9.0848 9.54601C9.1222 9.37586 9.15967 9.20543 9.19604 9.03396C9.2388 8.83026 9.28156 8.62655 9.30728 8.42284C9.35004 8.04087 9.12763 7.71836 8.78546 7.64198C8.69994 7.625 8.61441 7.625 8.52889 7.625H2.82365C2.73812 7.625 2.65258 7.625 2.5756 7.64198C2.1137 7.7438 1.83143 8.04939 1.70313 8.48224C1.59172 8.85074 1.50269 9.22378 1.41338 9.59799C1.37928 9.74085 1.34512 9.88399 1.30967 10.027C1.28401 10.1289 1.29257 10.1459 1.40376 10.1459H3.60202C3.67901 10.1459 3.71322 10.1203 3.73888 10.0525C3.77393 9.95803 3.81192 9.86659 3.84939 9.77626C3.87594 9.71232 3.90223 9.649 3.92706 9.58568C3.95272 9.50923 3.98693 9.48379 4.07247 9.48379H6.72406C6.7198 9.49651 6.7198 9.50717 6.7198 9.51666C6.7198 9.52621 6.7198 9.53474 6.71554 9.54319C6.65566 9.72992 6.59578 9.91664 6.52737 10.1034C6.51974 10.1335 6.47863 10.1636 6.44549 10.1877L6.43325 10.1967C6.33061 10.2562 6.22569 10.3135 6.12085 10.3709C6.01621 10.4281 5.91137 10.4854 5.80884 10.5447C5.40684 10.7654 5.00663 10.9884 4.60677 11.2112C4.207 11.434 3.8072 11.6567 3.40529 11.8773C2.54138 12.3526 1.68603 12.8279 0.822116 13.3117C0.779347 13.3372 0.736577 13.3797 0.728025 13.4221C0.608276 13.9313 0.488527 14.4491 0.377331 14.9584C0.370917 15.0092 0.378933 15.0602 0.386956 15.1111ZM6.00508 3.85069C6.00006 3.85069 5.99504 3.85069 5.98507 3.86068C5.98005 3.85319 5.97386 3.8457 5.96761 3.83821C5.96135 3.83072 5.95509 3.82324 5.95014 3.81574C5.93516 3.79078 5.91893 3.76707 5.90271 3.74335C5.88648 3.71964 5.87023 3.69591 5.85526 3.67095C5.44103 3.05711 5.0318 2.44825 4.62257 1.83939L4.622 1.83855C4.50716 1.66629 4.39232 1.49528 4.27749 1.32427C4.16265 1.15327 4.04781 0.982258 3.93298 0.809998C3.90801 0.775052 3.88304 0.760072 3.83811 0.760072H2.0057C1.96077 0.760072 1.9383 0.760072 1.92707 0.771306C1.91583 0.782539 1.91583 0.805007 1.91583 0.849942V6.10748C1.91583 6.17987 1.91583 6.21611 1.93393 6.23419C1.95203 6.25227 1.98823 6.25227 2.06062 6.25227H3.44367C3.53354 6.25227 3.54353 6.24732 3.54353 6.15244V3.06681C3.57348 3.07679 3.58347 3.08678 3.58846 3.09676L3.76978 3.36718C3.95225 3.63947 4.13356 3.91005 4.31743 4.18023C4.77179 4.84928 5.22115 5.51836 5.67052 6.18737C5.70047 6.23233 5.73043 6.25227 5.78535 6.25227H7.54783C7.63775 6.25227 7.63775 6.24732 7.63775 6.15739V0.839959C7.63775 0.765063 7.63775 0.760072 7.55786 0.760072H6.09493C6.04914 0.760072 6.02666 0.760072 6.01566 0.771299C6.00508 0.782106 6.00508 0.803316 6.00508 0.844951V3.85069ZM8.63641 15.179C8.63641 15.1584 8.63346 15.1363 8.63057 15.1146C8.62631 15.0828 8.62218 15.0513 8.62754 15.0261C8.89581 13.8223 9.16407 12.6184 9.43233 11.423C9.67378 10.3633 9.91523 9.3036 10.1477 8.24389C10.1605 8.18373 10.1743 8.12461 10.188 8.06582C10.213 7.95899 10.2377 7.85311 10.2551 7.74366C10.2729 7.64198 10.3356 7.625 10.4249 7.625H12.8932C13.0057 7.625 13.0616 7.625 13.0825 7.65202C13.1032 7.67869 13.0898 7.7317 13.0631 7.83696C12.9736 8.18882 12.8841 8.54322 12.7947 8.89715C12.7053 9.25094 12.6159 9.60486 12.5266 9.95652C12.5176 9.99887 12.5086 10.0413 12.4997 10.1091C12.5256 10.0887 12.5473 10.0742 12.5659 10.0617C12.5858 10.0484 12.602 10.0375 12.6159 10.0243L15.0394 7.67588C15.0753 7.64198 15.1289 7.625 15.1826 7.625H18.1426C18.1784 7.625 18.2142 7.64198 18.2499 7.65889C18.2447 7.66879 18.2403 7.67869 18.2359 7.68839C18.2253 7.7119 18.2153 7.73418 18.1963 7.75219C17.9594 7.98525 17.7223 8.22065 17.4854 8.45584C17.2484 8.69111 17.0114 8.92637 16.7743 9.15957C16.5481 9.38239 16.3216 9.60644 16.095 9.83057C15.6796 10.2413 15.2632 10.6532 14.8436 11.0625H13.4375C12.2984 11.0625 11.375 11.9859 11.375 13.125V15.1865C10.4644 15.179 9.54632 15.179 8.63641 15.179ZM12.0625 13.125C12.0625 12.3656 12.6781 11.75 13.4375 11.75H18.9375C19.6969 11.75 20.3125 12.3656 20.3125 13.125V18.625C20.3125 19.3844 19.6969 20 18.9375 20H13.4375C12.6781 20 12.0625 19.3844 12.0625 18.625V13.125ZM13.4375 18.625V17.8897L14.881 15.2316C14.9543 15.0987 14.9961 14.9839 15.0065 14.8869C15.017 14.7847 15.0222 14.6596 15.0222 14.5115C15.0222 14.4451 15.0196 14.3762 15.0143 14.3047C15.0143 14.2281 15.0013 14.1617 14.9752 14.1055C14.949 14.0493 14.9098 14.0033 14.8575 13.9676C14.8051 13.9268 14.7293 13.9063 14.63 13.9063C14.5097 13.9063 14.4129 13.9395 14.3397 14.0059C14.2717 14.0723 14.2377 14.1693 14.2377 14.297V14.7413H13.4375V14.3123C13.4375 14.1489 13.4689 13.9957 13.5316 13.8527C13.5944 13.7097 13.6807 13.5846 13.7905 13.4773C13.8951 13.3701 14.0206 13.2859 14.1671 13.2246C14.3135 13.1582 14.4705 13.125 14.6378 13.125C14.847 13.125 15.0249 13.1633 15.1713 13.2399C15.323 13.3114 15.4485 13.411 15.5478 13.5387C15.642 13.6663 15.71 13.8119 15.7518 13.9753C15.7989 14.1387 15.8224 14.3123 15.8224 14.4962C15.8224 14.629 15.8198 14.7413 15.8146 14.8332C15.8094 14.9201 15.7989 15.0043 15.7832 15.086C15.7675 15.1677 15.7414 15.2494 15.7047 15.3311C15.6682 15.4129 15.6185 15.5124 15.5557 15.6299L14.3789 17.8437H15.8224V18.625H13.4375ZM17.7529 18.625V17.813H16.1603V17.0776L17.3136 13.171H18.1608L16.9605 17.0776H17.7529V15.5227H18.5531V17.0776H18.9375V17.813H18.5531V18.625H17.7529Z" fill="currentColor"/>
</svg>
