<svg width="20" height="20" viewBox="0 0 20 20" fill="currentColor" xmlns="http://www.w3.org/2000/svg">
<path fill-rule="evenodd" clip-rule="evenodd" d="M3.33831 5.2243L9.16669 1.88599V6.14919C7.45713 6.39178 6.76081 7.28631 6.76081 8.16567V8.666C6.76081 9.51505 7.52562 10.1215 8.3504 10.3489L10.7798 11.016C11.2896 11.1525 11.4996 11.3041 11.4996 11.577V11.8348C11.4996 12.2896 10.9597 12.4564 9.99997 12.4564C9.10021 12.4564 8.50036 12.2896 8.50036 11.8196V11.577C8.50036 11.3496 8.42538 11.2435 8.17045 11.2435H6.88078C6.62585 11.2435 6.53587 11.3496 6.53587 11.577V11.9106C6.53587 12.7899 7.50002 13.8664 9.16669 13.8664V18.1145L3.33831 14.7761C2.81984 14.4792 2.5 13.9274 2.5 13.3299V6.67054C2.5 6.07304 2.81984 5.52126 3.33831 5.2243ZM10.8334 18.1144L16.6617 14.7761C17.1802 14.4792 17.5 13.9274 17.5 13.3299V6.67054C17.5 6.07304 17.1802 5.52126 16.6617 5.2243L10.8334 1.88601V6.14919C12.5 6.14919 13.3591 7.28631 13.3591 8.16567V8.43858C13.3591 8.68117 13.2691 8.77213 13.0142 8.77213H11.7245C11.4846 8.77213 11.3946 8.68117 11.3946 8.43858V8.16567C11.3946 7.69567 10.8997 7.52889 10.045 7.52889C9.1452 7.52889 8.69531 7.69567 8.69531 8.15051V8.34761C8.69531 8.65084 8.96524 8.80246 9.22018 8.8631L11.7095 9.51505C12.8492 9.81828 13.4641 10.3338 13.4641 11.1525V11.8954C13.4641 12.7748 12.5 13.8512 10.8334 13.8512V18.1144Z" fill="currentColor"/>
</svg>
