<svg width="18" height="15" viewBox="0 0 18 15" fill="currentColor" xmlns="http://www.w3.org/2000/svg">
<g clip-path="url(#clip0_1_11541)">
<path d="M6.50281 9.33158L2.64575 7.86462V11.7524C2.64575 11.9716 2.78474 12.1571 2.99323 12.2246L8.39988 14.0625V7.49365L6.98929 9.21357C6.86767 9.34847 6.67655 9.38216 6.50281 9.33158Z" fill="currentColor"/>
<path d="M17.0838 5.8359C17.2402 5.76845 17.3097 5.58297 17.1881 5.44807L15.2769 3.10426C15.2074 3.00309 15.1205 2.91878 14.9989 2.88506L9.17854 0.962793C9.07432 0.929069 8.95271 0.929069 8.84847 0.962793L2.99337 2.88506C2.87176 2.91878 2.78489 3.00309 2.71539 3.10426L0.804234 5.44807C0.69999 5.58297 0.752112 5.78532 0.908479 5.8359L6.36396 7.90992C6.46821 7.94364 6.58983 7.92678 6.65933 7.84247L8.67472 5.63355C8.84847 5.44807 9.16117 5.44807 9.31759 5.63355L11.333 7.84247C11.4024 7.92678 11.5241 7.94364 11.6283 7.90992L17.0838 5.8359ZM9.00484 4.75674L4.78292 3.37405L9.00484 1.97451L13.2267 3.37405L9.00484 4.75674Z" fill="currentColor"/>
<path d="M11.3502 9.34847C11.2286 9.34847 11.1069 9.29789 11.0201 9.21357L9.59985 7.49365V14.0625L15.0161 12.2246C15.2246 12.1571 15.3636 11.9547 15.3636 11.7524V7.86462L11.5065 9.33158C11.4544 9.34847 11.4023 9.34847 11.3502 9.34847Z" fill="currentColor"/>
</g>
<defs>
<clipPath id="clip0_1_11541">
<rect width="18" height="14" fill="currentColor" transform="translate(0 0.5)"/>
</clipPath>
</defs>
</svg>
