<svg width="153" height="155" viewBox="0 0 153 155" fill="currentColor" xmlns="http://www.w3.org/2000/svg">
<path opacity="0.7" fill-rule="evenodd" clip-rule="evenodd" d="M19.2789 39.6209C19.9419 38.7374 21.1956 38.5588 22.079 39.2218C22.9624 39.8849 23.1411 41.1386 22.478 42.022C18.5783 47.2178 15.4159 52.9316 13.0932 59.006C12.6987 60.0377 11.5426 60.5543 10.5108 60.1598C9.47913 59.7653 8.96256 58.6091 9.35706 57.5774C11.8131 51.1542 15.1565 45.1133 19.2789 39.6209ZM10.3368 112.854C9.90581 111.837 10.3808 110.663 11.3978 110.232C12.4148 109.801 13.5887 110.276 14.0197 111.293C16.0752 116.143 18.6742 120.742 21.7614 125.006C22.4092 125.901 22.209 127.151 21.3143 127.799C20.4196 128.447 19.1692 128.246 18.5214 127.352C15.258 122.844 12.5102 117.982 10.3368 112.854ZM138.563 127.235C137.917 128.131 136.667 128.333 135.771 127.687C134.875 127.041 134.672 125.791 135.318 124.895C143.842 113.074 148.5 98.8906 148.5 84C148.5 69.2636 143.938 55.2181 135.578 43.4672C134.937 42.5671 135.148 41.3184 136.048 40.6781C136.948 40.0378 138.197 40.2483 138.837 41.1483C147.675 53.571 152.5 68.4256 152.5 84C152.5 99.7374 147.573 114.738 138.563 127.235ZM105.768 15.1864C106.794 15.5936 107.297 16.7561 106.89 17.7829C106.482 18.8096 105.32 19.3119 104.293 18.9047C96.1568 15.678 87.4462 14 78.4998 14C71.7755 14 65.18 14.9477 58.8524 16.7943C57.7921 17.1038 56.6816 16.4951 56.3722 15.4347C56.0627 14.3744 56.6715 13.264 57.7318 12.9545C64.4225 11.0019 71.3953 10 78.4998 10C87.9532 10 97.164 11.7743 105.768 15.1864Z" fill="#FFE81A"/>
<path opacity="0.3" fill-rule="evenodd" clip-rule="evenodd" d="M12.4996 7.96051H17.9601C19.0646 7.96051 19.9601 8.85594 19.9601 9.96051C19.9601 11.0651 19.0646 11.9605 17.9601 11.9605H12.4996V17.421C12.4996 18.5256 11.6041 19.421 10.4996 19.421C9.395 19.421 8.49957 18.5256 8.49957 17.421V11.9605H3.03906C1.93449 11.9605 1.03906 11.0651 1.03906 9.96051C1.03906 8.85594 1.93449 7.96051 3.03906 7.96051H8.49957V2.5C8.49957 1.39543 9.395 0.5 10.4996 0.5C11.6041 0.5 12.4996 1.39543 12.4996 2.5V7.96051Z" fill="#FFE81A"/>
<path opacity="0.4" fill-rule="evenodd" clip-rule="evenodd" d="M126.5 97.9605H131.96C133.065 97.9605 133.96 98.8559 133.96 99.9605C133.96 101.065 133.065 101.961 131.96 101.961H126.5V107.421C126.5 108.526 125.604 109.421 124.5 109.421C123.395 109.421 122.5 108.526 122.5 107.421V101.961H117.039C115.934 101.961 115.039 101.065 115.039 99.9605C115.039 98.8559 115.934 97.9605 117.039 97.9605H122.5V92.5C122.5 91.3954 123.395 90.5 124.5 90.5C125.604 90.5 126.5 91.3954 126.5 92.5V97.9605Z" fill="#FFE81A"/>
<path opacity="0.2" fill-rule="evenodd" clip-rule="evenodd" d="M146 16.4803H148.23C149.058 16.4803 149.73 17.1518 149.73 17.9803C149.73 18.8087 149.058 19.4803 148.23 19.4803H146V21.7105C146 22.5389 145.328 23.2105 144.5 23.2105C143.671 23.2105 143 22.5389 143 21.7105V19.4803H140.77C139.941 19.4803 139.27 18.8087 139.27 17.9803C139.27 17.1518 139.941 16.4803 140.77 16.4803H143V14.25C143 13.4216 143.671 12.75 144.5 12.75C145.328 12.75 146 13.4216 146 14.25V16.4803Z" fill="#FFE81A"/>
<g opacity="0.3">
<path d="M42.4492 59C60.6827 59 88.0328 59 124.5 59C126.709 59 128.5 57.2091 128.5 55V28C128.5 25.7909 126.709 24 124.5 24C88.0549 24 60.7213 24 42.4989 24M42.5364 22C60.7505 22 88.0716 22 124.5 22C127.813 22 130.5 24.6863 130.5 28V55C130.5 58.3137 127.813 61 124.5 61C88.06 61 60.7301 61 42.5103 61" fill="currentColor"/>
<path fill-rule="evenodd" clip-rule="evenodd" d="M32.5 22H42.5V61H32.5C29.1863 61 26.5 58.3137 26.5 55V28C26.5 24.6863 29.1863 22 32.5 22ZM49 27C50.3807 27 51.5 28.1193 51.5 29.5C51.5 30.8807 50.3807 32 49 32C47.6193 32 46.5 30.8807 46.5 29.5C46.5 28.1193 47.6193 27 49 27ZM57 28H91C91.8284 28 92.5 28.6716 92.5 29.5C92.5 30.3284 91.8284 31 91 31H57C56.1716 31 55.5 30.3284 55.5 29.5C55.5 28.6716 56.1716 28 57 28ZM48.5 35H107.5C108.052 35 108.5 35.4477 108.5 36C108.5 36.5523 108.052 37 107.5 37H48.5C47.9477 37 47.5 36.5523 47.5 36C47.5 35.4477 47.9477 35 48.5 35ZM48.5 40H78.5C79.0523 40 79.5 40.4477 79.5 41C79.5 41.5523 79.0523 42 78.5 42H48.5C47.9477 42 47.5 41.5523 47.5 41C47.5 40.4477 47.9477 40 48.5 40ZM50 50H55C56.3807 50 57.5 51.1193 57.5 52.5C57.5 53.8807 56.3807 55 55 55H50C48.6193 55 47.5 53.8807 47.5 52.5C47.5 51.1193 48.6193 50 50 50Z" fill="currentColor"/>
</g>
<g opacity="0.3">
<path d="M16.4492 104C34.6827 104 62.0328 104 98.4998 104C100.709 104 102.5 102.209 102.5 100V73C102.5 70.7909 100.709 69 98.4998 69C62.0549 69 34.7213 69 16.4989 69M16.5364 67C34.7505 67 62.0716 67 98.4998 67C101.813 67 104.5 69.6863 104.5 73V100C104.5 103.314 101.813 106 98.4998 106C62.06 106 34.7301 106 16.5103 106" fill="currentColor"/>
<path fill-rule="evenodd" clip-rule="evenodd" d="M6.5 67H16.5V106H6.5C3.18629 106 0.5 103.314 0.5 100V73C0.5 69.6863 3.18629 67 6.5 67ZM23 72C24.3807 72 25.5 73.1193 25.5 74.5C25.5 75.8807 24.3807 77 23 77C21.6193 77 20.5 75.8807 20.5 74.5C20.5 73.1193 21.6193 72 23 72ZM31 73H65C65.8284 73 66.5 73.6716 66.5 74.5C66.5 75.3284 65.8284 76 65 76H31C30.1716 76 29.5 75.3284 29.5 74.5C29.5 73.6716 30.1716 73 31 73ZM22.5 80H81.5C82.0523 80 82.5 80.4477 82.5 81C82.5 81.5523 82.0523 82 81.5 82H22.5C21.9477 82 21.5 81.5523 21.5 81C21.5 80.4477 21.9477 80 22.5 80ZM22.5 85H52.5C53.0523 85 53.5 85.4477 53.5 86C53.5 86.5523 53.0523 87 52.5 87H22.5C21.9477 87 21.5 86.5523 21.5 86C21.5 85.4477 21.9477 85 22.5 85ZM24 95H29C30.3807 95 31.5 96.1193 31.5 97.5C31.5 98.8807 30.3807 100 29 100H24C22.6193 100 21.5 98.8807 21.5 97.5C21.5 96.1193 22.6193 95 24 95Z" fill="currentColor"/>
</g>
<g opacity="0.3">
<path d="M42.4492 153C60.6827 153 88.0328 153 124.5 153C126.709 153 128.5 151.209 128.5 149V122C128.5 119.791 126.709 118 124.5 118C88.0549 118 60.7213 118 42.4989 118M42.5364 116C60.7505 116 88.0716 116 124.5 116C127.813 116 130.5 118.686 130.5 122V149C130.5 152.314 127.813 155 124.5 155C88.06 155 60.7301 155 42.5103 155" fill="currentColor"/>
<path fill-rule="evenodd" clip-rule="evenodd" d="M32.5 116H42.5V155H32.5C29.1863 155 26.5 152.314 26.5 149V122C26.5 118.686 29.1863 116 32.5 116ZM49 121C50.3807 121 51.5 122.119 51.5 123.5C51.5 124.881 50.3807 126 49 126C47.6193 126 46.5 124.881 46.5 123.5C46.5 122.119 47.6193 121 49 121ZM57 122H91C91.8284 122 92.5 122.672 92.5 123.5C92.5 124.328 91.8284 125 91 125H57C56.1716 125 55.5 124.328 55.5 123.5C55.5 122.672 56.1716 122 57 122ZM48.5 129H107.5C108.052 129 108.5 129.448 108.5 130C108.5 130.552 108.052 131 107.5 131H48.5C47.9477 131 47.5 130.552 47.5 130C47.5 129.448 47.9477 129 48.5 129ZM48.5 134H78.5C79.0523 134 79.5 134.448 79.5 135C79.5 135.552 79.0523 136 78.5 136H48.5C47.9477 136 47.5 135.552 47.5 135C47.5 134.448 47.9477 134 48.5 134ZM50 144H55C56.3807 144 57.5 145.119 57.5 146.5C57.5 147.881 56.3807 149 55 149H50C48.6193 149 47.5 147.881 47.5 146.5C47.5 145.119 48.6193 144 50 144Z" fill="currentColor"/>
</g>
</svg>
