<svg width="15" height="17" viewBox="0 0 15 17" fill="currentColor" xmlns="http://www.w3.org/2000/svg">
<g clip-path="url(#clip0_1_4555)">
<path d="M7.67433 0.974121C10.4734 0.974121 12.7561 3.14836 12.8714 5.87314L12.8759 6.08937V10.2749C12.8759 11.184 13.5858 11.93 14.4902 12.0059L14.6427 12.0123V16.0262C11.4878 16.0262 8.9164 13.5696 8.79851 10.4955L8.79429 10.2749V6.08937C8.79429 5.48111 8.29286 4.98801 7.67433 4.98801C7.09703 4.98801 6.62176 5.41755 6.56095 5.96937L6.55437 6.08937V9.93162C6.55437 13.2211 3.90438 15.9018 0.589274 16.022L0.356934 16.0262V12.0123C1.47466 12.0123 2.38996 11.16 2.46743 10.0802L2.47275 9.93162V6.08937C2.47275 3.2643 4.80157 0.974121 7.67433 0.974121Z" fill="currentColor"/>
</g>
<defs>
<clipPath id="clip0_1_4555">
<rect width="15" height="17" fill="currentColor"/>
</clipPath>
</defs>
</svg>
