<svg width="17" height="17" viewBox="0 0 17 17" fill="currentColor" xmlns="http://www.w3.org/2000/svg">
<g clip-path="url(#clip0_1_4520)">
<path fill-rule="evenodd" clip-rule="evenodd" d="M8.46607 0.630222C8.47742 0.629808 8.48879 0.629395 8.50024 0.629395C8.5117 0.629395 8.52306 0.629808 8.53441 0.630222C8.54455 0.630591 8.55467 0.63096 8.56487 0.631036H8.43561C8.44581 0.63096 8.45594 0.630591 8.46607 0.630222ZM13.8266 2.71269C12.4991 1.48999 10.7523 0.717403 8.82948 0.637741V3.28473C10.0309 3.35343 11.1227 3.82251 11.9746 4.56476L13.8266 2.71269ZM8.17232 3.2889V0.639182C6.25064 0.717923 4.50276 1.48856 3.17464 2.71174L5.05368 4.5875C5.89647 3.84309 6.97867 3.3676 8.17232 3.2889ZM4.58852 5.05228L2.7116 3.1752C1.48921 4.50302 0.71715 6.2504 0.638169 8.17348H3.28779C3.36722 6.97928 3.84343 5.89629 4.58852 5.05228ZM4.56506 11.9725L2.71226 13.8253C1.48906 12.5006 0.718431 10.7527 0.639731 8.82771H3.28614C3.35499 10.0312 3.82394 11.1232 4.56506 11.9725ZM8.1736 16.3618C6.25097 16.2829 4.50405 15.5117 3.17639 14.2902L5.02663 12.4402C5.87424 13.1986 6.96705 13.6843 8.1736 13.7646V16.3618ZM16.3608 8.17181H13.7636C13.6849 6.96828 13.1995 5.873 12.442 5.02695L14.2915 3.17741C15.5114 4.5055 16.2821 6.25013 16.3608 8.17181ZM16.3699 8.53129V8.46824C16.3699 8.47339 16.37 8.47849 16.3702 8.48358C16.3704 8.48895 16.3706 8.49433 16.3706 8.49975C16.3706 8.5052 16.3704 8.51058 16.3702 8.51596L16.3699 8.5244L16.3699 8.53129ZM8.50024 16.3701L8.51129 16.3699H8.48919L8.50024 16.3701ZM8.82817 16.3602C10.7531 16.2816 12.4977 15.511 13.8259 14.2877L11.9992 12.4644C11.1434 13.2187 10.0415 13.6975 8.82817 13.7663V16.3602ZM0.631163 8.55023V8.44931C0.631116 8.45738 0.630822 8.46539 0.630527 8.4734C0.630205 8.48215 0.629883 8.49091 0.629883 8.49975C0.629883 8.5086 0.630205 8.51736 0.630527 8.52613C0.630822 8.53414 0.631116 8.54216 0.631163 8.55023ZM12.464 12.0002L14.2892 13.8252C15.5108 12.4985 16.2826 10.7524 16.3623 8.82934H13.7677C13.6982 10.043 13.2196 11.1445 12.464 12.0002ZM10.4941 11.4774C11.0352 11.4774 11.4779 11.038 11.4779 10.4936C11.4779 9.95255 11.0352 9.50979 10.4941 9.50979C10.3301 9.50979 10.176 9.55569 10.0382 9.62785L9.62501 9.21467C9.74637 9.01788 9.81522 8.78834 9.81522 8.55224C9.81522 8.30301 9.73655 8.06034 9.60867 7.85699L10.012 7.45036C10.1497 7.52253 10.3039 7.56845 10.4678 7.56845C11.0089 7.56845 11.4517 7.12899 11.4517 6.58465C11.4517 6.04355 11.0089 5.60085 10.4678 5.60085C9.92676 5.60085 9.484 6.04355 9.484 6.58465C9.484 6.72236 9.51357 6.85353 9.56277 6.97159L9.12988 7.40776C8.9364 7.30281 8.72324 7.24051 8.50352 7.24051C8.26414 7.24051 8.03458 7.30937 7.83783 7.42742L7.42463 7.01422C7.49677 6.87647 7.54269 6.72564 7.54269 6.55838C7.54269 6.01733 7.09998 5.57459 6.55889 5.57459C6.01779 5.57459 5.57509 6.01733 5.57509 6.55838C5.57509 7.10276 6.01779 7.54218 6.55889 7.54218C6.69662 7.54218 6.82779 7.51268 6.94585 7.46348L7.37544 7.89309C7.26067 8.09313 7.1918 8.31614 7.1918 8.55224C7.1918 8.7785 7.25082 8.99166 7.35576 9.17857L6.94585 9.58846C6.82779 9.53935 6.69662 9.50979 6.55889 9.50979C6.01779 9.50979 5.57509 9.95255 5.57509 10.4936C5.57509 11.038 6.01779 11.4774 6.55889 11.4774C7.09998 11.4774 7.54269 11.038 7.54269 10.4936C7.54269 10.3296 7.49677 10.1755 7.42463 10.0377L7.80503 9.65732C8.01162 9.78859 8.25101 9.86396 8.50352 9.86396C8.73636 9.86396 8.96263 9.79832 9.16267 9.67705L9.58893 10.1067C9.53982 10.2246 9.51026 10.3558 9.51026 10.4936C9.51026 11.038 9.95302 11.4774 10.4941 11.4774Z" fill="currentColor"/>
</g>
<defs>
<clipPath id="clip0_1_4520">
<rect width="17" height="17" fill="currentColor"/>
</clipPath>
</defs>
</svg>
