<svg width="43" height="39" viewBox="0 0 43 39" fill="currentColor" xmlns="http://www.w3.org/2000/svg">
<path d="M0 8C0 3.58172 3.58172 0 8 0H35C39.4183 0 43 3.58172 43 8V31C43 35.4183 39.4183 39 35 39H8C3.58172 39 0 35.4183 0 31V8Z" fill="#CBD7FF" fill-opacity="0.03"/>
<path fill-rule="evenodd" clip-rule="evenodd" d="M24.2461 13.6875C22.04 11.466 18.5171 11.294 16.1075 13.2902C13.6979 15.2864 13.1902 18.7974 14.9345 21.4015C16.6789 24.0055 20.1044 24.8504 22.8483 23.3532L26.4791 26.8231C26.8729 27.199 27.4925 27.1912 27.8769 26.8057L28.8087 25.8683C29.197 25.4754 29.197 24.8408 28.8087 24.4479L25.2855 20.8972C26.5634 18.5274 26.1405 15.5945 24.2461 13.6875ZM22.4465 20.4929C21.4424 21.5035 19.932 21.806 18.6197 21.2594C17.3074 20.7128 16.4517 19.4247 16.4517 17.9959C16.4517 16.5671 17.3074 15.2791 18.6197 14.7325C19.932 14.1858 21.4424 14.4884 22.4465 15.4989C23.8133 16.8797 23.8133 19.1122 22.4465 20.4929Z" fill="currentColor"/>
</svg>
