<svg width="16" height="16" viewBox="0 0 16 16" fill="currentColor" xmlns="http://www.w3.org/2000/svg">
<g clip-path="url(#clip0_1_11548)">
<path d="M15.368 4.09471C15.2791 4.03456 15.1639 4.02612 15.0673 4.07262L12.6744 5.22543C12.6438 5.24015 12.607 5.23567 12.5807 5.21394L11.6312 4.42936C11.6116 4.4132 11.5999 4.38915 11.5995 4.36383L11.576 3.13292C11.5755 3.09899 11.5949 3.06757 11.6254 3.05285L14.1457 1.83864C14.2384 1.79393 14.3013 1.70632 14.3139 1.60416C14.3267 1.50218 14.2869 1.40182 14.2078 1.33593C13.5184 0.760874 12.6425 0.465356 11.7419 0.503238C10.8355 0.54148 9.98301 0.915636 9.34118 1.55676C8.93336 1.96413 8.6368 2.44655 8.45994 2.99073C8.29117 3.50959 8.2421 4.07011 8.31795 4.61177C8.37349 5.00729 8.23401 5.41592 7.945 5.70462L5.70209 7.94506C5.41308 8.23376 5.00419 8.37308 4.60823 8.3176C4.06597 8.24184 3.50466 8.29085 2.98523 8.45926C2.44045 8.6361 1.95751 8.93216 1.54969 9.33935C0.934459 9.95409 0.562049 10.7695 0.50076 11.6356C0.493211 11.7435 0.542278 11.8443 0.631966 11.9051C0.720934 11.9653 0.836144 11.9737 0.932662 11.9272L3.32547 10.7744C3.35602 10.7597 3.39287 10.7642 3.41893 10.7859L4.36882 11.5705C4.38842 11.5866 4.4001 11.6105 4.40046 11.636L4.424 12.8671C4.42454 12.901 4.40513 12.9324 4.37458 12.9473L1.85416 14.1614C1.76142 14.2061 1.69851 14.2937 1.68575 14.3958C1.67317 14.498 1.71289 14.5982 1.79179 14.6641C2.44189 15.2063 3.25735 15.5 4.10336 15.5C4.15476 15.5 4.20634 15.4989 4.25793 15.4968C5.16433 15.4585 6.01699 15.0842 6.65882 14.4431C7.06646 14.0359 7.36302 13.5535 7.54006 13.0091C7.70865 12.4902 7.7579 11.9297 7.68205 11.3881C7.62669 10.9927 7.76616 10.5843 8.055 10.2956L10.2979 8.05512C10.5869 7.76625 10.9958 7.6271 11.3918 7.6824C11.934 7.75817 12.4952 7.70915 13.0146 7.54057C13.5595 7.36372 14.0425 7.06749 14.4503 6.6603C15.0655 6.04556 15.438 5.23028 15.4992 4.36419C15.5068 4.25629 15.4577 4.15557 15.368 4.09471Z" fill="currentColor"/>
</g>
<defs>
<clipPath id="clip0_1_11548">
<rect width="16" height="16" fill="currentColor"/>
</clipPath>
</defs>
</svg>
