<svg width="16" height="17" viewBox="0 0 16 17" fill="currentColor" xmlns="http://www.w3.org/2000/svg">
<path fill-rule="evenodd" clip-rule="evenodd" d="M8.31223 3.00298C6.93249 4.51273 5.92651 6.09305 5.3365 7.67436C5.164 7.69635 4.98923 7.7239 4.81123 7.76091C4.7496 7.7481 4.68872 7.7375 4.62786 7.72689C4.61648 7.72491 4.6051 7.72293 4.59373 7.72094C5.20457 5.94422 6.30594 4.17182 7.85029 2.49271C8.0052 2.32578 8.14863 2.14854 8.27958 1.96222C8.62875 1.4608 8.98049 0.954 9.32681 0.440625C9.43247 0.283981 9.96222 0.683027 10.0864 0.82547C10.1459 0.893943 10.1759 0.983281 10.1696 1.07382C10.1633 1.16437 10.1213 1.2487 10.0528 1.30827C9.70387 1.61182 9.37295 1.92015 9.05627 2.2317L9.05569 2.23761L9.05493 2.24451C8.7368 3.76625 9.68268 4.9261 10.5975 6.04768C10.9225 6.4285 11.2228 6.82976 11.4965 7.24899C11.1988 7.19139 10.8972 7.15654 10.5943 7.14472C10.4312 6.92716 10.2509 6.7056 10.0671 6.48027C9.26325 5.49462 8.37329 4.39892 8.31223 3.00298ZM11.384 4.35625C12.657 5.48721 13.6608 5.65235 14.8057 5.8407C14.9313 5.86138 15.0588 5.88235 15.1885 5.9049C15.1393 5.66996 15.0958 5.45588 15.0559 5.25987C14.712 3.56889 14.642 3.22388 13.6186 2.45215C12.6818 1.74573 10.5348 1.60414 10.2276 1.65364C10.1957 2.68096 10.6188 3.67 11.384 4.35625ZM8.48197 8.38854C9.1906 7.83529 10.2425 7.62184 11.6051 7.93432C14.4107 7.29227 15.8928 8.87519 15.7989 11.0575C15.6999 13.373 13.9206 15.2529 11.6051 15.2529C10.6781 15.2567 9.77772 14.9427 9.05399 14.3633C9.54643 13.5709 9.82474 12.6642 9.86167 11.732C9.91462 10.523 9.5526 9.45064 8.84567 8.71296C8.73272 8.59588 8.61114 8.48743 8.48197 8.38854ZM0.408701 11.7042C0.310202 9.41271 1.86657 7.75216 4.81129 8.42639C7.75601 7.75216 9.31238 9.41271 9.21389 11.7042C9.10946 14.1334 7.24269 16.1068 4.81129 16.1068C2.37989 16.1068 0.513121 14.1334 0.408701 11.7042Z" fill="currentColor"/>
</svg>
