<svg width="68" height="68" viewBox="0 0 68 68" fill="currentColor" xmlns="http://www.w3.org/2000/svg">
<g id="svg">
<g id="Group">
<path id="Vector" fill-rule="evenodd" clip-rule="evenodd" d="M27.105 11.8391V12.9944L25.8312 13.0129L24.5576 13.0313L24.5236 14.1883L24.4896 15.3451L23.1823 15.3635L21.875 15.382L21.8576 21.6241L21.8403 27.866L20.5665 27.8846L19.2929 27.9031V29.0569V30.2108L18.019 30.2293L16.7452 30.2477L16.7267 31.3877L16.708 32.5274H17.9325C18.6059 32.5274 19.1798 32.5351 19.2079 32.5445C19.2359 32.5538 19.2672 32.0332 19.2774 31.3877L19.2959 30.2138H20.585H21.8741V31.4047V32.5955H20.5835H19.2929V34.9773V37.359H20.5835H21.8741V46.5456V55.7322H23.1989H24.5236V46.5456V37.359H25.1689H25.8142V36.4743C25.8142 35.9878 25.8066 35.5832 25.7972 35.5753C25.7879 35.5673 24.909 35.5445 23.8443 35.5242L21.9081 35.4876L21.8894 34.4078C21.8655 33.0252 21.74 33.1398 23.2751 33.1398H24.5236V31.6768V30.2138H27.1802C29.6872 30.2138 29.8335 30.2205 29.7786 30.3329C29.6357 30.6251 29.6725 34.0786 29.8201 34.2266C30.0125 34.4194 32.7305 34.4422 32.8879 34.2523C32.9954 34.1227 33.0273 30.5464 32.9229 30.3329C32.8682 30.221 32.9699 30.2138 34.5872 30.2137H36.3097L36.2898 32.2028C36.2714 34.0262 36.2796 34.1992 36.3877 34.2784C36.5853 34.4231 39.2871 34.3998 39.4093 34.2523C39.5154 34.1244 39.549 30.6482 39.447 30.3669L39.3914 30.2138H41.74H44.0885L44.0712 38.5328L44.054 46.8518L38.5345 46.8691L33.0151 46.8865V51.3093V55.7322H34.3057H35.5965V52.4661V49.2003L41.1499 49.1829L46.7033 49.1654L46.7205 38.533L46.7378 27.9006L35.6477 27.8832L24.5576 27.866L24.5385 26.9645L24.5197 26.0628H37.9041H51.2887V23.4103V20.7578L49.9811 20.7394L48.6734 20.7209L48.6395 19.5641L48.6054 18.4073L47.6715 18.3884L46.7373 18.3695V16.8757V15.382L45.3957 15.3635L44.054 15.3451L44.0355 14.1712L44.0168 12.9974H42.7617H41.5066V14.1867V15.3761L42.7802 15.3946L44.054 15.413V16.8762V18.3392L38.2288 18.3565L32.4036 18.3741V19.4328C32.4036 20.8735 32.5318 20.7549 30.9747 20.7549H29.6863V22.2181V23.6811H27.105H24.5236V19.5315V15.382L25.7972 15.3636L27.071 15.3451L27.0896 14.1712L27.1081 12.9974H34.2734H41.4386V11.8405V10.6837H34.2717H27.105V11.8391ZM48.6238 22.2011L48.642 23.6811H40.489H32.3358V22.1837V20.6863L40.4706 20.7037L48.6054 20.7209L48.6238 22.2011ZM34.016 35.2966C33.9044 35.3257 33.8976 35.4757 33.9142 37.5512L33.9321 39.7746L34.8057 39.7938C35.392 39.8066 35.7104 39.787 35.7738 39.7344C35.9022 39.6276 35.9144 35.459 35.7866 35.3311C35.707 35.2513 34.2945 35.2238 34.016 35.2966ZM29.7567 41.6415C29.6567 41.8285 29.6659 43.0272 29.7679 43.1295C29.8298 43.1915 31.0087 43.2111 34.659 43.2111H39.4686V42.3605V41.5099H34.6478C29.9512 41.5099 29.8252 41.5133 29.7567 41.6415Z" fill="currentColor"/>
</g>
</g>
</svg>
