<svg width="30" height="30" viewBox="0 0 30 30" fill="currentColor" xmlns="http://www.w3.org/2000/svg">
<g id="svg">
<g id="Group">
<path id="Vector" fill-rule="evenodd" clip-rule="evenodd" d="M11.958 5.22312V5.7328L11.396 5.74099L10.8341 5.7491L10.8191 6.25953L10.8041 6.76988L10.2274 6.77799L9.65064 6.78618L9.64299 9.54004L9.63534 12.2938L9.07337 12.302L8.51147 12.3102V12.8192V13.3283L7.94949 13.3365L7.38752 13.3446L7.37934 13.8475L7.37109 14.3503H7.91132C8.20839 14.3503 8.46159 14.3537 8.47397 14.3578C8.48634 14.362 8.50014 14.1323 8.50464 13.8475L8.51282 13.3296H9.08154H9.65027V13.855V14.3804H9.08087H8.51147V15.4311V16.4819H9.08087H9.65027V20.5348V24.5877H10.2347H10.8191V20.5348V16.4819H11.1038H11.3885V16.0916C11.3885 15.877 11.3852 15.6984 11.381 15.695C11.3769 15.6915 10.9892 15.6814 10.5194 15.6725L9.66527 15.6563L9.65702 15.1799C9.64644 14.5699 9.59109 14.6205 10.2683 14.6205H10.8191V13.9751V13.3296H11.9912C13.0972 13.3296 13.1618 13.3326 13.1375 13.3821C13.0745 13.5111 13.0907 15.0347 13.1558 15.1C13.2407 15.185 14.4398 15.1951 14.5093 15.1113C14.5567 15.0541 14.5708 13.4764 14.5247 13.3821C14.5006 13.3328 14.5454 13.3296 15.259 13.3296H16.0189L16.0101 14.2071C16.002 15.0115 16.0056 15.0879 16.0533 15.1228C16.1405 15.1867 17.3324 15.1764 17.3864 15.1113C17.4332 15.0549 17.448 13.5213 17.403 13.3972L17.3785 13.3296H18.4146H19.4507L19.4431 16.9998L19.4355 20.6699L17.0004 20.6776L14.5654 20.6852V22.6365V24.5877H15.1348H15.7043V23.1468V21.706L18.1543 21.6983L20.6043 21.6906L20.6119 16.9998L20.6195 12.3091L15.7268 12.3014L10.8341 12.2938L10.8257 11.8961L10.8174 11.4983H16.7223H22.6273V10.3281V9.15786L22.0504 9.14974L21.4735 9.14156L21.4585 8.6312L21.4435 8.12085L21.0314 8.11251L20.6193 8.10417V7.44514V6.78618L20.0274 6.77799L19.4355 6.76988L19.4273 6.25202L19.4191 5.73415H18.8654H18.3116V6.25885V6.78355L18.8735 6.79174L19.4355 6.79986V7.44537V8.0908L16.8656 8.09846L14.2956 8.1062V8.57328C14.2956 9.20887 14.3522 9.15658 13.6652 9.15658H13.0968V9.80209V10.4475H11.958H10.8191V8.61685V6.78618L11.381 6.77807L11.943 6.76988L11.9512 6.25202L11.9594 5.73415H15.1205H18.2816V5.22372V4.71337H15.1198H11.958V5.22312ZM21.4516 9.79458L21.4596 10.4475H17.8627H14.2657V9.78691V9.1263L17.8546 9.13397L21.4435 9.14156L21.4516 9.79458ZM15.007 15.572C14.9577 15.5849 14.9547 15.651 14.9621 16.5667L14.9699 17.5476L15.3554 17.5561C15.614 17.5617 15.7545 17.5531 15.7825 17.5299C15.8391 17.4828 15.8445 15.6437 15.7881 15.5873C15.753 15.552 15.1298 15.5399 15.007 15.572ZM13.1279 18.3712C13.0838 18.4537 13.0878 18.9826 13.1328 19.0277C13.1601 19.0551 13.6802 19.0637 15.2906 19.0637H17.4125V18.6884V18.3132H15.2857C13.2137 18.3132 13.1581 18.3147 13.1279 18.3712Z" fill="currentColor"/>
</g>
</g>
</svg>
