<svg height="30" viewBox="0 0 60 30" width="60" xmlns="http://www.w3.org/2000/svg"><g fill="none" fill-rule="evenodd"><path d="m58.1186441 30c0-3.361732-2.6646618-6.1010988-5.9970729-6.2211884l-.2528781-.0040568-36.3837397.1995596c-3.9020134.0154551-7.40559731-2.3876313-8.79640198-6.0333974l-6.68855142-17.940917 56.2293258.02078853c2.0042287-.01104974 3.649887 1.55226234 3.7643213 3.53014188l.0063529.21980113v19.63819096c0 1.812982-.4151183 3.601894-1.2135332 5.2296032z" fill="#520001"/><path d="m58.1186441 30v-4.3452058c0-2.6887547-2.1223067-4.8818181-4.7831104-4.9953805l-.2465951-.0045313-37.867173.3081529c-3.7704432.0224009-7.18740583-2.2161958-8.67268238-5.6818411l-6.54908322-15.2811942h56.25c2.0710678 0 3.75 1.67893219 3.75 3.75v19.6881977c0 1.848972-.4317573 3.6723997-1.2608829 5.3250486z" fill="#c00"/><path d="m55 3c.5522847 0 1 .5372583 1 1.2v12.6c0 .6627417-.4477153 1.2-1 1.2s-1-.5372583-1-1.2v-12.6c0-.6627417.4477153-1.2 1-1.2z" fill="#e11414"/></g></svg>