<svg width="28" height="18" viewBox="0 0 28 18" fill="currentColor" xmlns="http://www.w3.org/2000/svg">
<path d="M15.3904 5.1129C16.2326 4.641 16.8 3.7537 16.8 2.73684C16.8 1.22533 15.5463 0 14 0C12.4536 0 11.2 1.22533 11.2 2.73684C11.2 3.7538 11.7674 4.6411 12.6096 5.113L9.8154 8.8305C9.4608 9.3023 8.7769 9.3659 8.3413 8.9678L3.70191 4.7269C4.07692 4.3481 4.30769 3.832 4.30769 3.2632C4.30769 2.10049 3.34338 1.15793 2.15385 1.15793C0.96431 1.15793 0 2.10049 0 3.2632C0 4.4259 0.96431 5.3685 2.15385 5.3685C2.19006 5.3685 2.22607 5.3676 2.26185 5.3659L3.16 17.0765C3.19996 17.5976 3.63445 18 4.15707 18H23.8397C24.3637 18 24.7989 17.5955 24.837 17.0729L25.6927 5.3632C25.7434 5.3667 25.7945 5.3685 25.8461 5.3685C27.0356 5.3685 28 4.4259 28 3.2632C28 2.10049 27.0356 1.15793 25.8461 1.15793C24.6566 1.15793 23.6923 2.10049 23.6923 3.2632C23.6923 3.8221 23.9151 4.3301 24.2786 4.707L19.6591 8.9619C19.2239 9.3627 18.5377 9.3001 18.1822 8.8272L15.3904 5.1129Z" fill="#F5A623"/>
</svg>
