<svg width="18" height="18" viewBox="0 0 18 18" fill="currentColor" xmlns="http://www.w3.org/2000/svg">
<path fill-rule="evenodd" clip-rule="evenodd" d="M5.22494 3.01943C4.52145 4.20386 4.10333 5.53741 4.01073 6.93248C4.10213 6.93585 4.1938 6.9375 4.28572 6.9375C5.02433 6.9375 5.74153 6.82784 6.42009 6.62249C6.65638 4.90992 7.44742 3.21755 8.59795 1.93981C7.36217 2.00907 6.21109 2.39567 5.22494 3.01943ZM4.13999 3.86331C3.32705 4.63273 2.69664 5.59303 2.32053 6.67254C2.68069 6.77202 3.049 6.84393 3.42312 6.88759C3.49359 5.83585 3.73761 4.81663 4.13999 3.86331ZM9.41745 1.94069C8.21453 3.09069 7.35227 4.72411 7.05197 6.39933C8.90506 5.64803 10.4017 4.16089 11.146 2.26007C10.596 2.08509 10.0167 1.97558 9.41745 1.94069ZM2.05084 10.3162C2.19577 11.0861 2.46547 11.8119 2.83814 12.4719C5.74077 13.0402 8.34419 12.7348 10.9517 10.6684C10.8323 9.98636 10.6183 9.33089 10.3197 8.71847C7.52669 10.2444 5.58966 10.6865 2.05084 10.3162ZM1.9642 9.71431C5.47457 10.1001 7.30992 9.69217 10.0403 8.19961C9.62755 7.50194 9.099 6.87191 8.47138 6.33731C7.24701 7.09514 5.80856 7.52676 4.28572 7.52676C3.55589 7.52676 2.83924 7.42838 2.15015 7.23684C2.00549 7.80045 1.92857 8.39122 1.92857 9C1.92857 9.24111 1.94064 9.47939 1.9642 9.71431ZM3.27233 13.148C3.83782 13.9275 4.55853 14.587 5.38911 15.0813C5.80003 15.1518 6.21899 15.1875 6.64284 15.1875C8.14832 15.1875 9.58527 14.7352 10.7998 13.9033C10.9726 13.274 11.0625 12.6171 11.0625 11.9464C11.0625 11.7446 11.0543 11.5442 11.0382 11.3455C8.52728 13.2228 6.01144 13.5875 3.27233 13.148ZM6.95366 15.7708C7.60142 15.9663 8.28844 16.0714 9 16.0714C9.28174 16.0714 9.55962 16.0549 9.83277 16.0229C10.094 15.6307 10.3162 15.2155 10.4969 14.7826C9.41944 15.3805 8.21178 15.7224 6.95366 15.7708ZM10.8041 4.13527C10.2999 4.85439 9.68138 5.48268 8.97752 5.99659C10.6618 7.49169 11.6518 9.63786 11.6518 11.9464C11.6518 13.3521 11.2859 14.7024 10.6085 15.8877C11.7664 15.6183 12.8151 15.0645 13.6771 14.3039C13.8966 13.4544 14.0089 12.5753 14.0089 11.6812C14.0089 8.80282 12.8384 6.10982 10.8041 4.13527ZM11.1298 3.63109C13.3291 5.72214 14.5982 8.60152 14.5982 11.6812C14.5982 12.2986 14.5474 12.9094 14.4475 13.5092C15.4617 12.2852 16.0714 10.7138 16.0714 9C16.0714 6.05062 14.2658 3.52301 11.6997 2.4622C11.5407 2.87034 11.3497 3.26088 11.1298 3.63109ZM9 17.25C4.44365 17.25 0.75 13.5563 0.75 9C0.75 4.44365 4.44365 0.75 9 0.75C13.5563 0.75 17.25 4.44365 17.25 9C17.25 13.5563 13.5563 17.25 9 17.25Z" fill="currentColor"/>
</svg>
