<svg width="15" height="16" viewBox="0 0 15 16" fill="currentColor" xmlns="http://www.w3.org/2000/svg">
<g clip-path="url(#clip0_1_4532)">
<path fill-rule="evenodd" clip-rule="evenodd" d="M3.08838 2.815C3.08838 1.5877 4.07598 0.592773 5.29426 0.592773H12.6473C13.8655 0.592773 14.8532 1.58769 14.8532 2.815V10.2224C14.8532 11.4497 13.8655 12.4447 12.6473 12.4447H5.29429C4.07601 12.4447 3.08841 11.4497 3.08841 10.2224L3.08838 2.815ZM9.53998 4.22479C9.53998 3.90806 9.28515 3.65131 8.97068 3.65131C8.65632 3.65131 8.40146 3.90806 8.40146 4.22479V5.94521H6.69372C6.37933 5.94521 6.12446 6.20197 6.12446 6.51869C6.12446 6.83542 6.37933 7.09216 6.69372 7.09216H8.40146V8.8126C8.40146 9.12928 8.65632 9.38608 8.97068 9.38608C9.28515 9.38608 9.53998 9.12928 9.53998 8.8126V7.09216H11.2478C11.5622 7.09216 11.8171 6.83542 11.8171 6.51869C11.8171 6.20197 11.5622 5.94521 11.2478 5.94521H9.53998V4.22479Z" fill="currentColor"/>
<path d="M1.61754 4.66686C1.61754 4.40414 1.64772 4.14851 1.70475 3.90332C0.777768 4.40196 0.146963 5.38614 0.146973 6.51874L0.146991 12.4445C0.146973 14.0809 1.4638 15.4076 3.08821 15.4076H8.97045C10.0947 15.4076 11.0717 14.7721 11.5667 13.8383C11.3232 13.8957 11.0695 13.9261 10.8087 13.9261H4.92636C3.09896 13.9261 1.61754 12.4337 1.61754 10.5928V4.66686Z" fill="currentColor"/>
</g>
<defs>
<clipPath id="clip0_1_4532">
<rect width="15" height="16" fill="currentColor"/>
</clipPath>
</defs>
</svg>
