<svg width="161" height="161" viewBox="0 0 161 161" fill="none" xmlns="http://www.w3.org/2000/svg">
<circle cx="80.5547" cy="80.9688" r="80" fill="#90D027"/>
<path d="M160.555 80.9688C160.555 125.152 124.737 160.969 80.5547 160.969C36.3719 160.969 0.554688 125.152 0.554688 80.9688C0.554688 36.786 36.3719 0.96875 80.5547 0.96875C124.737 0.96875 160.555 36.786 160.555 80.9688ZM20.5431 80.9688C20.5431 114.112 47.4112 140.98 80.5547 140.98C113.698 140.98 140.566 114.112 140.566 80.9688C140.566 47.8252 113.698 20.9571 80.5547 20.9571C47.4112 20.9571 20.5431 47.8252 20.5431 80.9688Z" fill="#A3E635"/>
<mask id="mask0_2152_407" style="mask-type:alpha" maskUnits="userSpaceOnUse" x="-9" y="-10" width="181" height="181">
<path d="M171.191 49.5561L171.191 110.844L81.1914 80.2002L171.191 49.5561Z" fill="#BCCF20"/>
<path d="M-8.80859 49.5561L81.1914 80.2002L-8.80859 110.844L-8.80859 49.5561Z" fill="#BCCF20"/>
<path d="M111.835 170.2L50.5474 170.2L81.1914 80.2002L111.835 170.2Z" fill="#BCCF20"/>
<path d="M111.835 -9.79984L81.1914 80.2002L50.5474 -9.79984L111.835 -9.79984Z" fill="#BCCF20"/>
</mask>
<g mask="url(#mask0_2152_407)">
<path d="M160.559 80.9688C160.559 125.152 124.741 160.969 80.5586 160.969C36.3758 160.969 0.558594 125.152 0.558594 80.9688C0.558594 36.786 36.3758 0.96875 80.5586 0.96875C124.741 0.96875 160.559 36.786 160.559 80.9688ZM20.547 80.9688C20.547 114.112 47.4151 140.98 80.5586 140.98C113.702 140.98 140.57 114.112 140.57 80.9688C140.57 47.8252 113.702 20.9571 80.5586 20.9571C47.4151 20.9571 20.547 47.8252 20.547 80.9688Z" fill="#2F2F2F"/>
</g>
<path d="M84.5547 32.9688C84.5547 35.1779 82.7638 36.9688 80.5547 36.9688C78.3455 36.9688 76.5547 35.1779 76.5547 32.9688C76.5547 30.7596 78.3455 28.9688 80.5547 28.9688C82.7638 28.9688 84.5547 30.7596 84.5547 32.9688Z" fill="#2F2F2F"/>
<path d="M84.5547 128.969C84.5547 131.178 82.7638 132.969 80.5547 132.969C78.3455 132.969 76.5547 131.178 76.5547 128.969C76.5547 126.76 78.3455 124.969 80.5547 124.969C82.7638 124.969 84.5547 126.76 84.5547 128.969Z" fill="#2F2F2F"/>
<path d="M128.555 84.9688C126.346 84.9687 124.555 83.1779 124.555 80.9688C124.555 78.7596 126.346 76.9687 128.555 76.9688C130.764 76.9688 132.555 78.7596 132.555 80.9688C132.555 83.1779 130.764 84.9688 128.555 84.9688Z" fill="#2F2F2F"/>
<path d="M32.5547 84.9687C30.3455 84.9687 28.5547 83.1779 28.5547 80.9687C28.5547 78.7596 30.3455 76.9687 32.5547 76.9687C34.7638 76.9687 36.5547 78.7596 36.5547 80.9687C36.5547 83.1779 34.7638 84.9687 32.5547 84.9687Z" fill="#2F2F2F"/>
<path d="M111.069 117.797C109.507 116.235 109.507 113.702 111.069 112.14C112.632 110.578 115.164 110.578 116.726 112.14C118.288 113.702 118.288 116.235 116.726 117.797C115.164 119.359 112.632 119.359 111.069 117.797Z" fill="#2F2F2F"/>
<path d="M43.1872 49.9149C41.6251 48.3528 41.6251 45.8202 43.1872 44.2581C44.7493 42.696 47.2819 42.696 48.844 44.2581C50.4061 45.8202 50.4061 48.3528 48.844 49.9149C47.2819 51.477 44.7493 51.477 43.1872 49.9149Z" fill="#2F2F2F"/>
<path d="M43.7263 111.483C45.2884 109.921 47.821 109.921 49.3831 111.483C50.9452 113.046 50.9452 115.578 49.3831 117.14C47.821 118.702 45.2884 118.702 43.7263 117.14C42.1642 115.578 42.1642 113.046 43.7263 111.483Z" fill="#2F2F2F"/>
<path d="M111.609 43.6012C113.171 42.0391 115.703 42.0391 117.265 43.6012C118.827 45.1633 118.827 47.696 117.265 49.2581C115.703 50.8202 113.171 50.8202 111.609 49.2581C110.046 47.696 110.046 45.1633 111.609 43.6012Z" fill="#2F2F2F"/>
<rect x="81.4453" y="42.9688" width="53" height="53" rx="11" transform="rotate(45 81.4453 42.9688)" fill="#2F2F2F"/>
<path d="M85.9617 67.9688H92.9688V93.9687H85.9617V83.9555H75.9758V93.9687H68.9688V67.9688H75.9758V77.982H85.9617V67.9688Z" fill="#C8C8C8"/>
</svg>
