<svg width="161" height="161" viewBox="0 0 161 161" fill="none" xmlns="http://www.w3.org/2000/svg">
<path d="M160.586 81C160.586 125.183 124.769 161 80.5859 161C36.4032 161 0.585938 125.183 0.585938 81C0.585938 36.8172 36.4032 1 80.5859 1C124.769 1 160.586 36.8172 160.586 81Z" fill="#A7A7A7"/>
<path d="M160.586 81C160.586 125.183 124.769 161 80.5859 161C36.4032 161 0.585938 125.183 0.585938 81C0.585938 36.8172 36.4032 1 80.5859 1C124.769 1 160.586 36.8172 160.586 81ZM20.5743 81C20.5743 114.144 47.4424 141.012 80.5859 141.012C113.729 141.012 140.598 114.144 140.598 81C140.598 47.8565 113.729 20.9884 80.5859 20.9884C47.4424 20.9884 20.5743 47.8565 20.5743 81Z" fill="#2F2F2F"/>
<mask id="mask0_2152_417" style="mask-type:alpha" maskUnits="userSpaceOnUse" x="-9" y="-10" width="181" height="181">
<path d="M171.227 49.5825V110.871L81.2266 80.2266L171.227 49.5825Z" fill="#DDDDDD"/>
<path d="M-8.77344 49.5825L81.2266 80.2266L-8.77344 110.871V49.5825Z" fill="#DDDDDD"/>
<path d="M111.871 170.227L50.5825 170.227L81.2266 80.2266L111.871 170.227Z" fill="#DDDDDD"/>
<path d="M111.871 -9.77344L81.2266 80.2266L50.5825 -9.77344H111.871Z" fill="#DDDDDD"/>
</mask>
<g mask="url(#mask0_2152_417)">
<path d="M160.586 80.999C160.586 125.182 124.769 160.999 80.5859 160.999C36.4032 160.999 0.585938 125.182 0.585938 80.999C0.585938 36.8162 36.4032 0.999023 80.5859 0.999023C124.769 0.999023 160.586 36.8162 160.586 80.999ZM20.5743 80.999C20.5743 114.143 47.4424 141.011 80.5859 141.011C113.729 141.011 140.598 114.143 140.598 80.999C140.598 47.8555 113.729 20.9874 80.5859 20.9874C47.4424 20.9874 20.5743 47.8555 20.5743 80.999Z" fill="#C8C8C8"/>
</g>
<path d="M84.5859 33C84.5859 35.2091 82.7951 37 80.5859 37C78.3768 37 76.5859 35.2091 76.5859 33C76.5859 30.7909 78.3768 29 80.5859 29C82.7951 29 84.5859 30.7909 84.5859 33Z" fill="#3B3B3B"/>
<path d="M84.5859 129C84.5859 131.209 82.7951 133 80.5859 133C78.3768 133 76.5859 131.209 76.5859 129C76.5859 126.791 78.3768 125 80.5859 125C82.7951 125 84.5859 126.791 84.5859 129Z" fill="#3B3B3B"/>
<path d="M128.586 85C126.377 85 124.586 83.2091 124.586 81C124.586 78.7909 126.377 77 128.586 77C130.795 77 132.586 78.7909 132.586 81C132.586 83.2091 130.795 85 128.586 85Z" fill="#3B3B3B"/>
<path d="M32.5859 85C30.3768 85 28.5859 83.2091 28.5859 81C28.5859 78.7909 30.3768 77 32.5859 77C34.7951 77 36.5859 78.7909 36.5859 81C36.5859 83.2091 34.7951 85 32.5859 85Z" fill="#3B3B3B"/>
<path d="M111.101 117.828C109.539 116.266 109.539 113.734 111.101 112.172C112.663 110.609 115.195 110.609 116.758 112.172C118.32 113.734 118.32 116.266 116.758 117.828C115.195 119.391 112.663 119.391 111.101 117.828Z" fill="#3B3B3B"/>
<path d="M43.2184 49.9462C41.6563 48.3841 41.6563 45.8514 43.2184 44.2893C44.7805 42.7272 47.3132 42.7272 48.8753 44.2893C50.4374 45.8514 50.4374 48.3841 48.8753 49.9462C47.3132 51.5083 44.7805 51.5083 43.2184 49.9462Z" fill="#3B3B3B"/>
<path d="M43.7575 111.515C45.3196 109.953 47.8523 109.953 49.4144 111.515C50.9765 113.077 50.9765 115.609 49.4144 117.172C47.8523 118.734 45.3196 118.734 43.7575 117.172C42.1954 115.609 42.1954 113.077 43.7575 111.515Z" fill="#3B3B3B"/>
<path d="M111.64 43.6325C113.202 42.0704 115.735 42.0704 117.297 43.6325C118.859 45.1946 118.859 47.7272 117.297 49.2893C115.735 50.8514 113.202 50.8514 111.64 49.2893C110.078 47.7272 110.078 45.1946 111.64 43.6325Z" fill="#3B3B3B"/>
<rect x="81.4766" y="43" width="53" height="53" rx="11" transform="rotate(45 81.4766 43)" fill="#2F2F2F"/>
<path d="M93 68V73.7437H84.5035V93H77.5303V73.7437H69V68H93Z" fill="#C8C8C8"/>
</svg>
