<svg width="32" height="32" viewBox="0 0 32 32" fill="none" xmlns="http://www.w3.org/2000/svg">
<g clip-path="url(#clip0_916_46543)">
<path d="M16 32C24.8366 32 32 24.8366 32 16C32 7.16344 24.8366 0 16 0C7.16344 0 0 7.16344 0 16C0 24.8366 7.16344 32 16 32Z" fill="#3E73C4"/>
<path d="M20.0221 18.1243C20.0221 16.0003 18.7421 15.2723 16.1821 14.9683C14.3541 14.7253 13.9891 14.2403 13.9891 13.3903C13.9891 12.5403 14.5991 11.9943 15.8171 11.9943C16.9141 11.9943 17.5241 12.3582 17.8281 13.2692C17.8597 13.3573 17.9176 13.4336 17.994 13.4878C18.0703 13.542 18.1614 13.5714 18.2551 13.5722H19.2301C19.2864 13.5738 19.3424 13.5638 19.3948 13.543C19.4471 13.5222 19.4947 13.491 19.5346 13.4512C19.5746 13.4115 19.606 13.3641 19.627 13.3118C19.6481 13.2596 19.6583 13.2036 19.6571 13.1473V13.0872C19.5379 12.4281 19.2044 11.8269 18.7084 11.3768C18.2124 10.9267 17.5816 10.653 16.9141 10.5982V9.14225C16.9141 8.89925 16.7311 8.71725 16.4271 8.65625H15.5121C15.2691 8.65625 15.0861 8.83825 15.0251 9.14225V10.5382C13.1961 10.7803 12.0391 11.9942 12.0391 13.5122C12.0391 15.5142 13.2571 16.3033 15.8171 16.6073C17.5241 16.9103 18.0721 17.2753 18.0721 18.2463C18.0721 19.2163 17.2191 19.8843 16.0611 19.8843C14.4761 19.8843 13.9281 19.2172 13.7451 18.3062C13.6851 18.0642 13.5011 17.9422 13.3181 17.9422H12.2821C12.2258 17.9409 12.1699 17.9509 12.1177 17.9718C12.0654 17.9927 12.018 18.0239 11.9781 18.0636C11.9383 18.1034 11.907 18.1507 11.886 18.2029C11.865 18.2551 11.8548 18.311 11.8561 18.3673V18.4272C12.0991 19.9452 13.0751 21.0372 15.0861 21.3412V22.7983C15.0861 23.0402 15.2691 23.2233 15.5731 23.2833H16.4881C16.7311 23.2833 16.9141 23.1013 16.9751 22.7983V21.3403C18.8041 21.0372 20.0221 19.7622 20.0221 18.1232V18.1243Z" fill="white"/>
<path d="M12.892 24.497C8.13804 22.797 5.70004 17.517 7.46804 12.844C8.38204 10.294 10.393 8.353 12.892 7.442C13.136 7.321 13.257 7.139 13.257 6.835V5.985C13.257 5.743 13.136 5.561 12.892 5.5C12.831 5.5 12.709 5.5 12.648 5.56C11.2765 5.98832 10.0032 6.68373 8.90146 7.60617C7.79975 8.52862 6.8914 9.65988 6.22869 10.9348C5.56598 12.2098 5.16201 13.6032 5.04005 15.0349C4.91809 16.4666 5.08054 17.9083 5.51804 19.277C6.61404 22.677 9.23504 25.287 12.648 26.379C12.892 26.5 13.136 26.379 13.196 26.136C13.257 26.076 13.257 26.014 13.257 25.893V25.043C13.257 24.861 13.075 24.619 12.892 24.497ZM19.352 5.561C19.108 5.439 18.864 5.561 18.804 5.803C18.743 5.864 18.743 5.925 18.743 6.046V6.896C18.743 7.139 18.925 7.381 19.108 7.503C23.862 9.203 26.3 14.483 24.532 19.156C23.618 21.706 21.607 23.647 19.108 24.558C18.864 24.679 18.743 24.861 18.743 25.165V26.015C18.743 26.257 18.864 26.439 19.108 26.5C19.169 26.5 19.291 26.5 19.352 26.44C20.7236 26.0117 21.9969 25.3163 23.0986 24.3938C24.2003 23.4714 25.1087 22.3401 25.7714 21.0652C26.4341 19.7902 26.8381 18.3968 26.96 16.9651C27.082 15.5334 26.9195 14.0917 26.482 12.723C25.386 9.263 22.704 6.653 19.352 5.561Z" fill="white"/>
</g>
<defs>
<clipPath id="clip0_916_46543">
<rect width="32" height="32" fill="white"/>
</clipPath>
</defs>
</svg>
