<svg width="32" height="32" viewBox="0 0 32 32" fill="none" xmlns="http://www.w3.org/2000/svg">
<g clip-path="url(#clip0_916_46527)">
<path d="M16 32C24.8366 32 32 24.8366 32 16C32 7.16344 24.8366 0 16 0C7.16344 0 0 7.16344 0 16C0 24.8366 7.16344 32 16 32Z" fill="#26A17B"/>
<path fill-rule="evenodd" clip-rule="evenodd" d="M17.922 17.3824V17.3804C17.812 17.3884 17.245 17.4224 15.98 17.4224C14.97 17.4224 14.259 17.3924 14.009 17.3804V17.3834C10.121 17.2124 7.21905 16.5354 7.21905 15.7254C7.21905 14.9164 10.121 14.2394 14.009 14.0654V16.7094C14.263 16.7274 14.991 16.7704 15.997 16.7704C17.204 16.7704 17.809 16.7204 17.922 16.7104V14.0674C21.802 14.2404 24.697 14.9174 24.697 15.7254C24.697 16.5354 21.802 17.2104 17.922 17.3824ZM17.922 13.7924V11.4264H23.336V7.81836H8.59505V11.4264H14.009V13.7914C9.60905 13.9934 6.30005 14.8654 6.30005 15.9094C6.30005 16.9534 9.60905 17.8244 14.009 18.0274V25.6094H17.922V18.0254C22.3151 17.8234 25.616 16.9524 25.616 15.9094C25.616 14.8664 22.3151 13.9954 17.922 13.7924Z" fill="white"/>
</g>
<defs>
<clipPath id="clip0_916_46527">
<rect width="32" height="32" fill="white"/>
</clipPath>
</defs>
</svg>
