<svg width="18" height="18" viewBox="0 0 18 18" fill="currentColor" xmlns="http://www.w3.org/2000/svg">
<g id="Frame">
<g id="Group">
<g id="Group_2">
<g id="Group_3">
<path id="Vector" d="M11.8126 4.72323H6.22435C3.4852 7.46421 0.0786159 11.7721 1.82927 14.9148C3.21269 17.3985 6.34028 18.0407 9.37468 17.998C12.4091 17.9554 15.3502 17.2272 16.3601 14.9148C17.6515 11.9584 14.3574 7.53198 11.8126 4.72323ZM9.45409 14.8481V15.9732H8.46528V14.925C7.78925 14.8923 7.13353 14.6934 6.74998 14.4508L7.05254 13.1607C7.47646 13.4142 8.07177 13.6457 8.72762 13.6457C9.30261 13.6457 9.69625 13.4034 9.69625 12.9619C9.69625 12.5433 9.37337 12.2783 8.62672 12.0024C7.54695 11.6053 6.81065 11.0538 6.81065 9.98411C6.81065 9.01342 7.4361 8.25242 8.51586 8.02082V6.97323H9.50454V7.94362C10.1806 7.97685 10.6349 8.13141 10.9677 8.30787L10.6751 9.55398C10.4128 9.43251 9.9485 9.179 9.22216 9.179C8.56631 9.179 8.35429 9.48766 8.35429 9.79677C8.35429 10.1607 8.70744 10.3923 9.56509 10.7451C10.7658 11.2085 11.25 11.815 11.25 12.8076C11.2501 13.7894 10.6146 14.6277 9.45409 14.8481Z" fill="currentColor"/>
<path id="Vector_2" d="M13.4646 0.471942C12.6978 0.00294496 11.7542 1.69419 11.0807 1.66803C10.4069 1.64188 9.87539 -0.0268949 9.10616 0.000329505C8.33693 0.0275539 8.0326 1.5463 7.41536 1.6886C6.79811 1.8309 5.25952 -0.103575 4.64228 0.575846C4.14226 1.1264 5.67224 3.32646 6.27111 4.14212H6.81825H11.2759H11.7884C12.416 3.27808 14.0927 0.856056 13.4646 0.471942Z" fill="currentColor"/>
</g>
</g>
</g>
</g>
</svg>
