<svg width="30" height="28" viewBox="0 0 30 28" fill="currentColor" xmlns="http://www.w3.org/2000/svg">
<g id="Frame" clip-path="url(#clip0_1_2471)">
<path id="Vector" fill-rule="evenodd" clip-rule="evenodd" d="M13.1484 27.9998C13.7658 27.9903 14.383 27.9863 15 27.9848C15.6169 27.9863 16.2342 27.9903 16.8515 27.9998C17.0902 28.0033 17.2853 27.9542 17.4718 27.8188C17.7613 27.6098 18.0535 27.4039 18.3458 27.198C19.0768 26.6833 19.8078 26.1685 20.4958 25.6019C20.953 25.2264 21.3347 25.1993 21.8523 25.3482C22.6475 25.5773 23.4458 25.7946 24.2442 26.0118C25.2077 26.2742 26.171 26.5364 27.129 26.8194C27.6348 26.9683 27.855 26.948 28.0115 26.3696C28.3793 25.0126 28.7853 23.6658 29.1915 22.3188C29.331 21.8563 29.4705 21.3938 29.6083 20.931C29.7327 20.5133 29.6907 20.1175 29.5545 19.7031C29.3337 19.0326 29.121 18.3591 28.9085 17.6856C28.5853 16.6625 28.2623 15.6392 27.9105 14.6264C27.724 14.0886 27.766 13.7403 28.129 13.2854C28.199 13.1978 28.3092 13.1141 28.4238 13.027C28.783 12.7541 29.1877 12.4466 28.5493 11.875C28.5375 11.8665 28.672 11.6298 28.778 11.5621C29.3663 11.1833 29.3142 10.8265 28.6687 10.4527C28.8465 10.3043 29.005 10.1711 29.171 10.0315L29.1805 10.0235C29.2877 9.93344 29.3982 9.84057 29.5192 9.73908C28.867 9.36027 29.0015 8.81741 29.1528 8.23735C29.276 7.7672 29.364 7.28857 29.452 6.80986C29.5895 6.06086 29.7272 5.31172 30 4.59468V4.25646C29.5863 3.45714 29.3253 2.60278 29.0645 1.74839C28.9373 1.33199 28.8102 0.915585 28.6653 0.505535C28.5173 0.0878278 28.4082 -0.126943 27.8652 0.0793741C26.3403 0.659708 24.8072 1.21859 23.2738 1.77756L23.2713 1.77844C22.0485 2.22419 20.8257 2.67 19.6067 3.12678C19.0755 3.32633 18.556 3.43626 17.993 3.42442C17.7495 3.41977 17.5053 3.41081 17.261 3.40184C16.5264 3.37487 15.7899 3.34784 15.0697 3.43796L15.0319 3.4426L14.9998 3.44639C14.9766 3.44365 14.9534 3.44084 14.9303 3.43796C14.21 3.34784 13.4736 3.37487 12.739 3.40184C12.4946 3.41081 12.2504 3.41977 12.0071 3.42442C11.4439 3.43626 10.9246 3.32633 10.3933 3.12678C9.1744 2.67 7.95145 2.22419 6.72865 1.77844L6.7262 1.77756C5.19282 1.21859 3.65968 0.659708 2.13485 0.0793741C1.5919 -0.126943 1.48265 0.0878278 1.33467 0.505535C1.18984 0.915486 1.06274 1.3318 0.935645 1.74809C0.67472 2.60248 0.413672 3.45714 0 4.25646V4.59468C0.272827 5.31172 0.410472 6.06086 0.548033 6.80986C0.63602 7.28857 0.724008 7.7672 0.847207 8.23735C0.998477 8.81741 1.133 9.36027 0.480812 9.73908C0.601877 9.84057 0.712353 9.93344 0.819465 10.0235L0.829068 10.0315C0.995028 10.1711 1.1534 10.3043 1.3313 10.4527C0.685842 10.8265 0.633722 11.1833 1.22206 11.5621C1.32794 11.6298 1.46246 11.8665 1.45072 11.875C0.812407 12.4466 1.21705 12.7541 1.57622 13.027C1.69088 13.1141 1.80095 13.1978 1.87097 13.2854C2.234 13.7403 2.27602 14.0886 2.08945 14.6264C1.73767 15.6392 1.41461 16.6625 1.09155 17.6856C0.87897 18.3591 0.666307 19.0326 0.445437 19.7031C0.309352 20.1175 0.267327 20.5133 0.391675 20.931C0.529565 21.3938 0.669017 21.8563 0.808467 22.3188C1.21467 23.6658 1.62071 25.0126 1.98858 26.3696C2.14493 26.948 2.36515 26.9683 2.87108 26.8194C3.82893 26.5364 4.79235 26.2742 5.75587 26.0118C6.55415 25.7946 7.35245 25.5773 8.14762 25.3482C8.66537 25.1993 9.04693 25.2264 9.50412 25.6019C10.1922 26.1685 10.9231 26.6833 11.6541 27.198C11.9464 27.4039 12.2387 27.6098 12.5282 27.8188C12.7148 27.9542 12.9098 28.0033 13.1484 27.9998ZM16.3036 22.7543C16.791 22.7493 17.0852 22.9264 17.1475 23.449C17.2358 24.1941 17.4583 25.4788 17.4583 25.4788H12.5416C12.5416 25.4788 12.7642 24.1941 12.8526 23.449C12.9148 22.9264 13.2089 22.7493 13.6964 22.7543H16.3036ZM1.06914 4.456C1.15319 4.2038 1.24216 3.94466 1.33294 3.68009C1.55266 3.03991 1.78322 2.36801 1.98185 1.68595C2.1231 1.20228 2.31977 1.1803 2.76348 1.31728C3.86977 1.66071 4.75755 2.34156 5.64728 3.0239C5.81332 3.15125 5.9797 3.27887 6.1473 3.40412C8.15098 4.90245 10.1614 6.39233 12.1785 7.87546C12.6206 8.20015 12.8778 8.41324 12.2541 8.88168C11.6261 9.35335 11.0358 9.87697 10.4457 10.4006C10.1386 10.6729 9.8316 10.9453 9.5193 11.2104C8.97127 11.6754 8.42495 12.1185 7.687 12.3011C6.842 12.5096 6.00727 12.7577 5.17253 13.0059C4.78842 13.1201 4.4043 13.2342 4.01918 13.3446C3.34845 13.5373 2.4895 12.8964 2.40882 12.2115C2.26255 10.9736 2.09783 9.7357 1.88433 8.50793C1.72355 7.58546 1.53157 6.66794 1.33188 5.71388L1.33089 5.70917C1.24495 5.29875 1.15763 4.88157 1.07079 4.45431L1.06914 4.456ZM12.4592 18.5177L8.01063 17.6907L11.5095 15.2267L12.4592 18.5177ZM28.673 3.69699L28.667 3.68009C28.4473 3.03991 28.2168 2.36801 28.0182 1.68595C27.8768 1.20228 27.6802 1.1803 27.2365 1.31728C26.1302 1.66075 25.2423 2.34171 24.3525 3.02412C24.1865 3.15147 24.0203 3.27887 23.8527 3.40412C21.849 4.90245 19.8387 6.39233 17.8215 7.87546C17.3793 8.20015 17.1222 8.41324 17.7458 8.88168C18.374 9.35335 18.9642 9.87697 19.5543 10.4006C19.8613 10.6729 20.1683 10.9453 20.4807 11.2104C21.0287 11.6754 21.575 12.1185 22.313 12.3011C23.158 12.5096 23.9927 12.7577 24.8275 13.0059C25.2117 13.1201 25.5957 13.2342 25.9808 13.3446C26.6515 13.5373 27.5105 12.8964 27.5912 12.2115C27.7375 10.9736 27.9022 9.7357 28.1157 8.50793C28.2765 7.58546 28.4685 6.66794 28.6682 5.71388L28.6692 5.70917C28.755 5.29875 28.8423 4.88157 28.9292 4.45431L28.9308 4.456C28.8487 4.20917 28.7617 3.95569 28.673 3.69699ZM17.5408 18.5177L21.9893 17.6907L18.4905 15.2267L17.5408 18.5177Z" fill="currentColor"/>
</g>
<defs>
<clipPath id="clip0_1_2471">
<rect width="30" height="28" fill="currentColor"/>
</clipPath>
</defs>
</svg>
