<svg width="18" height="15" viewBox="0 0 18 15" fill="currentColor" xmlns="http://www.w3.org/2000/svg">
<g id="Frame" clip-path="url(#clip0_1_2537)">
<path id="Vector" d="M4.52394 6.096V3.58686L0.163696 7.11258L4.52394 10.6383V8.18661C4.52955 8.18686 4.53519 8.18698 4.54086 8.18698H11.4894C11.7055 8.18698 11.8808 8.00504 11.8808 7.78127V6.50134C11.8808 6.27727 11.7047 6.09563 11.4894 6.09563H4.54086C4.53519 6.09563 4.52955 6.09575 4.52394 6.096ZM5.82033 4.26812C6.83887 2.04027 9.02427 0.5 11.5559 0.5C15.0609 0.5 17.9022 3.45233 17.9022 7.0942C17.9022 10.7361 15.0609 13.6884 11.5559 13.6884C9.02427 13.6884 6.83887 12.1481 5.82033 9.92029H7.92911C8.75613 11.0643 10.0728 11.8043 11.5559 11.8043C14.0594 11.8043 16.089 9.69555 16.089 7.0942C16.089 4.49286 14.0594 2.38406 11.5559 2.38406C10.0728 2.38406 8.75613 3.12407 7.92911 4.26812H5.82033Z" fill="currentColor"/>
</g>
<defs>
<clipPath id="clip0_1_2537">
<rect width="18" height="14" fill="currentColor" transform="translate(0 0.5)"/>
</clipPath>
</defs>
</svg>
