<svg width="17" height="17" viewBox="0 0 17 17" fill="currentColor" xmlns="http://www.w3.org/2000/svg">
<g id="Frame">
<path id="Vector" d="M2.83301 7.08326H14.1663V12.7499C14.1663 13.5323 13.532 14.1666 12.7497 14.1666H4.24967C3.46727 14.1666 2.83301 13.5323 2.83301 12.7499V7.08326Z" fill="black"/>
<path id="Vector_2" d="M2.83301 5.66674H14.1663V4.9584C14.1663 4.176 13.532 3.54174 12.7497 3.54174H4.24967C3.46727 3.54174 2.83301 4.176 2.83301 4.9584V5.66674Z" fill="black"/>
<path id="Vector_3" d="M9.91699 2.47917C9.91699 2.28357 10.0755 2.125 10.2712 2.125H11.6878C11.8834 2.125 12.042 2.28357 12.042 2.47917V3.54167H9.91699V2.47917Z" fill="black"/>
<path id="Vector_4" d="M4.95801 2.47917C4.95801 2.28357 5.11658 2.125 5.31217 2.125H6.72884C6.92444 2.125 7.08301 2.28357 7.08301 2.47917V3.54167H4.95801V2.47917Z" fill="black"/>
</g>
</svg>
