<svg width="130" height="32" viewBox="0 0 130 32" fill="currentColor" xmlns="http://www.w3.org/2000/svg">
<path d="M0 8C0 3.58172 3.58172 0 8 0H122C126.418 0 130 3.58172 130 8V24C130 28.4183 126.418 32 122 32H8C3.58172 32 0 28.4183 0 24V8Z" fill="currentColor"/>
<g clip-path="url(#clip0_1_2711)">
<path fill-rule="evenodd" clip-rule="evenodd" d="M36.7821 6.59258V25.4049C31.8106 25.4049 27.6019 21.0999 27.6019 16C27.6019 10.9003 31.8106 6.59258 36.7821 6.59258Z" fill="#5F70DB"/>
<path d="M71.197 16.961L69.1055 11.5341H65.3485L69.3959 20.6761L67.7111 25.1111H71.0226L76.4453 11.5341H73.1337L71.197 16.961Z" fill="black"/>
<path d="M102.709 14.5489C102.477 12.1175 100.734 11.2617 98.2358 11.2617C95.8926 11.2617 93.898 12.351 93.898 14.6073C93.898 16.7275 95.0406 17.5251 97.7517 17.8753C99.1461 18.0697 99.6304 18.303 99.6304 18.7895C99.6304 19.2952 99.243 19.6258 98.3908 19.6258C97.4033 19.6258 97.0739 19.2173 96.9578 18.4782H93.7623C93.8398 20.7344 95.5248 21.9404 98.4101 21.9404C101.218 21.9404 103 20.8513 103 18.4393C103 16.2608 101.644 15.5216 98.8363 15.1714C97.5969 15.0158 97.1321 14.8213 97.1321 14.3351C97.1321 13.8682 97.5193 13.5375 98.2748 13.5375C99.0686 13.5375 99.4367 13.8682 99.5721 14.5489H102.709Z" fill="black"/>
<path d="M92.7365 21.7071V11.5341H89.27V21.7071H92.7365Z" fill="black"/>
<path d="M92.9109 8.77187C92.9109 7.74108 92.0783 6.96296 90.9938 6.96296C89.9091 6.96296 89.0959 7.74108 89.0959 8.77187C89.0959 9.80286 89.9091 10.5615 90.9938 10.5615C92.0783 10.5615 92.9109 9.80286 92.9109 8.77187Z" fill="black"/>
<path fill-rule="evenodd" clip-rule="evenodd" d="M50.1775 11.2617C52.5403 11.2617 54.4574 13.0513 54.4574 16.533V16.6886C54.4574 20.1899 52.5403 21.9404 50.1581 21.9404C48.6283 21.9404 47.5244 21.2209 47.0209 20.2094V25.1111H43.5544V11.5341H47.0209V13.0513C47.6019 12.0787 48.6477 11.2617 50.1775 11.2617ZM46.924 16.5137C46.924 14.8018 47.6794 13.8876 48.9381 13.8876C50.1581 13.8876 50.9329 14.7436 50.9329 16.533V16.6886C50.9329 18.3614 50.2357 19.2756 48.9381 19.2756C47.6794 19.2756 46.924 18.4003 46.924 16.6691V16.5137Z" fill="black"/>
<path fill-rule="evenodd" clip-rule="evenodd" d="M60.5172 11.2617C63.3059 11.2617 65.0874 12.4094 65.0874 15.113V21.7071H61.7179V20.5204C61.2337 21.2597 60.3429 21.9404 58.7162 21.9404C56.8957 21.9404 55.2883 21.0457 55.2883 18.8867C55.2883 16.4941 57.3025 15.5604 60.672 15.5604H61.6403V15.327C61.6403 14.3544 61.4079 13.7126 60.3042 13.7126C59.3552 13.7126 59.0066 14.2767 58.9292 14.9186H55.6755C55.8305 12.4676 57.7476 11.2617 60.5172 11.2617ZM60.7301 17.5251H61.6403V18.1474C61.6403 19.0228 60.9044 19.5869 59.9168 19.5869C59.1033 19.5869 58.7162 19.2173 58.7162 18.6339C58.7162 17.7973 59.3357 17.5251 60.7301 17.5251Z" fill="black"/>
<path fill-rule="evenodd" clip-rule="evenodd" d="M80.7937 7.06019V13.0513C81.3746 12.0787 82.4204 11.2617 83.9504 11.2617C86.3131 11.2617 88.2302 13.0513 88.2302 16.533V16.6886C88.2302 20.1899 86.3131 21.9404 83.9311 21.9404C82.4204 21.9404 81.2972 21.2209 80.7937 20.1315V21.7071H77.3271V7.06019H80.7937ZM80.697 16.5137C80.697 14.8018 81.4521 13.8876 82.7109 13.8876C83.9311 13.8876 84.7056 14.7436 84.7056 16.533V16.6886C84.7056 18.3614 84.0085 19.2756 82.7109 19.2756C81.4521 19.2756 80.697 18.4003 80.697 16.6691V16.5137Z" fill="black"/>
</g>
<defs>
<clipPath id="clip0_1_2711">
<rect width="76" height="20" fill="currentColor" transform="translate(27 6)"/>
</clipPath>
</defs>
</svg>
