<svg width="15" height="17" viewBox="0 0 15 17" fill="currentColor" xmlns="http://www.w3.org/2000/svg">
<g id="Frame">
<path id="Vector" fill-rule="evenodd" clip-rule="evenodd" d="M3.08813 3.31479C3.08813 2.08749 4.07573 1.09256 5.29402 1.09256H12.647C13.8653 1.09256 14.8529 2.08748 14.8529 3.31479V10.7222C14.8529 11.9495 13.8653 12.9444 12.647 12.9444H5.29404C4.07577 12.9444 3.08816 11.9495 3.08816 10.7222L3.08813 3.31479ZM9.53973 4.72457C9.53973 4.40784 9.28491 4.1511 8.97044 4.1511C8.65607 4.1511 8.40121 4.40784 8.40121 4.72457V6.445H6.69347C6.37908 6.445 6.12421 6.70175 6.12421 7.01847C6.12421 7.3352 6.37908 7.59195 6.69347 7.59195H8.40121V9.31238C8.40121 9.62907 8.65607 9.88587 8.97044 9.88587C9.28491 9.88587 9.53973 9.62907 9.53973 9.31238V7.59195H11.2475C11.5619 7.59195 11.8168 7.3352 11.8168 7.01847C11.8168 6.70175 11.5619 6.445 11.2475 6.445H9.53973V4.72457Z" fill="black"/>
<path id="Vector_2" d="M1.61754 5.16661C1.61754 4.90389 1.64772 4.64827 1.70475 4.40308C0.777768 4.90172 0.146963 5.88589 0.146973 7.0185L0.146991 12.9443C0.146973 14.5807 1.4638 15.9074 3.08821 15.9074H8.97045C10.0947 15.9074 11.0717 15.2719 11.5667 14.338C11.3232 14.3955 11.0695 14.4259 10.8087 14.4259H4.92636C3.09896 14.4259 1.61754 12.9335 1.61754 11.0925V5.16661Z" fill="black"/>
</g>
</svg>
