<svg width="130" height="32" viewBox="0 0 130 32" fill="currentColor" xmlns="http://www.w3.org/2000/svg">
<path d="M0 8C0 3.58172 3.58172 0 8 0H122C126.418 0 130 3.58172 130 8V24C130 28.4183 126.418 32 122 32H8C3.58172 32 0 28.4183 0 24V8Z" fill="currentColor"/>
<g clip-path="url(#clip0_1_2696)">
<path d="M49.6583 23.3779H51.532V16.3855L54.418 23.3779H55.9291L58.8 16.3855V23.3779H60.6738V12.8291H58.3769L55.1737 20.6201L51.9704 12.8291H49.6583V23.3779Z" fill="#111111"/>
<path d="M65.8001 23.4985C68.1119 23.4985 69.7741 21.8408 69.7741 19.5803C69.7741 17.3199 68.1119 15.6622 65.8001 15.6622C63.4733 15.6622 61.8112 17.3199 61.8112 19.5803C61.8112 21.8408 63.4733 23.4985 65.8001 23.4985ZM65.8001 21.9011C64.5308 21.9011 63.6849 20.9517 63.6849 19.5803C63.6849 18.209 64.5308 17.2596 65.8001 17.2596C67.0544 17.2596 67.9004 18.209 67.9004 19.5803C67.9004 20.9517 67.0544 21.9011 65.8001 21.9011Z" fill="#111111"/>
<path d="M74.3072 23.4985C76.619 23.4985 78.2812 21.8408 78.2812 19.5803C78.2812 17.3199 76.619 15.6622 74.3072 15.6622C71.9804 15.6622 70.3182 17.3199 70.3182 19.5803C70.3182 21.8408 71.9804 23.4985 74.3072 23.4985ZM74.3072 21.9011C73.0379 21.9011 72.1919 20.9517 72.1919 19.5803C72.1919 18.209 73.0379 17.2596 74.3072 17.2596C75.5615 17.2596 76.4075 18.209 76.4075 19.5803C76.4075 20.9517 75.5615 21.9011 74.3072 21.9011Z" fill="#111111"/>
<path d="M79.2332 23.3779H81.0919V19.2337C81.0919 18.1186 81.817 17.3048 82.8595 17.3048C83.8115 17.3048 84.4462 18.0281 84.4462 19.068V23.3779H86.3046V18.6761C86.3046 16.8979 85.1866 15.6622 83.4639 15.6622C82.3762 15.6622 81.515 16.1293 81.0919 16.9582V15.7827H79.2332V23.3779Z" fill="#111111"/>
<path d="M87.8478 23.3779H89.8575V19.3694H92.0938C94.2998 19.3694 95.6144 18.0131 95.6144 16.0992C95.6144 14.1854 94.2998 12.8291 92.0938 12.8291H87.8478V23.3779ZM89.8575 17.6966V14.5018H92.003C93.1816 14.5018 93.6652 15.2553 93.6652 16.0992C93.6652 16.9431 93.1816 17.6966 92.003 17.6966H89.8575Z" fill="#111111"/>
<path d="M99.1827 15.6622C97.2032 15.6622 95.9189 16.8376 95.8281 18.3446H97.4903C97.5205 17.6665 98.1099 17.0486 99.0919 17.0486C100.074 17.0486 100.648 17.5761 100.648 18.3145C100.648 18.6159 100.467 18.8268 100.089 18.8268H98.6841C96.9767 18.8268 95.8281 19.7461 95.8281 21.2229C95.8281 22.534 96.8556 23.4985 98.3667 23.4985C99.4548 23.4985 100.331 23.0012 100.648 22.2477V23.3779H102.477V18.4953C102.477 16.7773 101.117 15.6622 99.1827 15.6622ZM98.8049 22.1271C98.1099 22.1271 97.6263 21.7353 97.6263 21.1476C97.6263 20.4845 98.1552 20.0475 98.9409 20.0475H100.648V20.1681C100.648 21.3134 99.9684 22.1271 98.8049 22.1271Z" fill="#111111"/>
<path d="M110 15.7827H108.096L106.343 20.9969L104.575 15.7827H102.687L105.467 23.3779L104.394 26.4521H106.162L107.341 23.0162L110 15.7827Z" fill="#111111"/>
<path d="M42.0354 18.5116C42.0354 24.5803 37.1026 29.5 31.0177 29.5C24.9328 29.5 20 24.5803 20 18.5116C20 12.4429 24.9328 7.52326 31.0177 7.52326C37.1026 7.52326 42.0354 12.4429 42.0354 18.5116Z" fill="#7D01FF"/>
<path d="M48.6461 6.42441C48.6461 8.59182 46.8844 10.3488 44.7112 10.3488C42.538 10.3488 40.7762 8.59182 40.7762 6.42441C40.7762 4.25702 42.538 2.5 44.7112 2.5C46.8844 2.5 48.6461 4.25702 48.6461 6.42441Z" fill="#7D01FF"/>
</g>
<defs>
<clipPath id="clip0_1_2696">
<rect width="90" height="27" fill="currentColor" transform="translate(20 2.5)"/>
</clipPath>
</defs>
</svg>
