<svg width="16" height="17" viewBox="0 0 16 17" fill="currentColor" xmlns="http://www.w3.org/2000/svg">
<g id="Frame" clip-path="url(#clip0_1_2507)">
<g id="flower">
<path id="Shape" d="M8.88827 7.54433C8.62219 7.30661 8.26307 7.22688 7.92866 7.30343C7.49823 4.51356 7.8904 2.51125 9.10516 1.29649C11.1525 -0.750864 13.5319 1.62857 13.4344 3.0656C14.8714 2.96805 17.2509 5.34749 15.2035 7.39484C14.9375 7.66081 14.6338 7.88735 14.2923 8.07445C13.0173 7.47072 11.2803 7.38005 9.08939 7.78658C9.05608 7.73139 9.01732 7.67866 8.97309 7.62915L8.88827 7.54433ZM8.9395 9.10573C9.19267 8.83304 9.28743 8.46808 9.22205 8.13207C12.0154 7.62602 14.0008 7.96176 15.1784 9.13928C17.1675 11.1284 14.7185 13.5775 13.2836 13.5214C13.3398 14.9562 10.8907 17.4052 8.90156 15.4161C8.60376 15.1183 8.3598 14.7688 8.16968 14.3676C8.66209 13.0959 8.7351 11.4485 8.40089 9.43155C8.56602 9.38737 8.72391 9.30461 8.86009 9.18347L8.9395 9.10573ZM7.33394 7.65733C7.09612 7.9247 7.00621 8.27571 7.06579 8.601C4.259 9.11374 2.26504 8.77955 1.08392 7.59844C-0.905227 5.60928 1.54383 3.16023 2.97864 3.21636C2.92251 1.78155 5.37156 -0.667507 7.36072 1.32164C7.61914 1.58007 7.83702 1.8774 8.01435 2.21365C7.37142 3.51122 7.23188 5.25913 7.57965 7.44865C7.52079 7.48578 7.46451 7.52888 7.41169 7.57792L7.33394 7.65733ZM7.39289 9.19241C7.57474 9.35861 7.80138 9.44983 8.0343 9.46661C8.52254 12.3767 8.14272 14.4556 6.89484 15.7035C4.84749 17.7509 2.46805 15.3714 2.5656 13.9344C1.12857 14.0319 -1.25086 11.6525 0.796491 9.60516C1.16386 9.23779 1.60326 8.94565 2.11469 8.72875C3.37958 9.27491 5.07511 9.34295 7.19412 8.94719C7.23082 9.00973 7.27444 9.0692 7.32501 9.12453L7.39289 9.19241Z" fill="currentColor"/>
</g>
</g>
<defs>
<clipPath id="clip0_1_2507">
<rect width="16" height="16" fill="currentColor" transform="translate(0 0.5)"/>
</clipPath>
</defs>
</svg>
