<svg width="20" height="20" viewBox="0 0 20 20" fill="currentColor" xmlns="http://www.w3.org/2000/svg">
<g id="Frame">
<g id="cross">
<path id="Close" fill-rule="evenodd" clip-rule="evenodd" d="M12.5491 5.44652L10.0191 7.97452L7.48905 5.44452C7.12623 5.06666 6.58741 4.91458 6.08056 5.04699C5.57371 5.17939 5.17811 5.57557 5.04645 6.08261C4.91479 6.58965 5.06766 7.12825 5.44606 7.49052L7.97505 10.0205L5.44806 12.5475C4.89839 13.1154 4.90566 14.0192 5.46439 14.5782C6.02311 15.1372 6.92687 15.1449 7.49505 14.5955L10.0191 12.0635L12.5471 14.5925C12.9101 14.9696 13.4486 15.1212 13.9551 14.9889C14.4616 14.8566 14.8572 14.4611 14.9895 13.9546C15.1218 13.4481 14.9702 12.9096 14.5931 12.5465L12.0691 10.0215L14.5961 7.49452C15.1457 6.92661 15.1385 6.02285 14.5797 5.46385C14.021 4.90485 13.1172 4.89714 12.5491 5.44652Z" fill="currentColor"/>
</g>
</g>
</svg>
