<svg width="9" height="17" viewBox="0 0 9 17" fill="currentColor" xmlns="http://www.w3.org/2000/svg">
<g id="Frame" clip-path="url(#clip0_1_2732)">
<g id="arrow">
<path id="Arrow-left-1" d="M9.00002 14.8246C9.00353 14.3849 8.84271 13.9601 8.55002 13.6361L3.76652 8.50005L8.55002 3.36405C9.15773 2.69411 9.15773 1.66256 8.55002 0.992623C8.26661 0.678483 7.86641 0.499619 7.44696 0.499619C7.0275 0.499619 6.6273 0.678483 6.34389 0.992623L0.457894 7.31491C-0.152631 7.98241 -0.152631 9.01541 0.457894 9.68291L6.33827 16.0075C6.62168 16.3216 7.02187 16.5005 7.44133 16.5005C7.86079 16.5005 8.26098 16.3216 8.54439 16.0075C8.83673 15.6855 8.9976 15.2626 8.99439 14.8246" fill="currentColor"/>
</g>
</g>
<defs>
<clipPath id="clip0_1_2732">
<rect width="9" height="16" fill="currentColor" transform="translate(0 0.5)"/>
</clipPath>
</defs>
</svg>
