<svg width="16" height="17" viewBox="0 0 16 17" fill="currentColor" xmlns="http://www.w3.org/2000/svg">
<g id="Frame" clip-path="url(#clip0_1_2531)">
<g id="Group">
<path id="Vector" d="M8 11.1671C6.52677 11.1671 5.33292 9.97323 5.33292 8.5C5.33292 7.02677 6.52677 5.83415 8 5.83415C9.47323 5.83415 10.6671 7.02677 10.6671 8.5C10.6671 9.97323 9.47323 11.1671 8 11.1671ZM15.2 7.15846L13.9643 6.90615C13.8462 6.88277 13.7538 6.79415 13.7182 6.67969C13.616 6.35723 13.4855 6.04462 13.328 5.74554C13.2714 5.63846 13.2751 5.51046 13.3415 5.40954L14.0382 4.35723C14.3003 3.96092 14.2474 3.43415 13.9114 3.09815L13.4018 2.58862C13.0658 2.25262 12.5403 2.19969 12.144 2.46185L11.0905 3.15969C10.9895 3.22492 10.8615 3.22862 10.7545 3.172C10.4554 3.01446 10.144 2.88523 9.82031 2.78308C9.70585 2.74615 9.61846 2.65385 9.59508 2.53569L9.34154 1.30123C9.24677 0.834769 8.83815 0.5 8.36185 0.5H7.63815C7.16185 0.5 6.75323 0.834769 6.65846 1.30123L6.40492 2.53569C6.38154 2.65385 6.29415 2.74615 6.17969 2.78308C5.856 2.88523 5.54462 3.01446 5.24554 3.172C5.13846 3.22862 5.01046 3.22492 4.90954 3.15969L3.856 2.46185C3.45969 2.19969 2.93415 2.25262 2.59815 2.58862L2.08862 3.09815C1.75262 3.43415 1.69969 3.96092 1.96185 4.35723L2.65846 5.40954C2.72492 5.51046 2.72862 5.63846 2.672 5.74554C2.51446 6.04462 2.384 6.35723 2.28185 6.67969C2.24615 6.79415 2.15385 6.88277 2.03569 6.90615L0.8 7.15846C0.334769 7.25323 0 7.66308 0 8.13815V8.86185C0 9.33815 0.334769 9.748 0.8 9.84277L2.03569 10.0951C2.15385 10.1185 2.24615 10.2058 2.28185 10.3203C2.384 10.644 2.51446 10.9566 2.672 11.2545C2.72862 11.3628 2.72492 11.4895 2.65846 11.5905L1.96185 12.644C1.69969 13.0403 1.75262 13.5658 2.08862 13.9018L2.59815 14.4114C2.93415 14.7474 3.45969 14.8003 3.856 14.5382L4.90954 13.8415C5.01046 13.7751 5.13846 13.7726 5.24554 13.828C5.54462 13.9868 5.856 14.116 6.17969 14.2182C6.29415 14.2538 6.38154 14.3462 6.40492 14.4643L6.65846 15.7C6.75323 16.1665 7.16185 16.5 7.63815 16.5H8.36185C8.83815 16.5 9.24677 16.1665 9.34154 15.7L9.59508 14.4643C9.61846 14.3462 9.70585 14.2538 9.82031 14.2182C10.144 14.116 10.4554 13.9868 10.7545 13.828C10.8615 13.7726 10.9895 13.7751 11.0905 13.8415L12.144 14.5382C12.5403 14.8003 13.0658 14.7474 13.4018 14.4114L13.9114 13.9018C14.2474 13.5658 14.3003 13.0403 14.0382 12.644L13.3415 11.5905C13.2751 11.4895 13.2714 11.3628 13.328 11.2545C13.4855 10.9566 13.616 10.644 13.7182 10.3203C13.7538 10.2058 13.8462 10.1185 13.9643 10.0951L15.2 9.84277C15.6652 9.748 16 9.33815 16 8.86185V8.13815C16 7.66308 15.6652 7.25323 15.2 7.15846Z" fill="currentColor"/>
</g>
</g>
<defs>
<clipPath id="clip0_1_2531">
<rect width="16" height="16" fill="currentColor" transform="translate(0 0.5)"/>
</clipPath>
</defs>
</svg>
